<svg viewBox="0 0 259 29" version="1.1" xmlns="http://www.w3.org/2000/svg" xmlns:xlink="http://www.w3.org/1999/xlink">
					    <!-- Generator: Sketch 42 (36781) - http://www.bohemiancoding.com/sketch -->
					    <title>Page 1</title>
					    <desc>Created with Sketch.</desc>
					    <defs></defs>
					    <g id="Page-1" stroke="none" stroke-width="1" fill="none" fill-rule="evenodd">
					        <g id="Artboard" transform="translate(-153.000000, -208.000000)">
					            <g id="Page-1" transform="translate(153.000000, 208.000000)">
					                <path d="M14.8511,11.9907 L11.8731,13.6107 C11.0301,12.5407 9.8971,12.0057 8.4741,12.0057 C7.5161,12.0057 6.6691,12.2097 5.9311,12.6177 C5.1931,13.0257 4.6051,13.6157 4.1651,14.3877 C3.7261,15.1607 3.5071,15.9767 3.5071,16.8357 C3.5071,17.9417 3.8531,18.8277 4.5481,19.4957 C5.2421,20.1617 6.1951,20.4957 7.4071,20.4957 C9.0841,20.4957 10.3711,19.9297 11.2671,18.7967 L14.0341,20.7517 C13.2511,21.6877 12.2781,22.4177 11.1131,22.9457 C9.9481,23.4747 8.6481,23.7387 7.2151,23.7387 C4.9811,23.7387 3.2211,23.1227 1.9321,21.8927 C0.6441,20.6617 0.0001,19.0367 0.0001,17.0157 C0.0001,14.7037 0.7961,12.7327 2.3871,11.1017 C3.9791,9.4717 6.0271,8.6567 8.5341,8.6567 C11.3561,8.6567 13.4621,9.7677 14.8511,11.9907" id="Fill-1" fill="#96C93C"></path>
					                <polygon id="Fill-3" fill="#96C93C" points="19.3804 3.4887 22.8934 3.4887 20.1764 23.3687 16.6644 23.3687"></polygon>
					                <path d="M35.2002,14.642 C34.9362,13.763 34.4972,13.097 33.8822,12.645 C33.2662,12.192 32.5242,11.965 31.6542,11.965 C30.7922,11.965 30.0142,12.199 29.3202,12.664 C28.6262,13.13 28.0982,13.789 27.7382,14.642 L35.2002,14.642 Z M34.3042,19.172 L37.4022,20.777 C36.7072,21.689 35.7862,22.412 34.6402,22.943 C33.4932,23.473 32.2212,23.738 30.8232,23.738 C28.6352,23.738 26.9102,23.123 25.6492,21.893 C24.3872,20.662 23.7572,19.027 23.7572,16.988 C23.7572,14.66 24.5452,12.689 26.1232,11.076 C27.7012,9.463 29.6062,8.657 31.8382,8.657 C33.1832,8.657 34.3802,8.952 35.4312,9.539 C36.4812,10.129 37.3092,10.986 37.9162,12.111 C38.5222,13.236 38.8262,14.458 38.8262,15.775 C38.8262,16.189 38.7822,16.672 38.6942,17.227 L27.2502,17.227 C27.2852,18.223 27.6132,19.018 28.2332,19.609 C28.8522,20.199 29.7072,20.496 30.7972,20.496 C32.1152,20.496 33.2842,20.055 34.3042,19.172 L34.3042,19.172 Z" id="Fill-5" fill="#96C93C"></path>
					                <path d="M67.6055,14.642 C67.3415,13.763 66.9025,13.097 66.2875,12.645 C65.6715,12.192 64.9295,11.965 64.0595,11.965 C63.1975,11.965 62.4195,12.199 61.7255,12.664 C61.0315,13.13 60.5035,13.789 60.1435,14.642 L67.6055,14.642 Z M66.7095,19.172 L69.8075,20.777 C69.1125,21.689 68.1915,22.412 67.0455,22.943 C65.8975,23.473 64.6265,23.738 63.2285,23.738 C61.0405,23.738 59.3145,23.123 58.0545,21.893 C56.7925,20.662 56.1625,19.027 56.1625,16.988 C56.1625,14.66 56.9505,12.689 58.5285,11.076 C60.1055,9.463 62.0115,8.657 64.2435,8.657 C65.5885,8.657 66.7855,8.952 67.8365,9.539 C68.8865,10.129 69.7145,10.986 70.3215,12.111 C70.9275,13.236 71.2305,14.458 71.2305,15.775 C71.2305,16.189 71.1865,16.672 71.0995,17.227 L59.6555,17.227 C59.6905,18.223 60.0185,19.018 60.6385,19.609 C61.2575,20.199 62.1125,20.496 63.2025,20.496 C64.5205,20.496 65.6895,20.055 66.7095,19.172 L66.7095,19.172 Z" id="Fill-7" fill="#96C93C"></path>
					                <path d="M74.3906,9.0258 L77.5276,9.0258 L77.2766,10.9768 C78.2176,9.4298 79.3466,8.6568 80.6646,8.6568 C80.9816,8.6568 81.3106,8.7408 81.6536,8.9088 L80.3666,12.1098 C80.0986,12.0138 79.9026,11.9648 79.7776,11.9648 C79.0916,11.9648 78.4786,12.3638 77.9386,13.1588 C77.3996,13.9548 76.9736,15.5608 76.6616,17.9768 L75.9666,23.3688 L72.4306,23.3688 L74.3906,9.0258 Z" id="Fill-9" fill="#96C93C"></path>
					                <path d="M89.0903,20.6015 C89.9573,20.6015 90.7133,20.4085 91.3593,20.0215 C92.0043,19.6365 92.5463,19.0315 92.9843,18.2055 C93.4223,17.3805 93.6403,16.5395 93.6403,15.6795 C93.6403,14.5425 93.3113,13.6285 92.6523,12.9365 C91.9933,12.2455 91.1243,11.8995 90.0453,11.8995 C88.7893,11.8995 87.7233,12.3615 86.8483,13.2835 C85.9723,14.2075 85.5353,15.3985 85.5353,16.8575 C85.5353,17.9825 85.8663,18.8865 86.5303,19.5725 C87.1933,20.2575 88.0473,20.6015 89.0903,20.6015 L89.0903,20.6015 Z M94.3773,9.0255 L97.9013,9.0255 L95.9013,23.3695 L92.4173,23.3695 L92.6273,21.8285 C91.8613,22.5405 91.1473,23.0375 90.4823,23.3165 C89.8183,23.5975 89.0723,23.7385 88.2453,23.7385 C86.3443,23.7385 84.8333,23.0395 83.7113,21.6425 C82.5893,20.2445 82.0283,18.6195 82.0283,16.7635 C82.0283,15.3505 82.3873,14.0025 83.1053,12.7245 C83.8233,11.4445 84.7873,10.4475 85.9973,9.7305 C87.2073,9.0155 88.4723,8.6565 89.7933,8.6565 C90.6793,8.6565 91.4973,8.8595 92.2463,9.2665 C92.9953,9.6745 93.6133,10.2665 94.1013,11.0455 L94.3773,9.0255 Z" id="Fill-11" fill="#96C93C"></path>
					                <polygon id="Fill-13" fill="#96C93C" points="102.3686 3.6997 105.8686 3.6997 105.1436 9.0257 107.3716 9.0257 106.9496 12.0577 104.7316 12.0577 103.1936 23.3687 99.6806 23.3687 101.2266 12.0577 99.4996 12.0577 99.9086 9.0257 101.6406 9.0257"></polygon>
					                <path d="M122.563,20.6015 C123.43,20.6015 124.186,20.4085 124.831,20.0215 C125.477,19.6365 126.019,19.0315 126.456,18.2055 C126.894,17.3805 127.114,16.5395 127.114,15.6795 C127.114,14.5425 126.784,13.6285 126.126,12.9365 C125.466,12.2455 124.597,11.8995 123.518,11.8995 C122.262,11.8995 121.197,12.3615 120.321,13.2835 C119.446,14.2075 119.007,15.3985 119.007,16.8575 C119.007,17.9825 119.339,18.8865 120.002,19.5725 C120.667,20.2575 121.519,20.6015 122.563,20.6015 L122.563,20.6015 Z M127.849,9.0255 L131.374,9.0255 L129.374,23.3695 L125.89,23.3695 L126.1,21.8285 C125.334,22.5405 124.62,23.0375 123.956,23.3165 C123.29,23.5975 122.545,23.7385 121.718,23.7385 C119.817,23.7385 118.306,23.0395 117.184,21.6425 C116.062,20.2445 115.501,18.6195 115.501,16.7635 C115.501,15.3505 115.86,14.0025 116.578,12.7245 C117.295,11.4445 118.259,10.4475 119.469,9.7305 C120.679,9.0155 121.945,8.6565 123.266,8.6565 C124.152,8.6565 124.97,8.8595 125.719,9.2665 C126.468,9.6745 127.086,10.2665 127.574,11.0455 L127.849,9.0255 Z" id="Fill-15" fill="#96C93C"></path>
					                <polygon id="Fill-17" fill="#96C93C" points="135.4751 3.4887 138.9881 3.4887 136.2711 23.3687 132.7581 23.3687"></polygon>
					                <polygon id="Fill-19" fill="#96C93C" points="141.9487 3.4887 145.4617 3.4887 142.7447 23.3687 139.2317 23.3687"></polygon>
					                <path d="M154.4653,11.979 C153.1513,11.979 152.0453,12.427 151.1443,13.324 C150.2423,14.22 149.7923,15.324 149.7923,16.633 C149.7923,17.697 150.1273,18.549 150.7973,19.189 C151.4673,19.832 152.3633,20.152 153.4863,20.152 C154.3293,20.152 155.1083,19.957 155.8233,19.564 C156.5383,19.172 157.1053,18.609 157.5213,17.877 C157.9383,17.144 158.1463,16.353 158.1463,15.508 C158.1463,14.496 157.8023,13.655 157.1133,12.985 C156.4253,12.314 155.5423,11.979 154.4653,11.979 L154.4653,11.979 Z M158.7923,9.026 L162.3203,9.026 L160.6813,20.541 C160.3683,22.801 160.0473,24.297 159.7163,25.033 C159.1983,26.172 158.3283,27.115 157.1053,27.863 C155.8823,28.611 154.3463,28.986 152.4983,28.986 C150.9623,28.986 149.6253,28.693 148.4873,28.109 C147.3493,27.525 146.4983,26.771 145.9363,25.848 L149.0183,24.266 C149.9423,25.225 151.1443,25.703 152.6243,25.703 C153.4853,25.703 154.2303,25.549 154.8583,25.242 C155.4853,24.934 155.9753,24.519 156.3243,23.996 C156.6743,23.473 156.9213,22.697 157.0653,21.668 C155.7643,22.803 154.2873,23.369 152.6373,23.369 C151.4883,23.369 150.4283,23.086 149.4543,22.519 C148.4813,21.953 147.7153,21.154 147.1593,20.127 C146.6033,19.098 146.3253,17.955 146.3253,16.699 C146.3253,15.284 146.6893,13.954 147.4173,12.71 C148.1453,11.467 149.1363,10.481 150.3903,9.75 C151.6443,9.022 152.9543,8.657 154.3203,8.657 C155.1483,8.657 155.8983,8.818 156.5723,9.14 C157.2463,9.462 157.9073,10.004 158.5543,10.765 L158.7923,9.026 Z" id="Fill-21" fill="#96C93C"></path>
					                <polygon id="Fill-23" fill="#96C93C" points="166.2466 3.4887 169.7596 3.4887 167.0426 23.3687 163.5296 23.3687"></polygon>
					                <path d="M177.6313,20.6015 C178.4983,20.6015 179.2543,20.4085 179.9003,20.0215 C180.5453,19.6365 181.0873,19.0315 181.5253,18.2055 C181.9623,17.3805 182.1823,16.5395 182.1823,15.6795 C182.1823,14.5425 181.8523,13.6285 181.1943,12.9365 C180.5343,12.2455 179.6653,11.8995 178.5863,11.8995 C177.3303,11.8995 176.2653,12.3615 175.3893,13.2835 C174.5143,14.2075 174.0753,15.3985 174.0753,16.8575 C174.0753,17.9825 174.4073,18.8865 175.0703,19.5725 C175.7353,20.2575 176.5873,20.6015 177.6313,20.6015 L177.6313,20.6015 Z M182.9173,9.0255 L186.4433,9.0255 L184.4433,23.3695 L180.9583,23.3695 L181.1683,21.8285 C180.4023,22.5405 179.6883,23.0375 179.0243,23.3165 C178.3593,23.5975 177.6133,23.7385 176.7863,23.7385 C174.8853,23.7385 173.3743,23.0395 172.2523,21.6425 C171.1303,20.2445 170.5693,18.6195 170.5693,16.7635 C170.5693,15.3505 170.9283,14.0025 171.6463,12.7245 C172.3633,11.4445 173.3273,10.4475 174.5373,9.7305 C175.7473,9.0155 177.0133,8.6565 178.3343,8.6565 C179.2203,8.6565 180.0383,8.8595 180.7873,9.2665 C181.5363,9.6745 182.1543,10.2665 182.6423,11.0455 L182.9173,9.0255 Z" id="Fill-25" fill="#96C93C"></path>
					                <path d="M190.2085,9.0258 L193.7215,9.0258 L193.5215,10.4808 C194.8675,9.2648 196.2675,8.6568 197.7195,8.6568 C198.9595,8.6568 199.9765,9.0498 200.7675,9.8378 C201.5605,10.6258 201.9555,11.6178 201.9555,12.8138 C201.9555,13.3768 201.8815,14.2168 201.7315,15.3348 L200.6335,23.3688 L197.1205,23.3688 L198.1925,15.5258 C198.2985,14.7168 198.3515,14.1108 198.3515,13.7058 C198.3515,13.1258 198.1855,12.6798 197.8545,12.3678 C197.5245,12.0558 197.0555,11.8998 196.4455,11.8998 C195.8545,11.8998 195.2635,12.1038 194.6725,12.5128 C194.0815,12.9208 193.6275,13.4888 193.3095,14.2128 C192.9915,14.9388 192.7005,16.2988 192.4355,18.2928 L191.7615,23.3688 L188.2485,23.3688 L190.2085,9.0258 Z" id="Fill-27" fill="#96C93C"></path>
					                <polygon id="Fill-29" fill="#96C93C" points="204.9917 9.0258 216.3567 9.0258 209.0127 20.1268 215.7367 20.1268 215.2887 23.3688 202.9097 23.3688 210.2257 12.3088 204.5697 12.3088"></polygon>
					                <path d="M231.6313,20.6015 C232.4983,20.6015 233.2543,20.4085 233.9003,20.0215 C234.5453,19.6365 235.0873,19.0315 235.5253,18.2055 C235.9623,17.3805 236.1823,16.5395 236.1823,15.6795 C236.1823,14.5425 235.8523,13.6285 235.1943,12.9365 C234.5343,12.2455 233.6653,11.8995 232.5863,11.8995 C231.3303,11.8995 230.2653,12.3615 229.3893,13.2835 C228.5143,14.2075 228.0753,15.3985 228.0753,16.8575 C228.0753,17.9825 228.4073,18.8865 229.0713,19.5725 C229.7353,20.2575 230.5873,20.6015 231.6313,20.6015 L231.6313,20.6015 Z M236.9173,9.0255 L240.4433,9.0255 L238.4433,23.3695 L234.9583,23.3695 L235.1683,21.8285 C234.4023,22.5405 233.6883,23.0375 233.0243,23.3165 C232.3593,23.5975 231.6143,23.7385 230.7863,23.7385 C228.8853,23.7385 227.3743,23.0395 226.2523,21.6425 C225.1303,20.2445 224.5703,18.6195 224.5703,16.7635 C224.5703,15.3505 224.9283,14.0025 225.6463,12.7245 C226.3643,11.4445 227.3273,10.4475 228.5373,9.7305 C229.7473,9.0155 231.0133,8.6565 232.3343,8.6565 C233.2203,8.6565 234.0383,8.8595 234.7873,9.2665 C235.5363,9.6745 236.1553,10.2665 236.6423,11.0455 L236.9173,9.0255 Z" id="Fill-31" fill="#96C93C"></path>
					                <path d="M250.5864,11.979 C249.2724,11.979 248.1664,12.427 247.2654,13.324 C246.3634,14.22 245.9134,15.324 245.9134,16.633 C245.9134,17.697 246.2484,18.549 246.9184,19.189 C247.5884,19.832 248.4844,20.152 249.6074,20.152 C250.4504,20.152 251.2294,19.957 251.9444,19.564 C252.6594,19.172 253.2264,18.609 253.6424,17.877 C254.0594,17.144 254.2674,16.353 254.2674,15.508 C254.2674,14.496 253.9234,13.655 253.2344,12.985 C252.5464,12.314 251.6634,11.979 250.5864,11.979 L250.5864,11.979 Z M254.9134,9.026 L258.4414,9.026 L256.8024,20.541 C256.4894,22.801 256.1684,24.297 255.8374,25.033 C255.3194,26.172 254.4494,27.115 253.2264,27.863 C252.0034,28.611 250.4674,28.986 248.6194,28.986 C247.0834,28.986 245.7464,28.693 244.6084,28.109 C243.4704,27.525 242.6194,26.771 242.0574,25.848 L245.1394,24.266 C246.0634,25.225 247.2654,25.703 248.7454,25.703 C249.6064,25.703 250.3514,25.549 250.9794,25.242 C251.6064,24.934 252.0964,24.519 252.4454,23.996 C252.7954,23.473 253.0424,22.697 253.1864,21.668 C251.8854,22.803 250.4084,23.369 248.7584,23.369 C247.6094,23.369 246.5494,23.086 245.5754,22.519 C244.6024,21.953 243.8364,21.154 243.2804,20.127 C242.7244,19.098 242.4464,17.955 242.4464,16.699 C242.4464,15.284 242.8104,13.954 243.5384,12.71 C244.2664,11.467 245.2574,10.481 246.5114,9.75 C247.7654,9.022 249.0754,8.657 250.4414,8.657 C251.2694,8.657 252.0194,8.818 252.6934,9.14 C253.3674,9.462 254.0284,10.004 254.6754,10.765 L254.9134,9.026 Z" id="Fill-33" fill="#96C93C"></path>
					                <path d="M47.272,17.8134 C49.415,12.4814 56.704,0.9264 64.499,0.0004 C54.568,8.2084 48.424,21.4664 46.325,26.8584 C45.183,21.0704 42.958,13.1134 40.76,7.8674 C43.542,9.1774 46.465,13.2604 47.272,17.8134" id="Fill-35" fill="#EA2227"></path>
					                <path d="M14.8511,11.9907 L11.8731,13.6107 C11.0301,12.5407 9.8971,12.0057 8.4741,12.0057 C7.5161,12.0057 6.6691,12.2097 5.9311,12.6177 C5.1931,13.0257 4.6051,13.6157 4.1651,14.3877 C3.7261,15.1607 3.5071,15.9767 3.5071,16.8357 C3.5071,17.9417 3.8531,18.8277 4.5481,19.4957 C5.2421,20.1617 6.1951,20.4957 7.4071,20.4957 C9.0841,20.4957 10.3711,19.9297 11.2671,18.7967 L14.0341,20.7517 C13.2511,21.6877 12.2781,22.4177 11.1131,22.9457 C9.9481,23.4747 8.6481,23.7387 7.2151,23.7387 C4.9811,23.7387 3.2211,23.1227 1.9321,21.8927 C0.6441,20.6617 0.0001,19.0367 0.0001,17.0157 C0.0001,14.7037 0.7961,12.7327 2.3871,11.1017 C3.9791,9.4717 6.0271,8.6567 8.5341,8.6567 C11.3561,8.6567 13.4621,9.7677 14.8511,11.9907" id="Fill-1" fill="#96C93C"></path>
					                <polygon id="Fill-3" fill="#96C93C" points="19.3804 3.4887 22.8934 3.4887 20.1764 23.3687 16.6644 23.3687"></polygon>
					                <path d="M35.2002,14.642 C34.9362,13.763 34.4972,13.097 33.8822,12.645 C33.2662,12.192 32.5242,11.965 31.6542,11.965 C30.7922,11.965 30.0142,12.199 29.3202,12.664 C28.6262,13.13 28.0982,13.789 27.7382,14.642 L35.2002,14.642 Z M34.3042,19.172 L37.4022,20.777 C36.7072,21.689 35.7862,22.412 34.6402,22.943 C33.4932,23.473 32.2212,23.738 30.8232,23.738 C28.6352,23.738 26.9102,23.123 25.6492,21.893 C24.3872,20.662 23.7572,19.027 23.7572,16.988 C23.7572,14.66 24.5452,12.689 26.1232,11.076 C27.7012,9.463 29.6062,8.657 31.8382,8.657 C33.1832,8.657 34.3802,8.952 35.4312,9.539 C36.4812,10.129 37.3092,10.986 37.9162,12.111 C38.5222,13.236 38.8262,14.458 38.8262,15.775 C38.8262,16.189 38.7822,16.672 38.6942,17.227 L27.2502,17.227 C27.2852,18.223 27.6132,19.018 28.2332,19.609 C28.8522,20.199 29.7072,20.496 30.7972,20.496 C32.1152,20.496 33.2842,20.055 34.3042,19.172 L34.3042,19.172 Z" id="Fill-5" fill="#96C93C"></path>
					                <path d="M67.6055,14.642 C67.3415,13.763 66.9025,13.097 66.2875,12.645 C65.6715,12.192 64.9295,11.965 64.0595,11.965 C63.1975,11.965 62.4195,12.199 61.7255,12.664 C61.0315,13.13 60.5035,13.789 60.1435,14.642 L67.6055,14.642 Z M66.7095,19.172 L69.8075,20.777 C69.1125,21.689 68.1915,22.412 67.0455,22.943 C65.8975,23.473 64.6265,23.738 63.2285,23.738 C61.0405,23.738 59.3145,23.123 58.0545,21.893 C56.7925,20.662 56.1625,19.027 56.1625,16.988 C56.1625,14.66 56.9505,12.689 58.5285,11.076 C60.1055,9.463 62.0115,8.657 64.2435,8.657 C65.5885,8.657 66.7855,8.952 67.8365,9.539 C68.8865,10.129 69.7145,10.986 70.3215,12.111 C70.9275,13.236 71.2305,14.458 71.2305,15.775 C71.2305,16.189 71.1865,16.672 71.0995,17.227 L59.6555,17.227 C59.6905,18.223 60.0185,19.018 60.6385,19.609 C61.2575,20.199 62.1125,20.496 63.2025,20.496 C64.5205,20.496 65.6895,20.055 66.7095,19.172 L66.7095,19.172 Z" id="Fill-7" fill="#96C93C"></path>
					                <path d="M74.3906,9.0258 L77.5276,9.0258 L77.2766,10.9768 C78.2176,9.4298 79.3466,8.6568 80.6646,8.6568 C80.9816,8.6568 81.3106,8.7408 81.6536,8.9088 L80.3666,12.1098 C80.0986,12.0138 79.9026,11.9648 79.7776,11.9648 C79.0916,11.9648 78.4786,12.3638 77.9386,13.1588 C77.3996,13.9548 76.9736,15.5608 76.6616,17.9768 L75.9666,23.3688 L72.4306,23.3688 L74.3906,9.0258 Z" id="Fill-9" fill="#96C93C"></path>
					                <path d="M89.0903,20.6015 C89.9573,20.6015 90.7133,20.4085 91.3593,20.0215 C92.0043,19.6365 92.5463,19.0315 92.9843,18.2055 C93.4223,17.3805 93.6403,16.5395 93.6403,15.6795 C93.6403,14.5425 93.3113,13.6285 92.6523,12.9365 C91.9933,12.2455 91.1243,11.8995 90.0453,11.8995 C88.7893,11.8995 87.7233,12.3615 86.8483,13.2835 C85.9723,14.2075 85.5353,15.3985 85.5353,16.8575 C85.5353,17.9825 85.8663,18.8865 86.5303,19.5725 C87.1933,20.2575 88.0473,20.6015 89.0903,20.6015 L89.0903,20.6015 Z M94.3773,9.0255 L97.9013,9.0255 L95.9013,23.3695 L92.4173,23.3695 L92.6273,21.8285 C91.8613,22.5405 91.1473,23.0375 90.4823,23.3165 C89.8183,23.5975 89.0723,23.7385 88.2453,23.7385 C86.3443,23.7385 84.8333,23.0395 83.7113,21.6425 C82.5893,20.2445 82.0283,18.6195 82.0283,16.7635 C82.0283,15.3505 82.3873,14.0025 83.1053,12.7245 C83.8233,11.4445 84.7873,10.4475 85.9973,9.7305 C87.2073,9.0155 88.4723,8.6565 89.7933,8.6565 C90.6793,8.6565 91.4973,8.8595 92.2463,9.2665 C92.9953,9.6745 93.6133,10.2665 94.1013,11.0455 L94.3773,9.0255 Z" id="Fill-11" fill="#96C93C"></path>
					                <polygon id="Fill-13" fill="#96C93C" points="102.3686 3.6997 105.8686 3.6997 105.1436 9.0257 107.3716 9.0257 106.9496 12.0577 104.7316 12.0577 103.1936 23.3687 99.6806 23.3687 101.2266 12.0577 99.4996 12.0577 99.9086 9.0257 101.6406 9.0257"></polygon>
					                <path d="M122.563,20.6015 C123.43,20.6015 124.186,20.4085 124.831,20.0215 C125.477,19.6365 126.019,19.0315 126.456,18.2055 C126.894,17.3805 127.114,16.5395 127.114,15.6795 C127.114,14.5425 126.784,13.6285 126.126,12.9365 C125.466,12.2455 124.597,11.8995 123.518,11.8995 C122.262,11.8995 121.197,12.3615 120.321,13.2835 C119.446,14.2075 119.007,15.3985 119.007,16.8575 C119.007,17.9825 119.339,18.8865 120.002,19.5725 C120.667,20.2575 121.519,20.6015 122.563,20.6015 L122.563,20.6015 Z M127.849,9.0255 L131.374,9.0255 L129.374,23.3695 L125.89,23.3695 L126.1,21.8285 C125.334,22.5405 124.62,23.0375 123.956,23.3165 C123.29,23.5975 122.545,23.7385 121.718,23.7385 C119.817,23.7385 118.306,23.0395 117.184,21.6425 C116.062,20.2445 115.501,18.6195 115.501,16.7635 C115.501,15.3505 115.86,14.0025 116.578,12.7245 C117.295,11.4445 118.259,10.4475 119.469,9.7305 C120.679,9.0155 121.945,8.6565 123.266,8.6565 C124.152,8.6565 124.97,8.8595 125.719,9.2665 C126.468,9.6745 127.086,10.2665 127.574,11.0455 L127.849,9.0255 Z" id="Fill-15" fill="#96C93C"></path>
					                <polygon id="Fill-17" fill="#96C93C" points="135.4751 3.4887 138.9881 3.4887 136.2711 23.3687 132.7581 23.3687"></polygon>
					                <polygon id="Fill-19" fill="#96C93C" points="141.9487 3.4887 145.4617 3.4887 142.7447 23.3687 139.2317 23.3687"></polygon>
					                <path d="M154.4653,11.979 C153.1513,11.979 152.0453,12.427 151.1443,13.324 C150.2423,14.22 149.7923,15.324 149.7923,16.633 C149.7923,17.697 150.1273,18.549 150.7973,19.189 C151.4673,19.832 152.3633,20.152 153.4863,20.152 C154.3293,20.152 155.1083,19.957 155.8233,19.564 C156.5383,19.172 157.1053,18.609 157.5213,17.877 C157.9383,17.144 158.1463,16.353 158.1463,15.508 C158.1463,14.496 157.8023,13.655 157.1133,12.985 C156.4253,12.314 155.5423,11.979 154.4653,11.979 L154.4653,11.979 Z M158.7923,9.026 L162.3203,9.026 L160.6813,20.541 C160.3683,22.801 160.0473,24.297 159.7163,25.033 C159.1983,26.172 158.3283,27.115 157.1053,27.863 C155.8823,28.611 154.3463,28.986 152.4983,28.986 C150.9623,28.986 149.6253,28.693 148.4873,28.109 C147.3493,27.525 146.4983,26.771 145.9363,25.848 L149.0183,24.266 C149.9423,25.225 151.1443,25.703 152.6243,25.703 C153.4853,25.703 154.2303,25.549 154.8583,25.242 C155.4853,24.934 155.9753,24.519 156.3243,23.996 C156.6743,23.473 156.9213,22.697 157.0653,21.668 C155.7643,22.803 154.2873,23.369 152.6373,23.369 C151.4883,23.369 150.4283,23.086 149.4543,22.519 C148.4813,21.953 147.7153,21.154 147.1593,20.127 C146.6033,19.098 146.3253,17.955 146.3253,16.699 C146.3253,15.284 146.6893,13.954 147.4173,12.71 C148.1453,11.467 149.1363,10.481 150.3903,9.75 C151.6443,9.022 152.9543,8.657 154.3203,8.657 C155.1483,8.657 155.8983,8.818 156.5723,9.14 C157.2463,9.462 157.9073,10.004 158.5543,10.765 L158.7923,9.026 Z" id="Fill-21" fill="#96C93C"></path>
					                <polygon id="Fill-23" fill="#96C93C" points="166.2466 3.4887 169.7596 3.4887 167.0426 23.3687 163.5296 23.3687"></polygon>
					                <path d="M177.6313,20.6015 C178.4983,20.6015 179.2543,20.4085 179.9003,20.0215 C180.5453,19.6365 181.0873,19.0315 181.5253,18.2055 C181.9623,17.3805 182.1823,16.5395 182.1823,15.6795 C182.1823,14.5425 181.8523,13.6285 181.1943,12.9365 C180.5343,12.2455 179.6653,11.8995 178.5863,11.8995 C177.3303,11.8995 176.2653,12.3615 175.3893,13.2835 C174.5143,14.2075 174.0753,15.3985 174.0753,16.8575 C174.0753,17.9825 174.4073,18.8865 175.0703,19.5725 C175.7353,20.2575 176.5873,20.6015 177.6313,20.6015 L177.6313,20.6015 Z M182.9173,9.0255 L186.4433,9.0255 L184.4433,23.3695 L180.9583,23.3695 L181.1683,21.8285 C180.4023,22.5405 179.6883,23.0375 179.0243,23.3165 C178.3593,23.5975 177.6133,23.7385 176.7863,23.7385 C174.8853,23.7385 173.3743,23.0395 172.2523,21.6425 C171.1303,20.2445 170.5693,18.6195 170.5693,16.7635 C170.5693,15.3505 170.9283,14.0025 171.6463,12.7245 C172.3633,11.4445 173.3273,10.4475 174.5373,9.7305 C175.7473,9.0155 177.0133,8.6565 178.3343,8.6565 C179.2203,8.6565 180.0383,8.8595 180.7873,9.2665 C181.5363,9.6745 182.1543,10.2665 182.6423,11.0455 L182.9173,9.0255 Z" id="Fill-25" fill="#96C93C"></path>
					                <path d="M190.2085,9.0258 L193.7215,9.0258 L193.5215,10.4808 C194.8675,9.2648 196.2675,8.6568 197.7195,8.6568 C198.9595,8.6568 199.9765,9.0498 200.7675,9.8378 C201.5605,10.6258 201.9555,11.6178 201.9555,12.8138 C201.9555,13.3768 201.8815,14.2168 201.7315,15.3348 L200.6335,23.3688 L197.1205,23.3688 L198.1925,15.5258 C198.2985,14.7168 198.3515,14.1108 198.3515,13.7058 C198.3515,13.1258 198.1855,12.6798 197.8545,12.3678 C197.5245,12.0558 197.0555,11.8998 196.4455,11.8998 C195.8545,11.8998 195.2635,12.1038 194.6725,12.5128 C194.0815,12.9208 193.6275,13.4888 193.3095,14.2128 C192.9915,14.9388 192.7005,16.2988 192.4355,18.2928 L191.7615,23.3688 L188.2485,23.3688 L190.2085,9.0258 Z" id="Fill-27" fill="#96C93C"></path>
					                <polygon id="Fill-29" fill="#96C93C" points="204.9917 9.0258 216.3567 9.0258 209.0127 20.1268 215.7367 20.1268 215.2887 23.3688 202.9097 23.3688 210.2257 12.3088 204.5697 12.3088"></polygon>
					                <path d="M231.6313,20.6015 C232.4983,20.6015 233.2543,20.4085 233.9003,20.0215 C234.5453,19.6365 235.0873,19.0315 235.5253,18.2055 C235.9623,17.3805 236.1823,16.5395 236.1823,15.6795 C236.1823,14.5425 235.8523,13.6285 235.1943,12.9365 C234.5343,12.2455 233.6653,11.8995 232.5863,11.8995 C231.3303,11.8995 230.2653,12.3615 229.3893,13.2835 C228.5143,14.2075 228.0753,15.3985 228.0753,16.8575 C228.0753,17.9825 228.4073,18.8865 229.0713,19.5725 C229.7353,20.2575 230.5873,20.6015 231.6313,20.6015 L231.6313,20.6015 Z M236.9173,9.0255 L240.4433,9.0255 L238.4433,23.3695 L234.9583,23.3695 L235.1683,21.8285 C234.4023,22.5405 233.6883,23.0375 233.0243,23.3165 C232.3593,23.5975 231.6143,23.7385 230.7863,23.7385 C228.8853,23.7385 227.3743,23.0395 226.2523,21.6425 C225.1303,20.2445 224.5703,18.6195 224.5703,16.7635 C224.5703,15.3505 224.9283,14.0025 225.6463,12.7245 C226.3643,11.4445 227.3273,10.4475 228.5373,9.7305 C229.7473,9.0155 231.0133,8.6565 232.3343,8.6565 C233.2203,8.6565 234.0383,8.8595 234.7873,9.2665 C235.5363,9.6745 236.1553,10.2665 236.6423,11.0455 L236.9173,9.0255 Z" id="Fill-31" fill="#96C93C"></path>
					                <path d="M250.5864,11.979 C249.2724,11.979 248.1664,12.427 247.2654,13.324 C246.3634,14.22 245.9134,15.324 245.9134,16.633 C245.9134,17.697 246.2484,18.549 246.9184,19.189 C247.5884,19.832 248.4844,20.152 249.6074,20.152 C250.4504,20.152 251.2294,19.957 251.9444,19.564 C252.6594,19.172 253.2264,18.609 253.6424,17.877 C254.0594,17.144 254.2674,16.353 254.2674,15.508 C254.2674,14.496 253.9234,13.655 253.2344,12.985 C252.5464,12.314 251.6634,11.979 250.5864,11.979 L250.5864,11.979 Z M254.9134,9.026 L258.4414,9.026 L256.8024,20.541 C256.4894,22.801 256.1684,24.297 255.8374,25.033 C255.3194,26.172 254.4494,27.115 253.2264,27.863 C252.0034,28.611 250.4674,28.986 248.6194,28.986 C247.0834,28.986 245.7464,28.693 244.6084,28.109 C243.4704,27.525 242.6194,26.771 242.0574,25.848 L245.1394,24.266 C246.0634,25.225 247.2654,25.703 248.7454,25.703 C249.6064,25.703 250.3514,25.549 250.9794,25.242 C251.6064,24.934 252.0964,24.519 252.4454,23.996 C252.7954,23.473 253.0424,22.697 253.1864,21.668 C251.8854,22.803 250.4084,23.369 248.7584,23.369 C247.6094,23.369 246.5494,23.086 245.5754,22.519 C244.6024,21.953 243.8364,21.154 243.2804,20.127 C242.7244,19.098 242.4464,17.955 242.4464,16.699 C242.4464,15.284 242.8104,13.954 243.5384,12.71 C244.2664,11.467 245.2574,10.481 246.5114,9.75 C247.7654,9.022 249.0754,8.657 250.4414,8.657 C251.2694,8.657 252.0194,8.818 252.6934,9.14 C253.3674,9.462 254.0284,10.004 254.6754,10.765 L254.9134,9.026 Z" id="Fill-33" fill="#96C93C"></path>
					                <path d="M47.272,17.8134 C49.415,12.4814 56.704,0.9264 64.499,0.0004 C54.568,8.2084 48.424,21.4664 46.325,26.8584 C45.183,21.0704 42.958,13.1134 40.76,7.8674 C43.542,9.1774 46.465,13.2604 47.272,17.8134" id="Fill-35" fill="#EA2227"></path>
					            </g>
					        </g>
					    </g>
					</svg>