<svg xmlns="http://www.w3.org/2000/svg" viewBox="0 0 355.21 74.47" id="B15V7H0sM"><style>#Hyf5NXBRsM{fill: #343434;}#HJQcVQB0sz{fill: #1e51a4;}#BJNcEXrCoG{fill: #fff;}#Skr9EmrAsf{fill: #fff;}#Hy8cVQrRoG{fill: #fff;}#HJDqE7B0iM{fill: #fff;}#Bku5E7S0jM{fill: #fff;}#BkYqE7rCjG{fill: #fff;}#H1954QHRif{fill: #ffc81a;}#r1o54mBAjG{fill: #1e51a4;}#HJn9VQH0oG{fill: #1e51a4;}#SyacNQSCif{fill: #1e51a4;}#HyA5E7S0oM{fill: #d1a74f;}#r11gc47SCif{fill: #d1a74f;}#rkegqEmBAof{fill: #d1a74f;}#HkZxqV7SRif{fill: #d1a74f;}#HyMl5EXHAoM{fill: #d1a74f;}#rk7xqVmSRof{fill: #d1a74f;}#HyVx5VQSAiG{fill: #343434;}#S1Sxq47BCoG{fill: #1e51a4;}#SkLx9VQSAoz{fill: #343434;}#BJveqVQr0jG{fill: #343434;}#rkuxqE7SRoG{fill: #343434;}#SJFx5EXSCsf{fill: #343434;}#H15e54QSRif{fill: #343434;}#SJsgc4mH0oM{fill: #343434;}#rJng9EmSAjG{fill: #343434;}#ry6ecEQS0jG{fill: #343434;}#HJ0e5NQH0iG{fill: #343434;}#B1k-cNQBCjf{fill: #343434;}#BJxZqVmHAoz{fill: #343434;}#HJbZqEQrRof{fill: #343434;}#ryMZ5NQB0sz{fill: #343434;}#BJXbqEXBCsz{fill: #343434;}#SkEZ547SCjz{fill: #343434;}#ryBW5N7SCoM{fill: #343434;}#HyL-qNQrRiG{fill: #343434;}#SyPZq47HAoG{fill: #343434;}#BJdZ5VmHAoG{fill: #343434;}#SJtZq4XSCiM{fill: #343434;}#Skc-94XBRof{fill: #343434;}#ryiZ5EQBAsf{fill: #939292;}#HyhWcN7HAjf{fill: #939292;}#SJ6W54QHAif{fill: #939292;}#rkCWqVmrAjz{fill: #939292;}#By1Mq4XS0iz{fill: #939292;}#BJgM54XSRjG{fill: #939292;}#Bk-M9V7HAoz{fill: #939292;}#Byzz9NQSAsz{fill: #939292;}#HkXzqN7SAsM{fill: #939292;}#rkEGcNXrRsf{fill: #939292;}#HyHzcVXrRsz{fill: #939292;}#Sy8fqVmrCoz{fill: #939292;}#SJvM54mB0oG{fill: #939292;}</style><defs/><title>kosowwwa_1</title><g id="S1e9N7BCif" data-name="Layer 2"><g id="ByW9VQBRjM" data-name="Layer 1"><polygon points="339.91 24.11 326.56 71.92 319.05 71.92 336.16 11.72 339.91 24.11" id="Hyf5NXBRsM"/><rect id="HJQcVQB0sz" x="0.01" y="0.16" width="49.89" height="33.26"/><path id="BJNcEXrCoG" d="M32.52,7.42,32,9.09H30.24l1.43,1-.56,1.64,1.42-1,1.39,1-.54-1.67,1.41-1H33Z"/><path id="Skr9EmrAsf" d="M27.54,6.68,27,8.35l-1.73,0,1.42,1L26.14,11l1.42-1L29,11,28.4,9.33l1.42-1H28.06Z"/><path id="Hy8cVQrRoG" d="M12.3,9l.54,1.67,1.73,0-1.42,1,.55,1.64-1.42-1-1.39,1,.54-1.67L10,10.6h1.76Z"/><path id="HJDqE7B0iM" d="M17.39,7.42l.54,1.67h1.74l-1.43,1,.56,1.64-1.42-1-1.39,1,.54-1.67-1.41-1h1.75Z"/><path id="Bku5E7S0jM" d="M22.37,6.68l.54,1.67,1.73,0-1.42,1L23.77,11l-1.42-1L21,11l.55-1.67-1.42-1h1.76Z"/><path id="BkYqE7rCjG" d="M37.61,9l-.54,1.67-1.73,0,1.42,1-.55,1.64,1.42-1,1.39,1-.54-1.67,1.41-1H38.13Z"/><path d="M29.74,25.07,29.55,25A5.7,5.7,0,0,0,31,21.15a5.77,5.77,0,0,0-1-3.24l0,0a5.84,5.84,0,0,0-1-1.11.19.19,0,0,0-.26,0,.2.2,0,0,0,0,.26,5.25,5.25,0,0,1,.83.87,8.11,8.11,0,0,1-1.37.38,6.3,6.3,0,0,0-.52-1.18A4.43,4.43,0,0,0,26.76,16a5.7,5.7,0,0,1,1.52.71.19.19,0,0,0,.26,0,.2.2,0,0,0-.05-.26,5.76,5.76,0,0,0-3.22-1A5.76,5.76,0,0,0,21,25l-.18.07a1,1,0,0,0-.66,1v.65a.19.19,0,0,0,.19.18h3.46a.18.18,0,1,0,0-.36h-.55v-.64a.89.89,0,0,1,.54-.87h0l.89-.35h0l.47.46a.21.21,0,0,0,.13.05h0a.16.16,0,0,0,.13-.06l.45-.46.89.35h0a.89.89,0,0,1,.54.87v.64H24.36a.18.18,0,0,0,0,.36h5.85a.19.19,0,0,0,.19-.18v-.65A1,1,0,0,0,29.74,25.07Zm-.55-.22L29,24.78v-.1a1,1,0,0,0,.43-.53.51.51,0,0,0,.28-.91v-.32a1.24,1.24,0,0,0-1.07-1.22c0-.12,0-.24,0-.37h2A5.33,5.33,0,0,1,29.19,24.85Zm-.65-.41h-.17a.58.58,0,0,1-.58-.58v-.48h0a2,2,0,0,0,1-.38.82.82,0,0,0,.35.34v.52A.58.58,0,0,1,28.54,24.44Zm.11.36v.1l-.2.21-.19-.18V24.8h.39Zm-1-1.77h-.06v-.12a.85.85,0,0,1,.86-.86h.08a.86.86,0,0,1,.87.86V23h0c-.25-.06-.34-.39-.34-.4a.17.17,0,0,0-.32-.06A1.49,1.49,0,0,1,27.61,23Zm1.87.73v-.24a.15.15,0,0,1,.07.12A.14.14,0,0,1,29.48,23.76Zm.32-5.54A5.31,5.31,0,0,1,30.66,21h-2a9.16,9.16,0,0,0-.33-2.33A7.87,7.87,0,0,0,29.8,18.22ZM28.3,21H26.44a1.47,1.47,0,0,0-1-.49V18.92A17.83,17.83,0,0,0,28,18.71,9,9,0,0,1,28.3,21Zm-1.6,1.9a.24.24,0,0,1-.18.22v-.45A.25.25,0,0,1,26.7,22.87Zm-1.25-7.11a2.74,2.74,0,0,1,1.93,1.54,5.42,5.42,0,0,1,.48,1.06,15.1,15.1,0,0,1-2.41.19V15.76Zm-.12,5.08A1.13,1.13,0,0,1,26.46,22v.23h-.08c-.34-.08-.45-.53-.45-.53a.18.18,0,0,0-.14-.14.18.18,0,0,0-.19.07,1.89,1.89,0,0,1-1.38.6H24.1V22a1.13,1.13,0,0,1,1.13-1.12ZM22.24,21a8.17,8.17,0,0,1,.33-2.26,17.7,17.7,0,0,0,2.52.21v1.56a1.52,1.52,0,0,0-1,.49H22.24ZM24,22.64v.45a.23.23,0,0,1-.18-.22A.25.25,0,0,1,24,22.64Zm1.05-6.88v2.79a15,15,0,0,1-2.41-.19,6.06,6.06,0,0,1,.47-1.06A2.73,2.73,0,0,1,25.09,15.76Zm-1.31.2a4.06,4.06,0,0,0-.94,1.15,7,7,0,0,0-.53,1.18A8.25,8.25,0,0,1,21,17.91,5.49,5.49,0,0,1,23.78,16Zm-3,2.26a7.87,7.87,0,0,0,1.47.42A9.16,9.16,0,0,0,21.87,21h-2A5.32,5.32,0,0,1,20.74,18.22Zm1.17,6.58h.39v.1l-.2.21-.19-.18Zm.28-.36H22a.58.58,0,0,1-.58-.58v-.48a1.9,1.9,0,0,0,1-.38.88.88,0,0,0,.35.34v.52A.58.58,0,0,1,22.19,24.44Zm.47-1.81a.2.2,0,0,0-.14-.14.21.21,0,0,0-.19.08,1.49,1.49,0,0,1-1.07.46H21.2v-.12a.86.86,0,0,1,.86-.86h.09a.86.86,0,0,1,.86.86V23h0C22.74,23,22.66,22.64,22.66,22.63Zm-2.78-1.3h2c0,.13,0,.25,0,.38a1.21,1.21,0,0,0-1.05,1.21v.32a.51.51,0,0,0-.2.4.52.52,0,0,0,.48.51,1,1,0,0,0,.43.53v.1l-.2.08A5.35,5.35,0,0,1,19.88,21.33Zm1.2,2.18v.26a.16.16,0,0,1,0-.26Zm1.79,2.4v.64H20.51v-.47a.66.66,0,0,1,.41-.66h0l.68-.27.37.36a.19.19,0,0,0,.13.05h0a.18.18,0,0,0,.13-.06l.34-.35.43.17A1.33,1.33,0,0,0,22.87,25.91Zm1.76-1.59-1,.38a1.15,1.15,0,0,0-.44.3l-.55-.22v-.1a1,1,0,0,0,.42-.53.5.5,0,0,0,.47-.51.51.51,0,0,0-.19-.4v-.32a1.22,1.22,0,0,0-1.12-1.22c0-.12,0-.25,0-.37h1.64a1.49,1.49,0,0,0-.14.63v.43a.58.58,0,0,0-.24.48.59.59,0,0,0,.59.59,1.14,1.14,0,0,0,.54.68v.18Zm-1.49-.56v-.24a.14.14,0,0,1,.06.12A.13.13,0,0,1,23.14,23.76Zm2.43.69h0l-.29.31L25,24.49v-.23l.19,0h.21l.18,0Zm-.18-.53h-.21a.78.78,0,0,1-.78-.78V22.5a2.37,2.37,0,0,0,1.29-.5,1,1,0,0,0,.47.46v.68A.78.78,0,0,1,25.39,23.92ZM27.32,25a1.15,1.15,0,0,0-.44-.3l-.94-.38v-.18a1.18,1.18,0,0,0,.54-.68.59.59,0,0,0,.58-.59.58.58,0,0,0-.24-.48V22a1.49,1.49,0,0,0-.14-.63H28.3c0,.12,0,.25,0,.37a1.23,1.23,0,0,0-1.11,1.22v.32a.53.53,0,0,0-.19.4.51.51,0,0,0,.48.51,1,1,0,0,0,.42.53v.1Zm.1-1.49v.26a.16.16,0,0,1,0-.26Zm2.61,3H27.67v-.64a1.21,1.21,0,0,0-.14-.6l.43-.17.36.36a.21.21,0,0,0,.13.05h0a.16.16,0,0,0,.13-.06l.35-.35.68.27h0a.66.66,0,0,1,.41.66v.47Z" id="H1954QHRif"/><path d="M119.8,5a16.35,16.35,0,0,1,5,12,16.37,16.37,0,0,1-5,12.05,17.57,17.57,0,0,1-24.45,0,16.37,16.37,0,0,1-5-12,16.35,16.35,0,0,1,5-12A17.57,17.57,0,0,1,119.8,5Zm-5,20A11.53,11.53,0,0,0,117.6,17a11.55,11.55,0,0,0-2.84-7.91,9.63,9.63,0,0,0-14.34,0A11.44,11.44,0,0,0,97.55,17a11.45,11.45,0,0,0,2.87,7.94,9.23,9.23,0,0,0,7.18,3.19A9.14,9.14,0,0,0,114.76,24.9Z" id="r1o54mBAjG"/><path d="M147.41,8.68a10.64,10.64,0,0,0-6.81-2.95,5.16,5.16,0,0,0-3,.87A2.77,2.77,0,0,0,136.33,9a2.69,2.69,0,0,0,.16,1,2.29,2.29,0,0,0,.54.83,6.88,6.88,0,0,0,.69.61,6,6,0,0,0,1,.54c.45.2.79.34,1,.42l1.17.4,1.08.37a34,34,0,0,1,3.64,1.41,22.21,22.21,0,0,1,3.12,1.88,7.68,7.68,0,0,1,2.61,3.08,10,10,0,0,1,.87,4.29,8.84,8.84,0,0,1-2,5.78,11,11,0,0,1-4.7,3.4,16.52,16.52,0,0,1-5.77,1,17.3,17.3,0,0,1-12.58-5.49l4.46-4.37a21,21,0,0,0,4,3.15,8.43,8.43,0,0,0,4.15,1,6.29,6.29,0,0,0,3.69-1.06A3.54,3.54,0,0,0,145,24.08a3.47,3.47,0,0,0-.45-1.76A4.23,4.23,0,0,0,143,20.91a18.41,18.41,0,0,0-1.87-1q-.81-.36-2.49-1c-1.13-.41-2-.76-2.63-1a23.35,23.35,0,0,1-2.35-1.26,8.19,8.19,0,0,1-2.16-1.77,9.08,9.08,0,0,1-1.92-5.7,8,8,0,0,1,3.17-6.81A12.24,12.24,0,0,1,140.37,0a17.65,17.65,0,0,1,10.89,3.9Z" id="HJn9VQH0oG"/><path d="M185.29,5a16.35,16.35,0,0,1,5,12,16.37,16.37,0,0,1-5,12.05,17.57,17.57,0,0,1-24.45,0,16.37,16.37,0,0,1-5-12,16.35,16.35,0,0,1,5-12,17.57,17.57,0,0,1,24.45,0Zm-5,20A11.53,11.53,0,0,0,183.09,17a11.55,11.55,0,0,0-2.84-7.91,9.63,9.63,0,0,0-14.34,0A11.44,11.44,0,0,0,163,17a11.45,11.45,0,0,0,2.87,7.94,9.23,9.23,0,0,0,7.18,3.19A9.14,9.14,0,0,0,180.25,24.9Z" id="SyacNQSCif"/><polygon points="203.09 10.01 200.74 0.56 193.23 0.56 199.34 22.4 203.09 10.01" id="HyA5E7S0oM"/><polygon points="229.66 0.56 224.12 21.59 224.03 21.59 218.39 0.56 212.1 0.56 202.7 33.42 208.86 33.42 215.01 11.83 215.1 11.83 221.07 33.42 227.73 33.42 237.17 0.56 229.66 0.56" id="r11gc47SCif"/><polygon points="249.29 10.01 246.93 0.56 239.42 0.56 245.53 22.4 249.29 10.01" id="rkegqEmBAof"/><polygon points="275.85 0.56 270.31 21.59 270.22 21.59 264.59 0.56 258.29 0.56 248.9 33.42 255.05 33.42 261.21 11.83 261.3 11.83 267.26 33.42 273.93 33.42 283.36 0.56 275.85 0.56" id="HkZxqV7SRif"/><polygon points="295.48 10.01 293.13 0.56 285.62 0.56 291.73 22.4 295.48 10.01" id="HyMl5EXHAoM"/><polygon points="322.05 0.56 316.51 21.59 316.41 21.59 310.78 0.56 304.49 0.56 295.09 33.42 301.25 33.42 307.4 11.83 307.49 11.83 313.45 33.42 320.12 33.42 329.56 0.56 322.05 0.56" id="rk7xqVmSRof"/><polygon points="70.04 3.5 70.04 0.56 63.33 0.56 63.33 11.69 70.04 3.5" id="HyVx5VQSAiG"/><polygon points="78.12 13.85 89.24 0.56 81.12 0.56 81.12 0.56 81.13 0.57 63.33 22.27 63.33 33.42 70.04 33.42 70.04 23.38 73.56 19.2 81.68 33.42 89.52 33.42 78.12 13.85" id="S1Sxq47BCoG"/><path d="M6,48.55l1.6,6h0l1.66-6H10.6L8.24,56.83H7L5.35,50.74h0L3.59,56.83H2.35L.07,48.55H1.48l1.58,6h0l1.67-6Z" id="SkLx9VQSAoz"/><path d="M12.07,54.15a2,2,0,0,0,.55,1.28,1.68,1.68,0,0,0,1.26.51A1.83,1.83,0,0,0,15.62,55l.86.55a3,3,0,0,1-1.11,1.08,3.2,3.2,0,0,1-1.55.34,2.78,2.78,0,0,1-2.17-.88,3.42,3.42,0,0,1,0-4.48,2.78,2.78,0,0,1,2.12-.91,2.7,2.7,0,0,1,2.79,2.78,3.4,3.4,0,0,1-.06.67Zm3.27-.94a1.59,1.59,0,0,0-.46-1.06,1.37,1.37,0,0,0-1-.43,1.56,1.56,0,0,0-1.1.41,2.14,2.14,0,0,0-.61,1.08Z" id="BJveqVQr0jG"/><path d="M18,48h1.21v3.65a2,2,0,0,1,.83-.67,2.45,2.45,0,0,1,1.06-.24,2.76,2.76,0,0,1,2.09.91,3.36,3.36,0,0,1,0,4.43A2.75,2.75,0,0,1,21.1,57a2.71,2.71,0,0,1-1-.21,2.66,2.66,0,0,1-.86-.6l0,.67H18Zm1.21,4.91V55a2.07,2.07,0,0,0,1.66.86,1.74,1.74,0,0,0,1.42-.61,2.22,2.22,0,0,0,.5-1.43,2.08,2.08,0,0,0-.52-1.43,1.74,1.74,0,0,0-1.37-.6,2,2,0,0,0-1,.28A1.68,1.68,0,0,0,19.24,52.87Z" id="rkuxqE7SRoG"/><path d="M29.2,51.39l-.71.77a1.69,1.69,0,0,0-1.18-.46.88.88,0,0,0-.6.19.65.65,0,0,0-.22.52.5.5,0,0,0,.18.37A1.16,1.16,0,0,0,27,53l.56.24.49.21a4.52,4.52,0,0,1,.46.25,2.57,2.57,0,0,1,.42.34,1.76,1.76,0,0,1,.27.43,1.56,1.56,0,0,1,.11.57,1.66,1.66,0,0,1-.63,1.42,2.52,2.52,0,0,1-1.57.47A2.64,2.64,0,0,1,25,56l.8-.7a1.86,1.86,0,0,0,1.34.65,1.17,1.17,0,0,0,.71-.21.73.73,0,0,0,.28-.61.54.54,0,0,0-.18-.39,1.29,1.29,0,0,0-.37-.28L27,54.24c-.27-.11-.48-.2-.61-.27a3.16,3.16,0,0,1-.51-.31,1.24,1.24,0,0,1-.42-.5,1.53,1.53,0,0,1-.13-.66,1.59,1.59,0,0,1,.58-1.33,2.16,2.16,0,0,1,1.41-.47A2.72,2.72,0,0,1,29.2,51.39Z" id="SJFx5EXSCsf"/><path d="M32.12,49.75H30.9V48.49h1.22Zm0,7.08H30.9v-6h1.22Z" id="H15e54QSRif"/><path d="M37,51.9H35.31v2.6c0,.2,0,.36,0,.47a1.14,1.14,0,0,0,.2.68.66.66,0,0,0,.56.22,1.5,1.5,0,0,0,.67-.16l.36,1a2.42,2.42,0,0,1-1.2.28,1.59,1.59,0,0,1-1.65-1,3.47,3.47,0,0,1-.17-1.18V51.9h-.78V50.84h.78l.06-1.4h1.16v1.4H37Z" id="SJsgc4mH0oM"/><path d="M39,54.15a2.05,2.05,0,0,0,.55,1.28,1.68,1.68,0,0,0,1.26.51A1.83,1.83,0,0,0,42.51,55l.86.55a3.06,3.06,0,0,1-1.1,1.08,3.25,3.25,0,0,1-1.55.34,2.78,2.78,0,0,1-2.18-.88,3.42,3.42,0,0,1,.05-4.48,2.79,2.79,0,0,1,2.13-.91,2.71,2.71,0,0,1,2,.79,2.75,2.75,0,0,1,.79,2,3.4,3.4,0,0,1-.06.67Zm3.27-.94a1.59,1.59,0,0,0-.46-1.06,1.37,1.37,0,0,0-1-.43,1.56,1.56,0,0,0-1.1.41A2.3,2.3,0,0,0,39,53.21Z" id="rJng9EmSAjG"/><path d="M48.63,51.39l-.71.77a1.69,1.69,0,0,0-1.18-.46.87.87,0,0,0-.59.19.65.65,0,0,0-.23.52.48.48,0,0,0,.19.37,1.16,1.16,0,0,0,.36.26l.55.24.5.21a3.62,3.62,0,0,1,.45.25,2.57,2.57,0,0,1,.42.34,1.32,1.32,0,0,1,.27.43,1.39,1.39,0,0,1,.12.57,1.66,1.66,0,0,1-.64,1.42,2.5,2.5,0,0,1-1.57.47A2.67,2.67,0,0,1,44.42,56l.81-.7a1.84,1.84,0,0,0,1.33.65,1.15,1.15,0,0,0,.71-.21.74.74,0,0,0,.29-.61.52.52,0,0,0-.19-.39,1.17,1.17,0,0,0-.37-.28l-.58-.24L45.81,54a2.75,2.75,0,0,1-.5-.31,1.27,1.27,0,0,1-.43-.5,1.53,1.53,0,0,1-.13-.66,1.59,1.59,0,0,1,.58-1.33,2.2,2.2,0,0,1,1.41-.47A2.68,2.68,0,0,1,48.63,51.39Z" id="ry6ecEQS0jG"/><path d="M62.38,56.83H61.16v-3a3.41,3.41,0,0,0-.26-1.57,1.07,1.07,0,0,0-1-.46,1.63,1.63,0,0,0-.82.25,2.51,2.51,0,0,0-.72.66,8.68,8.68,0,0,1,.06,1v3.11H57.23v-3a3,3,0,0,0-.3-1.61.94.94,0,0,0-.88-.42,1.49,1.49,0,0,0-.82.29,2.71,2.71,0,0,0-.71.68v4.06H53.3v-6h1.16l0,.87a2.52,2.52,0,0,1,.85-.74,2.1,2.1,0,0,1,1-.27,1.83,1.83,0,0,1,1.64.82,2,2,0,0,1,.15.26,2.38,2.38,0,0,1,2.06-1.08,1.94,1.94,0,0,1,1.63.72,3.79,3.79,0,0,1,.56,2.3Z" id="HJ0e5NQH0iG"/><path d="M68.92,56.83H67.8l0-.6A2.19,2.19,0,0,1,66,57a2.45,2.45,0,0,1-1.52-.46,1.62,1.62,0,0,1-.61-1.38,1.87,1.87,0,0,1,.22-.94,1.61,1.61,0,0,1,.62-.62,3.4,3.4,0,0,1,.84-.32,4.9,4.9,0,0,1,1-.1,5.88,5.88,0,0,1,1.17.13V53.1a1.21,1.21,0,0,0-1.36-1.38,4,4,0,0,0-1.88.53l-.34-1a5.59,5.59,0,0,1,2.41-.57c1.59,0,2.39.83,2.39,2.5ZM67.7,55.34V54.13a5.18,5.18,0,0,0-1-.1,3.35,3.35,0,0,0-.73.07,1.46,1.46,0,0,0-.6.32.91.91,0,0,0,0,1.35,1.27,1.27,0,0,0,.8.23A2.37,2.37,0,0,0,67.7,55.34Z" id="B1k-cNQBCjf"/><path d="M76.32,48v8.87H75.16l0-.79a2,2,0,0,1-.83.69,2.49,2.49,0,0,1-1.07.24,2.73,2.73,0,0,1-2.1-.91,3.33,3.33,0,0,1,0-4.42,2.69,2.69,0,0,1,2.12-.94,2.48,2.48,0,0,1,1.86.78V48ZM75.1,52.67a2.12,2.12,0,0,0-1.66-.87,1.71,1.71,0,0,0-1.41.62,2.18,2.18,0,0,0-.51,1.43,2.11,2.11,0,0,0,.53,1.43,1.73,1.73,0,0,0,1.37.59,2,2,0,0,0,1-.27,1.63,1.63,0,0,0,.7-.79Z" id="BJxZqVmHAoz"/><path d="M79,54.15a2,2,0,0,0,.55,1.28,1.68,1.68,0,0,0,1.26.51A1.83,1.83,0,0,0,82.52,55l.85.55a2.91,2.91,0,0,1-1.1,1.08,3.2,3.2,0,0,1-1.55.34,2.81,2.81,0,0,1-2.18-.88,3.2,3.2,0,0,1-.8-2.24,3.09,3.09,0,0,1,.86-2.24,2.78,2.78,0,0,1,2.12-.91,2.69,2.69,0,0,1,2.78,2.78,3.4,3.4,0,0,1-.06.67Zm3.27-.94a1.64,1.64,0,0,0-.46-1.06,1.37,1.37,0,0,0-1-.43,1.58,1.58,0,0,0-1.11.41,2.21,2.21,0,0,0-.6,1.08Z" id="HJbZqEQrRof"/><path d="M89.1,49.75H87.88V48.49H89.1Zm0,7.08H87.88v-6H89.1Z" id="ryMZ5NQB0sz"/><path d="M91,50.84h1.16l0,.95A2.27,2.27,0,0,1,93,51a2.33,2.33,0,0,1,1.09-.28,2,2,0,0,1,1.71.76,3.9,3.9,0,0,1,.53,2.26v3.11H95.15v-3a3.12,3.12,0,0,0-.28-1.57,1.08,1.08,0,0,0-1-.46,1.72,1.72,0,0,0-.92.29,2.44,2.44,0,0,0-.75.78v4H91Z" id="BJXbqEXBCsz"/><path d="M107.42,48.55l-2.77,3.29,2.92,5h-1.48l-2.3-4-1.23,1.46v2.51h-1.27V48.55h1.27v4l3.31-4Z" id="SkEZ547SCjz"/><path d="M111,50.7a2.91,2.91,0,0,1,2.19.91,3.24,3.24,0,0,1,0,4.46,3.13,3.13,0,0,1-4.39,0,3.27,3.27,0,0,1,0-4.46A2.9,2.9,0,0,1,111,50.7Zm1.31,4.58a2.07,2.07,0,0,0,.52-1.44,2.12,2.12,0,0,0-.52-1.45,1.75,1.75,0,0,0-2.62,0,2.12,2.12,0,0,0-.53,1.45,2.08,2.08,0,0,0,.53,1.44,1.75,1.75,0,0,0,2.62,0Z" id="ryBW5N7SCoM"/><path d="M119.21,51.39l-.71.77a1.69,1.69,0,0,0-1.18-.46.85.85,0,0,0-.59.19.65.65,0,0,0-.23.52.48.48,0,0,0,.19.37,1.16,1.16,0,0,0,.36.26l.55.24.49.21a3.66,3.66,0,0,1,.46.25,2.57,2.57,0,0,1,.42.34,1.32,1.32,0,0,1,.27.43,1.38,1.38,0,0,1,.11.57,1.66,1.66,0,0,1-.63,1.42,2.5,2.5,0,0,1-1.57.47A2.67,2.67,0,0,1,115,56l.8-.7a1.88,1.88,0,0,0,1.34.65,1.15,1.15,0,0,0,.71-.21.74.74,0,0,0,.29-.61.56.56,0,0,0-.19-.39,1.17,1.17,0,0,0-.37-.28l-.58-.24-.61-.27a2.75,2.75,0,0,1-.5-.31,1.27,1.27,0,0,1-.43-.5,1.53,1.53,0,0,1-.13-.66,1.59,1.59,0,0,1,.58-1.33,2.2,2.2,0,0,1,1.41-.47A2.68,2.68,0,0,1,119.21,51.39Z" id="HyL-qNQrRiG"/><path d="M123.52,50.7a2.93,2.93,0,0,1,2.2.91,3.27,3.27,0,0,1,0,4.46,3.14,3.14,0,0,1-4.4,0,3.27,3.27,0,0,1,0-4.46A2.91,2.91,0,0,1,123.52,50.7Zm1.32,4.58a2.12,2.12,0,0,0,.52-1.44,2.17,2.17,0,0,0-.52-1.45,1.7,1.7,0,0,0-1.32-.59,1.67,1.67,0,0,0-1.31.59,2.12,2.12,0,0,0-.52,1.45,2.07,2.07,0,0,0,.52,1.44,1.64,1.64,0,0,0,1.31.59A1.67,1.67,0,0,0,124.84,55.28Z" id="SyPZq47HAoG"/><path d="M131.52,50.84h1.32l-2.37,6h-1l-2.27-6h1.34L130,55.28h0Z" id="BJdZ5VmHAoG"/><path d="M136.45,50.7a2.92,2.92,0,0,1,2.19.91,3.27,3.27,0,0,1,0,4.46,3.14,3.14,0,0,1-4.4,0,3.29,3.29,0,0,1,0-4.46A2.93,2.93,0,0,1,136.45,50.7Zm1.31,4.58a2.07,2.07,0,0,0,.52-1.44,2.12,2.12,0,0,0-.52-1.45,1.68,1.68,0,0,0-1.31-.59,1.7,1.7,0,0,0-1.32.59,2.17,2.17,0,0,0-.52,1.45,2.12,2.12,0,0,0,.52,1.44,1.67,1.67,0,0,0,1.32.59A1.65,1.65,0,0,0,137.76,55.28Z" id="SJtZq4XSCiM"/><polygon points="345.68 0.69 351.83 22.29 351.92 22.29 351.93 22.25 355.21 33.55 348.92 33.55 339.52 0.69 345.68 0.69" id="Skc-94XBRof"/><path d="M0,71.76V63.47H2.27a5.7,5.7,0,0,1,1.61.23,5.34,5.34,0,0,1,1.42.69,3.3,3.3,0,0,1,1,1.29,4.39,4.39,0,0,1,.4,1.9,4.49,4.49,0,0,1-.39,1.93A3.31,3.31,0,0,1,5.3,70.82a4.69,4.69,0,0,1-1.46.7,5.67,5.67,0,0,1-1.67.24Zm5.4-4.08a3,3,0,0,0-.87-2.3,3.52,3.52,0,0,0-2.46-.8h-.8v6.06h.34A4.93,4.93,0,0,0,4.41,70,2.58,2.58,0,0,0,5.4,67.68Z" id="ryiZ5EQBAsf"/><path d="M9.59,64.68H8.37V63.41H9.59Zm0,7.08H8.37v-6H9.59Z" id="HyhWcN7HAjf"/><path d="M15.83,70.84a2,2,0,0,1-.83.68,2.45,2.45,0,0,1-1.06.24,2.78,2.78,0,0,1-2.1-.89,3.25,3.25,0,0,1,0-4.34A2.8,2.8,0,0,1,14,65.62a2.73,2.73,0,0,1,1,.22,2.66,2.66,0,0,1,.86.6l0-.67H17v5.67A3.35,3.35,0,0,1,16.71,73,2.76,2.76,0,0,1,14,74.41a4.53,4.53,0,0,1-2.69-.81l.47-1a4.06,4.06,0,0,0,1,.53,3.55,3.55,0,0,0,1.14.21,2,2,0,0,0,1.32-.42,1.57,1.57,0,0,0,.52-1.28Zm0-1.25v-2a2.07,2.07,0,0,0-1.66-.86,1.75,1.75,0,0,0-1.42.58,2.1,2.1,0,0,0-.5,1.39,2,2,0,0,0,.52,1.39,1.77,1.77,0,0,0,1.37.56,2,2,0,0,0,1-.27A1.68,1.68,0,0,0,15.83,69.59Z" id="SJ6W54QHAif"/><path d="M20.1,64.68H18.88V63.41H20.1Zm0,7.08H18.88v-6H20.1Z" id="rkCWqVmrAjz"/><path d="M24.93,66.82H23.28v2.6c0,.2,0,.36,0,.48a1.27,1.27,0,0,0,.2.67.68.68,0,0,0,.56.23,1.55,1.55,0,0,0,.68-.17l.35,1a2.41,2.41,0,0,1-1.19.28,1.59,1.59,0,0,1-1.65-1,3.27,3.27,0,0,1-.18-1.19V66.82h-.78v-1h.78l.06-1.41h1.16v1.41h1.65Z" id="By1Mq4XS0iz"/><path d="M30.89,71.76H29.77l0-.61A2.2,2.2,0,0,1,28,71.9a2.43,2.43,0,0,1-1.51-.47,1.62,1.62,0,0,1-.62-1.38,1.87,1.87,0,0,1,.22-.94,1.68,1.68,0,0,1,.62-.62,3,3,0,0,1,.84-.31,4.23,4.23,0,0,1,1-.11,6.73,6.73,0,0,1,1.17.13V68a1.21,1.21,0,0,0-1.36-1.39,4,4,0,0,0-1.88.53l-.34-1a5.59,5.59,0,0,1,2.41-.57c1.6,0,2.39.84,2.39,2.5Zm-1.22-1.5v-1.2a5.19,5.19,0,0,0-1-.11,3.36,3.36,0,0,0-.74.08,1.35,1.35,0,0,0-.6.32.81.81,0,0,0-.27.64.83.83,0,0,0,.31.71,1.33,1.33,0,0,0,.8.23A2.33,2.33,0,0,0,29.67,70.26Z" id="BJgM54XSRjG"/><path d="M34,62.88v8.88H32.73V62.88Z" id="Bk-M9V7HAoz"/><path d="M44,71.76l-.61-1.71H40l-.62,1.71H38l3.25-8.29h1.08l3.16,8.29ZM41.73,65.4l-1.29,3.54H43L41.75,65.4Z" id="Byzz9NQSAsz"/><path d="M50.86,70.84a2,2,0,0,1-.82.68,2.52,2.52,0,0,1-1.06.24,2.75,2.75,0,0,1-2.1-.89,3.22,3.22,0,0,1,0-4.34A2.76,2.76,0,0,1,49,65.62a2.7,2.7,0,0,1,1.9.82l0-.67h1.16v5.67A3.35,3.35,0,0,1,51.75,73a2.77,2.77,0,0,1-2.69,1.4,4.55,4.55,0,0,1-2.69-.81l.48-1a4.06,4.06,0,0,0,1,.53,3.44,3.44,0,0,0,1.13.21,2,2,0,0,0,1.32-.42,1.54,1.54,0,0,0,.52-1.28Zm0-1.25v-2a2.07,2.07,0,0,0-1.66-.86,1.76,1.76,0,0,0-1.42.58,2.09,2.09,0,0,0-.49,1.39,2,2,0,0,0,.52,1.39,1.74,1.74,0,0,0,1.37.56,2,2,0,0,0,1-.27A1.63,1.63,0,0,0,50.86,69.59Z" id="HkXzqN7SAsM"/><path d="M54.67,69.07a2,2,0,0,0,.55,1.28,1.65,1.65,0,0,0,1.26.52,1.84,1.84,0,0,0,1.74-1l.85.56A2.81,2.81,0,0,1,58,71.55a3.2,3.2,0,0,1-1.55.35A2.81,2.81,0,0,1,54.25,71a3.2,3.2,0,0,1-.81-2.25,3.14,3.14,0,0,1,.86-2.24,2.82,2.82,0,0,1,2.12-.91,2.7,2.7,0,0,1,2.78,2.79,4.43,4.43,0,0,1-.05.66Zm3.27-.94a1.66,1.66,0,0,0-.46-1.06,1.4,1.4,0,0,0-1-.43,1.51,1.51,0,0,0-1.1.42,2.07,2.07,0,0,0-.61,1.07Z" id="rkEGcNXrRsf"/><path d="M60.62,65.77h1.16l0,.94a2.33,2.33,0,0,1,.85-.8,2.2,2.2,0,0,1,1.09-.29,2,2,0,0,1,1.71.76A3.9,3.9,0,0,1,66,68.64v3.12H64.78v-3a3.22,3.22,0,0,0-.28-1.56,1.06,1.06,0,0,0-1-.46,1.63,1.63,0,0,0-.92.29,2.4,2.4,0,0,0-.75.77v4H60.62Z" id="HyHzcVXrRsz"/><path d="M71.72,70.37l.61.9a2.81,2.81,0,0,1-1.9.63A3,3,0,0,1,68.24,71a3.28,3.28,0,0,1,0-4.49,3.12,3.12,0,0,1,4-.35l-.59,1a2,2,0,0,0-1.21-.42,1.7,1.7,0,0,0-1.32.59,2.19,2.19,0,0,0,0,2.9,1.75,1.75,0,0,0,1.32.58A2,2,0,0,0,71.72,70.37Z" id="Sy8fqVmrCoz"/><path d="M72.85,65.77H74.2l1.47,4.3h0l1.52-4.3h1.32l-3.37,8.7L74.08,74l1-2.51Z" id="SJvM54mB0oG"/></g></g></svg>
