<svg height="511pt" viewBox="1 -68 511.99999 511" width="511pt" xmlns="http://www.w3.org/2000/svg"><path d="m503.46875 298.28125h-8.535156v-247.46875c-.027344-23.550781-19.113282-42.636719-42.667969-42.667969h-34.132813v17.066407h34.132813c14.140625 0 25.601563 11.464843 25.601563 25.601562v247.46875h-34.132813v-179.203125c0-19.445313-13.148437-36.433594-31.976563-41.308594l-4.265624 16.523438c11.292968 2.925781 19.179687 13.121093 19.175781 24.789062v25.597657h-102.402344v17.066406h102.402344v136.535156h-119.46875c-3.671875 0-6.933594 2.351562-8.097657 5.835938l-6.585937 19.765624h-73.03125l-6.585937-19.765624c-1.160157-3.484376-4.425782-5.835938-8.097657-5.835938h-119.46875v-136.535156h102.402344v-17.066406h-102.402344v-25.601563c0-14.136719 11.464844-25.597656 25.601563-25.597656h145.066406v-17.066407h-145.066406c-23.550782.027344-42.636719 19.113282-42.667969 42.664063v179.199219h-34.132813v-247.464844c0-14.136719 11.460938-25.601562 25.601563-25.601562h238.933594v-17.066407h-238.933594c-23.554687.027344-42.640625 19.117188-42.667969 42.667969v247.46875h-8.535156c-4.710938 0-8.53125 3.820312-8.53125 8.53125v25.601562c.0273438 23.550782 19.113281 42.636719 42.667969 42.664063h426.664062c23.554688-.027344 42.640625-19.113281 42.667969-42.664063v-25.601562c0-4.710938-3.820312-8.53125-8.53125-8.53125zm-8.535156 34.132812c0 14.136719-11.460938 25.597657-25.601563 25.597657h-426.664062c-14.140625 0-25.601563-11.460938-25.601563-25.597657v-17.066406h181.582032l4.640624 13.933594c2.324219 6.96875 8.851563 11.667969 16.199219 11.664062h73.027344c7.351563.011719 13.882813-4.6875 16.210937-11.664062l4.625-13.933594h181.582032zm0 0"/><path d="m102.398438 110.546875h17.070312v17.066406h-17.070312zm0 0"/><path d="m136.535156 110.546875h17.066406v17.066406h-17.066406zm0 0"/><path d="m170.667969 110.546875h17.066406v17.066406h-17.066406zm0 0"/><path d="m191.292969 169.640625c-14.488281-.875-28.652344 4.503906-38.90625 14.777344-14.367188 14.394531-18.855469 35.925781-11.433594 54.863281 1.71875 4.386719 6.667969 6.550781 11.058594 4.835938 1.09375-.429688 2.089843-1.078126 2.921875-1.910157l21.597656-21.589843 12.054688 12.066406-21.589844 21.597656c-3.328125 3.335938-3.328125 8.738281.007812 12.070312.832032.828126 1.828125 1.480469 2.921875 1.90625 18.933594 7.425782 40.46875 2.9375 54.859375-11.433593 10.28125-10.246094 15.664063-24.414063 14.78125-38.902344l115.277344-115.269531c14.484375.875 28.648438-4.507813 38.902344-14.777344 14.371094-14.394531 18.855468-35.925781 11.433594-54.863281-1.714844-4.386719-6.667969-6.550781-11.054688-4.835938-1.097656.429688-2.089844 1.078125-2.921875 1.910157l-21.597656 21.582031-12.058594-12.058594 21.589844-21.597656c3.332031-3.335938 3.328125-8.738281-.003907-12.070313-.832031-.828125-1.828124-1.480468-2.921874-1.90625-18.9375-7.425781-40.46875-2.9375-54.863282 11.433594-10.277344 10.246094-15.664062 24.414062-14.777344 38.902344zm130.183593-106.027344c1.890626-1.894531 2.785157-4.5625 2.414063-7.210937-2.738281-18.5 10.039063-35.714844 28.539063-38.453125.980468-.144531 1.964843-.246094 2.949218-.304688l-15.9375 15.929688c-3.335937 3.332031-3.339844 8.734375-.007812 12.070312 0 0 .003906.003907.007812.003907l24.132813 24.132812c3.328125 3.335938 8.730469 3.339844 12.066406.007812.003906 0 .003906-.003906.007813-.007812l15.929687-15.9375c-1.109375 18.664062-17.140625 32.902344-35.808594 31.792969-.984375-.058594-1.96875-.160157-2.949219-.308594-2.652343-.386719-5.328124.511719-7.210937 2.417969l-120.949219 120.933594c-1.890625 1.890624-2.785156 4.5625-2.417968 7.210937 2.738281 18.5-10.039063 35.714844-28.535157 38.453125-.980469.144531-1.964843.246094-2.953125.304688l15.941406-15.929688c3.335938-3.332031 3.335938-8.734375.007813-12.070312-.003906 0-.003906-.003907-.007813-.007813l-24.132812-24.128906c-3.332031-3.335938-8.734375-3.339844-12.066406-.007813-.003906 0-.007813.003906-.007813.007813l-15.933593 15.9375c1.109374-18.667969 17.140624-32.902344 35.808593-31.792969.988281.058594 1.972657.160156 2.953125.304688 2.648438.371093 5.316406-.523438 7.207032-2.414063zm0 0"/></svg>
