<?xml version="1.0" encoding="iso-8859-1"?>
<!-- Generator: Adobe Illustrator 19.0.0, SVG Export Plug-In . SVG Version: 6.00 Build 0)  -->
<svg version="1.1" id="Capa_1" xmlns="http://www.w3.org/2000/svg" xmlns:xlink="http://www.w3.org/1999/xlink" x="0px" y="0px"
	 viewBox="0 0 512 512" style="enable-background:new 0 0 512 512;" xml:space="preserve">
<g>
	<g>
		<path d="M482,36H30C13.458,36,0,49.458,0,66v280c0,16.542,13.458,30,30,30h168.802l-17.608,88.039
			c-0.587,2.938,0.173,5.984,2.072,8.301c1.899,2.317,4.737,3.66,7.733,3.66H321c2.996,0,5.834-1.343,7.733-3.66
			s2.66-5.363,2.072-8.301l-17.606-88.04H482c16.542,0,30-13.458,30-30v-280C512,49.458,498.543,36,482,36z M203.197,455.999l16-80
			h73.605l16,80H203.197z M492,345.999c0,5.514-4.486,10-10,10H30c-5.514,0-10-4.486-10-10v-10h472V345.999z M492,316H20V65.999
			C20,60.485,24.486,56,30,56h452c5.514,0,10,4.486,10,10V316z"/>
	</g>
</g>
<g>
	<g>
		<path d="M467,70.999h-41.035c-5.522,0-10,4.477-10,10s4.478,10,10,10H467c5.523,0,10-4.477,10-10S472.523,70.999,467,70.999z"/>
	</g>
</g>
<g>
	<g>
		<path d="M397.235,71.001h-0.236c-5.522,0-10,4.477-10,10s4.477,10,10,10h0.236c5.522,0,10-4.477,10-10
			S402.757,71.001,397.235,71.001z"/>
	</g>
</g>
<g>
	<g>
		<path d="M330.665,229.872c-0.48-1.553-1.332-2.966-2.482-4.115L298.426,196l42.427-42.427c1.875-1.875,2.929-4.419,2.929-7.071
			c0-2.652-1.054-5.196-2.929-7.071l-28.286-28.284c-3.904-3.905-10.235-3.905-14.142,0.001L256,153.574l-42.427-42.426
			c-3.904-3.905-10.236-3.905-14.142-0.001l-28.285,28.284c-1.875,1.876-2.929,4.419-2.929,7.071s1.054,5.196,2.929,7.071
			L213.574,196l-29.756,29.756c-1.875,1.875-2.929,4.419-2.929,7.071v24.142l-9.741,9.742c-3.905,3.905-3.905,10.237,0,14.142
			c1.953,1.953,4.512,2.929,7.071,2.929c2.559,0,5.119-0.977,7.071-2.929l9.741-9.741h24.143c2.652,0,5.196-1.054,7.071-2.929
			L256,238.426l29.756,29.756c1.15,1.15,2.563,2.002,4.116,2.482l40.955,12.67c0.972,0.301,1.967,0.447,2.954,0.447
			c2.613,0,5.168-1.025,7.072-2.929c2.623-2.623,3.578-6.482,2.482-10.026L330.665,229.872z M305.497,132.36l14.143,14.142
			l-35.355,35.355l-14.142-14.142L305.497,132.36z M215.03,251.111h-14.143l0.001-14.142l26.827-26.828l14.143,14.143
			L215.03,251.111z M298.148,252.29l-35.074-35.075c-0.001,0-0.001-0.001-0.002-0.001c-0.001-0.001-0.001-0.001-0.002-0.001
			l-70.709-70.71l14.142-14.143l42.42,42.42c0.002,0.002,0.004,0.005,0.006,0.007c0.003,0.002,0.005,0.004,0.007,0.006
			l28.264,28.264c0.005,0.004,0.009,0.009,0.013,0.014c0.004,0.004,0.009,0.008,0.014,0.012l35.064,35.064l6.335,20.478
			L298.148,252.29z"/>
	</g>
</g>
<g>
</g>
<g>
</g>
<g>
</g>
<g>
</g>
<g>
</g>
<g>
</g>
<g>
</g>
<g>
</g>
<g>
</g>
<g>
</g>
<g>
</g>
<g>
</g>
<g>
</g>
<g>
</g>
<g>
</g>
</svg>
