<svg x="0" y="0" width="700" height="350" viewBox="0 0 700 350" xmlns="http://www.w3.org/2000/svg" xmlns:xlink="http://www.w3.org/1999/xlink" xmlns:fi="http://pattern.flaticon.com/"><rect x="0px" y="0px" width="100%" height="100%" opacity="1" fill="#d2a951"/><defs><path d="M419.658,319.097c-3.531-11.585-9.88-22.113-18.48-30.64c-13.697-13.773-32.336-21.493-51.76-21.44    c-9.927,0.005-19.751,2.019-28.88,5.92l-72-72l95.6-94.88l22.64-0.64c2.739-0.083,5.244-1.563,6.64-3.92l32.4-54.48    c1.883-3.144,1.388-7.166-1.2-9.76l-28-28c-2.594-2.588-6.616-3.083-9.76-1.2l-54.48,32.4c-2.357,1.396-3.837,3.901-3.92,6.64    l-0.64,22.56l-95.36,95.2l-65.44-65.44c6.871-39.839-19.855-77.705-59.694-84.576c-18.459-3.184-37.437,0.83-53.026,11.216    c-3.66,2.475-4.621,7.448-2.146,11.108c0.696,1.029,1.622,1.882,2.706,2.492l36.32,20.24c8,4.56,9.6,18.16,3.12,29.68    c-6.48,11.52-18.88,17.44-26.96,12.96l-33.68-18.24c-3.871-2.13-8.736-0.718-10.865,3.153c-0.734,1.333-1.072,2.848-0.974,4.367    c2.531,40.348,37.292,71.004,77.64,68.473c8.336-0.523,16.521-2.469,24.2-5.753l59.52,59.52l-25.76,25.76l-5.84-5.76    c-6.465-6.187-16.655-6.187-23.12,0l-8,8c-6.095,5.934-6.481,15.599-0.88,22l-94.64,94.48c-6.384,6.109-6.607,16.238-0.498,22.622    c0.162,0.17,0.328,0.336,0.498,0.498l27.04,27.04c6.109,6.384,16.238,6.607,22.622,0.498c0.17-0.162,0.336-0.328,0.498-0.498    l94.72-94.64c6.401,5.601,16.066,5.215,22-0.88l8-8c6.384-6.109,6.607-16.238,0.498-22.622c-0.162-0.17-0.328-0.336-0.498-0.498    l-5.84-5.84l25.6-26.16l77.6,77.6c-6.704,39.868,20.18,77.621,60.048,84.325c23.614,3.971,47.677-3.859,64.432-20.965    c2.938-3.3,2.646-8.356-0.654-11.295c-0.852-0.759-1.857-1.327-2.946-1.665l-45.04-12.08c-4.414-1.419-7.908-4.824-9.44-9.2    c-2.34-6.033-2.621-12.67-0.8-18.88c3.36-12.56,14-21.52,22.96-19.12l44.56,12c0.716,0.104,1.444,0.104,2.16,0    c4.418,0.054,8.043-3.484,8.096-7.902C420.57,321.561,420.263,320.263,419.658,319.097z M321.178,78.537    c1.44-1.45,2.27-3.397,2.32-5.44l0.64-21.36l45.36-26.96l19.2,19.2l-26.4,45.28l-21.76,0.8c-2.043,0.05-3.99,0.88-5.44,2.32    l-97.6,97.52l-13.76-13.76L321.178,78.537z M43.738,397.337l-27.44-27.28l95.12-94.88l13.76,13.76l13.12,13.6L43.738,397.337z     M160.778,301.337l-10.56-10.64l-4.08-4.08l-33.6-33.84l8-8l48,48.64L160.778,301.337z M162.298,264.857l-13.76-13.76l25.76-25.76    l13.76,13.76L162.298,264.857z M369.658,303.337c-2.374-0.638-4.822-0.961-7.28-0.96c-17.441,1.408-31.837,14.204-35.28,31.36    c-2.73,9.634-2.196,19.901,1.52,29.2c3.429,8.949,10.866,15.764,20.08,18.4l29.76,8c-27.138,16.171-62.247,7.281-78.418-19.856    c-7.595-12.745-9.94-27.942-6.542-42.384c0.609-2.686-0.207-5.497-2.16-7.44l-180.32-180.48c-2.56-2.405-6.389-2.859-9.44-1.12    c-8.261,4.359-17.46,6.639-26.8,6.64c-24.069,0.021-45.568-15.048-53.76-37.68l18.24,10.16c4.252,2.381,9.047,3.621,13.92,3.6    c14.812-0.853,28.06-9.502,34.8-22.72c10.88-19.44,6.64-42.56-9.36-51.52l-23.28-13.2c29.75-10.627,62.481,4.876,73.108,34.625    c3.688,10.326,4.331,21.494,1.852,32.175c-0.609,2.686,0.207,5.497,2.16,7.44l180.72,180.64c2.47,2.473,6.26,3.057,9.36,1.44    c8.262-4.356,17.46-6.635,26.8-6.64c20.258-0.016,39.009,10.699,49.28,28.16L369.658,303.337z" transform="matrix(0.166446715593338 0 0 0.166446715593338 315 315)" id="L1_81" fill="#bf9a49"/><g transform="matrix(0.11682242900133133 0 0 0.11682242900133133 150 325)" id="L1_82"><path d="M232.8,91.6l-0.4-0.08c-67.665-10.224-130.807,36.337-141.04,104c-4.812,31.437,2.728,63.517,21.04,89.52l-9.84,33.28    c-1.25,4.238,1.173,8.686,5.41,9.936c1.865,0.55,3.866,0.402,5.63-0.416l28.48-12.72c16.006,11.488,34.516,19.001,54,21.92    c6.118,0.906,12.295,1.361,18.48,1.36c61.156-0.539,112.912-45.317,122.24-105.76C346.931,164.998,300.414,101.914,232.8,91.6z     M320.96,230.08c-8.848,59.032-63.875,99.714-122.906,90.866c-18.403-2.758-35.781-10.221-50.454-21.666    c-2.299-1.738-5.355-2.104-8-0.96l-16,8l5.92-20c0.705-2.417,0.231-5.026-1.28-7.04c-17.771-23.077-25.395-52.389-21.12-81.2    c8.822-58.946,63.758-99.58,122.704-90.759c0.085,0.013,0.171,0.026,0.256,0.039C289.033,116.204,329.695,171.11,320.96,230.08z" fill="#bf9a49"/><path d="M420.16,158.56h-44.32c-2.262-6.665-4.934-13.184-8-19.52l31.36-31.36c3.102-3.12,3.102-8.16,0-11.28l-67.36-67.28    c-3.12-3.102-8.16-3.102-11.28,0L289.2,60.48c-6.336-3.066-12.855-5.738-19.52-8V8c0-4.418-3.582-8-8-8h-95.12    c-4.418,0-8,3.582-8,8v44.32c-6.665,2.262-13.184,4.934-19.52,8l-31.36-31.2c-3.12-3.102-8.16-3.102-11.28,0l-67.28,67.2    c-3.102,3.12-3.102,8.16,0,11.28l31.36,31.36c-3.066,6.336-5.738,12.855-8,19.52H8c-4.418,0-8,3.582-8,8v95.12    c0,4.418,3.582,8,8,8h44.32c2.262,6.665,4.934,13.184,8,19.52l-31.2,31.36c-3.102,3.12-3.102,8.16,0,11.28l67.28,67.28    c3.12,3.102,8.16,3.102,11.28,0l31.36-31.36c6.336,3.066,12.855,5.738,19.52,8V420c0,4.418,3.582,8,8,8h95.04c4.418,0,8-3.582,8-8    v-44.16c6.665-2.262,13.184-4.934,19.52-8l31.36,31.36c3.12,3.102,8.16,3.102,11.28,0l67.28-67.28c3.102-3.12,3.102-8.16,0-11.28    l-31.36-31.36c3.066-6.336,5.738-12.855,8-19.52H420c4.418,0,8-3.582,8-8v-95.2C428.001,162.203,424.516,158.647,420.16,158.56z     M412.16,253.68H370c-3.651-0.156-6.944,2.182-8,5.68c-2.907,9.576-6.738,18.846-11.44,27.68c-1.677,3.102-1.125,6.937,1.36,9.44    l30.16,29.6l-56,56l-29.84-29.76c-2.503-2.485-6.338-3.037-9.44-1.36c-8.834,4.702-18.104,8.533-27.68,11.44    c-3.498,1.056-5.836,4.349-5.68,8v42.08h-78.88V370c0.156-3.651-2.182-6.944-5.68-8c-9.576-2.907-18.846-6.738-27.68-11.44    c-3.102-1.677-6.937-1.125-9.44,1.36l-29.68,30.16l-56-56l29.76-29.84c2.484-2.503,3.037-6.338,1.36-9.44    c-4.702-8.834-8.533-18.104-11.44-27.68c-1.056-3.498-4.349-5.836-8-5.68H16v-78.88h42.08c3.651,0.156,6.944-2.182,8-5.68    c2.907-9.576,6.738-18.846,11.44-27.68c1.677-3.102,1.125-6.937-1.36-9.44l-30.08-29.68l56-56l29.84,29.76    c2.503,2.484,6.338,3.037,9.44,1.36c8.834-4.702,18.104-8.533,27.68-11.44c3.498-1.056,5.836-4.349,5.68-8V16h79.12v42.08    c-0.156,3.651,2.182,6.944,5.68,8c9.576,2.907,18.846,6.738,27.68,11.44c3.102,1.677,6.937,1.125,9.44-1.36l29.44-30.08l56,56    l-29.76,29.84c-2.484,2.503-3.037,6.338-1.36,9.44c4.702,8.834,8.533,18.104,11.44,27.68c1.056,3.498,4.349,5.836,8,5.68h42.08    L412.16,253.68z" fill="#bf9a49"/></g><path d="M271.786,289.626v-7.36c2.08-1.68,4.08-3.52,6-5.44c15.373-16.927,25.053-38.246,27.68-60.96    c13.816-2.105,26.269-9.509,34.72-20.64c11.6-16.4,12.64-40,2.96-69.6c-0.569-1.707-1.696-3.173-3.2-4.16l-4.4-2.96    c0.649-26.708-8.581-52.716-25.92-73.04c-21.52-24.24-54.56-36.48-98.32-36.64c-43.68,0-76.8,12.4-98.32,36.32    c-17.339,20.324-26.569,46.332-25.92,73.04l-4.4,2.96c-1.504,0.987-2.631,2.453-3.2,4.16c-9.68,29.76-8.64,53.2,2.96,69.6    c8.419,11.209,20.872,18.698,34.72,20.88c2.638,22.75,12.348,44.099,27.76,61.04c1.905,1.916,3.907,3.732,6,5.44v7.36    c-30.64,5.92-152.96,34.64-150.88,116.24c0,4.418,3.582,8,8,8h406.64c4.418,0,8-3.582,8-8    C424.746,324.266,302.426,295.546,271.786,289.626z M112.346,197.946c-6.798-2.283-12.723-6.614-16.96-12.4l0.4,0.08    c-8-11.68-8.72-29.36-1.6-52.72l5.84-3.92c2.457-1.64,3.81-4.5,3.52-7.44c-1.346-23.91,6.431-47.441,21.76-65.84    c18.08-20.48,47.12-30.72,86-30.88c38.88-0.16,67.92,10.4,86.32,30.88c15.329,18.399,23.106,41.93,21.76,65.84    c-0.29,2.94,1.063,5.8,3.52,7.44l5.84,3.92c7.12,23.28,6.64,41.04-1.6,52.72c-4.266,5.791-10.217,10.122-17.04,12.4    c9.65-10.98,14.365-25.442,13.04-40c-1.499-8.759-6.065-16.698-12.88-22.4c-3.44-80-59.52-88.96-83.68-88.96    c-5.114-0.015-10.222,0.36-15.28,1.12c-5.057-0.761-10.166-1.135-15.28-1.12c-24,0-80,8.8-83.68,88.96    c-6.859,5.656-11.481,13.568-13.04,22.32C97.972,172.505,102.688,186.971,112.346,197.946z M294.346,132.346    c-33.569,1.94-66.928-6.435-95.6-24c-3.245-2.279-7.67-1.836-10.4,1.04c-16,17.2-45.2,21.2-59.28,22.08    c4.32-56.56,38.56-68.88,67.36-68.88c4.584-0.033,9.162,0.342,13.68,1.12c1.056,0.216,2.144,0.216,3.2,0    c4.518-0.776,9.096-1.151,13.68-1.12c28.56,0,62.96,12.64,66.96,69.68L294.346,132.346z M131.866,199.466l0.32,0.08    c0.017-1.972-0.695-3.881-2-5.36c-10.96-12.56-16-24-14.64-33.44c0.652-5.258,3.249-10.081,7.28-13.52c10.56,0,48-2,72-22.72    c27.029,15.539,57.623,23.808,88.8,24c5.36,0,10.8,0,16.48-0.88c3.921,3.348,6.482,8.014,7.2,13.12    c1.36,9.28-3.68,20.88-14.64,33.44c-1.305,1.479-2.017,3.388-2,5.36c0,0,0,1.6,0,4.16l-46.56,24.96    c-9.24-8.748-23.823-8.349-32.571,0.891c-8.748,9.24-8.349,23.823,0.891,32.571c9.24,8.748,23.823,8.349,32.571-0.891    c4.054-4.282,6.312-9.955,6.309-15.851c0.036-0.72,0.036-1.44,0-2.16l36.72-19.68c-3.152,15.775-10.567,30.384-21.44,42.24    c-14.182,13.654-33.379,20.835-53.04,19.84h-4c-19.619,0.974-38.774-6.172-52.96-19.76    C131.306,240.666,131.866,199.866,131.866,199.466z M235.306,245.386c0,3.932-3.188,7.12-7.12,7.12c-3.932,0-7.12-3.188-7.12-7.12    c0-3.932,3.188-7.12,7.12-7.12S235.306,241.454,235.306,245.386z M203.306,397.386H16.266c6.32-60.08,104-85.2,134.56-91.68v14.32    c0,18.16,22.08,32,52.48,34.32V397.386z M166.826,320.026v-0.24v-27.36c13.298,6.167,27.824,9.231,42.48,8.96h4    c14.656,0.271,29.182-2.793,42.48-8.96v27.6c0,7.6-17.36,18.56-44.48,18.56S166.826,327.626,166.826,320.026z M219.306,397.626    v-43.36c30.4-2.08,52.48-16,52.48-34.32v-14c30.8,6.4,128,31.52,134.56,91.68H219.306z" transform="matrix(0.11828944087028503 0 0 0.11828944087028503 62.5 150)" id="L1_83" fill="#bf9a49"/><g transform="matrix(0.11635402590036392 0 0 0.11635402590036392 237.5 150)" id="L1_84"><path d="M264.878,188.443c-2.927-1.946-6.413-2.873-9.92-2.64h-43.36c1.228-1.909,2.591-3.727,4.08-5.44    c5.28-5.829,11.062-11.183,17.28-16c8.373-6.827,14.347-11.84,17.92-15.04c4.118-3.896,7.648-8.369,10.48-13.28    c3.432-5.693,5.206-12.233,5.12-18.88c-0.025-8.743-3.371-17.15-9.36-23.52c-2.982-3.091-6.543-5.565-10.48-7.28    c-6.92-2.848-14.36-4.21-21.84-4c-6.302-0.134-12.572,0.924-18.48,3.12c-4.841,1.761-9.277,4.482-13.04,8    c-3.41,3.205-6.132,7.07-8,11.36c-1.633,3.793-2.503,7.871-2.56,12c-0.159,2.773,0.823,5.491,2.72,7.52    c1.842,1.834,4.363,2.819,6.96,2.72c2.743,0.167,5.406-0.958,7.2-3.04c1.948-2.608,3.437-5.53,4.4-8.64    c0.725-2.372,1.663-4.675,2.8-6.88c3.58-6.07,10.154-9.739,17.2-9.6c3.344-0.041,6.644,0.756,9.6,2.32    c2.879,1.506,5.287,3.775,6.96,6.56c1.729,2.9,2.616,6.224,2.56,9.6c-0.057,3.495-0.876,6.935-2.4,10.08    c-1.609,3.732-3.796,7.188-6.48,10.24c-3.52,3.644-7.407,6.915-11.6,9.76c-4.411,3.359-8.606,6.993-12.56,10.88    c-5.973,5.333-12.667,11.92-20.08,19.76c-2.084,2.374-3.76,5.077-4.96,8c-1.279,2.488-2.041,5.209-2.24,8    c0.023,3.037,1.296,5.931,3.52,8c2.654,2.419,6.175,3.66,9.76,3.44h61.52c2.947,0.165,5.834-0.875,8-2.88    c1.802-1.862,2.781-4.37,2.72-6.96C268.427,192.881,267.143,190.163,264.878,188.443z" fill="#bf9a49"/><path d="M369.838,162.043c-3.281-1.296-6.795-1.895-10.32-1.76h-3.6v-64.32c0-9.707-4.24-14.56-12.72-14.56    c-2.501-0.045-4.918,0.904-6.72,2.64c-2.603,2.626-4.984,5.462-7.12,8.48l-44.24,59.2l-3.12,4.08    c-0.853,1.12-1.653,2.267-2.4,3.44c-0.716,1.076-1.307,2.23-1.76,3.44c-0.37,1.026-0.56,2.109-0.56,3.2    c-0.164,3.683,1.299,7.251,4,9.76c3.335,2.63,7.521,3.94,11.76,3.68h41.6v15.52c-0.261,3.421,0.767,6.817,2.88,9.52    c1.93,2.146,4.716,3.32,7.6,3.2c3.005,0.252,5.959-0.9,8-3.12c2.09-2.743,3.088-6.164,2.8-9.6v-15.52h5.12    c3.326,0.219,6.641-0.561,9.52-2.24c2.205-1.641,3.414-4.299,3.2-7.04C374.341,166.806,372.753,163.566,369.838,162.043z     M334.638,160.603h-35.6l35.6-48.56V160.603z" fill="#bf9a49"/><path d="M376.638,413.723l-0.24-0.72c-29.52,1.28-40.72-17.12-53.76-38.4c-11.52-18.8-24.48-40-51.84-40    c1.575-3.275,2.705-6.746,3.36-10.32c3.36-20.16-5.76-51.28-68.16-84.48c-2.329-1.223-5.111-1.223-7.44,0l-20.96,10.8    c-5.04,0-27.84-2-52.56-50.24c-20.8-51.28-8.88-70.16-6.32-73.44l21.52-9.44c2.415-1.062,4.151-3.247,4.64-5.84    c13.44-69.44-5.04-96-22.8-106.16c-7.058-3.683-14.92-5.552-22.88-5.44c-18.191-0.82-34.86,10.11-41.36,27.12    c-12.88,32-27.68,101.04,17.12,196.64c46.08,94.88,108.8,126.4,142.08,136.8c4.296,1.362,8.773,2.063,13.28,2.08    c10.351-0.107,20.296-4.039,27.92-11.04c0.453,0.039,0.907,0.039,1.36,0c25.6-5.2,35.04,8,49.6,32    c12.64,20.56,28.24,46.08,64.64,46.08h3.44c4.418-0.177,7.857-3.902,7.68-8.32C384.781,416.985,381.056,413.546,376.638,413.723z     M258.318,321.243c-2.965,13.6-14.382,23.724-28.24,25.04c-2.879-0.025-5.738-0.483-8.48-1.36c-30.96-9.6-88.96-39.04-132.4-128.4    s-28.64-154.16-16.72-183.84c4.228-10.797,14.902-17.666,26.48-17.04c5.212-0.122,10.375,1.032,15.04,3.36    c18.16,10.32,24,40.4,16,85.04l-19.04,8c-0.661,0.289-1.28,0.665-1.84,1.12c-2.8,2.32-26.4,24,1.52,92.96    c27.52,53.84,56,59.6,66.56,59.6c1.613,0.016,3.222-0.145,4.8-0.48c0.641-0.163,1.259-0.405,1.84-0.72l18.48-9.52    C241.838,277.403,261.758,300.683,258.318,321.243z" fill="#bf9a49"/></g></defs><g fi:class="KUsePattern"><pattern id="pattern_L1_81" width="350" height="350" patternUnits="userSpaceOnUse"><use xlink:href="#L1_81" x="-350" y="-350"/><use xlink:href="#L1_81" x="0" y="-350"/><use xlink:href="#L1_81" x="350" y="-350"/><use xlink:href="#L1_81" x="-350" y="0"/><use xlink:href="#L1_81" x="0" y="0"/><use xlink:href="#L1_81" x="350" y="0"/><use xlink:href="#L1_81" x="-350" y="350"/><use xlink:href="#L1_81" x="0" y="350"/><use xlink:href="#L1_81" x="350" y="350"/></pattern><rect x="0" y="0" width="100%" height="100%" fill="url(#pattern_L1_81)"/></g><g fi:class="KUsePattern"><pattern id="pattern_L1_82" width="350" height="350" patternUnits="userSpaceOnUse"><use xlink:href="#L1_82" x="-350" y="-350"/><use xlink:href="#L1_82" x="0" y="-350"/><use xlink:href="#L1_82" x="350" y="-350"/><use xlink:href="#L1_82" x="-350" y="0"/><use xlink:href="#L1_82" x="0" y="0"/><use xlink:href="#L1_82" x="350" y="0"/><use xlink:href="#L1_82" x="-350" y="350"/><use xlink:href="#L1_82" x="0" y="350"/><use xlink:href="#L1_82" x="350" y="350"/></pattern><rect x="0" y="0" width="100%" height="100%" fill="url(#pattern_L1_82)"/></g><g fi:class="KUsePattern"><pattern id="pattern_L1_83" width="350" height="350" patternUnits="userSpaceOnUse"><use xlink:href="#L1_83" x="-350" y="-350"/><use xlink:href="#L1_83" x="0" y="-350"/><use xlink:href="#L1_83" x="350" y="-350"/><use xlink:href="#L1_83" x="-350" y="0"/><use xlink:href="#L1_83" x="0" y="0"/><use xlink:href="#L1_83" x="350" y="0"/><use xlink:href="#L1_83" x="-350" y="350"/><use xlink:href="#L1_83" x="0" y="350"/><use xlink:href="#L1_83" x="350" y="350"/></pattern><rect x="0" y="0" width="100%" height="100%" fill="url(#pattern_L1_83)"/></g><g fi:class="KUsePattern"><pattern id="pattern_L1_84" width="350" height="350" patternUnits="userSpaceOnUse"><use xlink:href="#L1_84" x="-350" y="-350"/><use xlink:href="#L1_84" x="0" y="-350"/><use xlink:href="#L1_84" x="350" y="-350"/><use xlink:href="#L1_84" x="-350" y="0"/><use xlink:href="#L1_84" x="0" y="0"/><use xlink:href="#L1_84" x="350" y="0"/><use xlink:href="#L1_84" x="-350" y="350"/><use xlink:href="#L1_84" x="0" y="350"/><use xlink:href="#L1_84" x="350" y="350"/></pattern><rect x="0" y="0" width="100%" height="100%" fill="url(#pattern_L1_84)"/></g></svg>
