<svg height="512.00003pt" viewBox="0 0 512.00003 512.00003" width="512.00003pt" xmlns="http://www.w3.org/2000/svg"><path d="m111.609375 410.734375-31.488281-23.21875c-5.332032-4.042969-12.511719-4.667969-18.460938-1.605469-6.527344 3.390625-10.582031 10.179688-10.460937 17.539063v46.4375c-.121094 7.355469 3.933593 14.148437 10.460937 17.535156 5.945313 3.066406 13.125 2.441406 18.449219-1.605469l31.5-23.21875c4.953125-3.800781 7.855469-9.6875 7.855469-15.929687 0-6.246094-2.902344-12.132813-7.855469-15.933594zm-10.121094 18.125-32.136719 23.332031c-.761718-.511718-1.175781-1.394531-1.085937-2.304687v-46.4375c-.078125-.523438.058594-1.054688.382813-1.46875.320312-.417969.800781-.683594 1.324218-.734375l31.496094 23.226562c.585938.582032.914062 1.371094.914062 2.195313s-.328124 1.613281-.914062 2.191406zm0 0"/><path d="m443.734375 384h-51.199219c-4.714844 0-8.535156 3.820312-8.535156 8.535156 0 4.710938 3.820312 8.53125 8.535156 8.53125h51.199219c4.710937 0 8.53125-3.820312 8.53125-8.53125 0-4.714844-3.820313-8.535156-8.53125-8.535156zm0 0"/><path d="m443.734375 418.132812h-51.199219c-4.714844 0-8.535156 3.820313-8.535156 8.535157 0 4.710937 3.820312 8.53125 8.535156 8.53125h51.199219c4.710937 0 8.53125-3.820313 8.53125-8.53125 0-4.714844-3.820313-8.535157-8.53125-8.535157zm0 0"/><path d="m443.734375 452.265625h-51.199219c-4.714844 0-8.535156 3.820313-8.535156 8.535156 0 4.710938 3.820312 8.53125 8.535156 8.53125h51.199219c4.710937 0 8.53125-3.820312 8.53125-8.53125 0-4.714843-3.820313-8.535156-8.53125-8.535156zm0 0"/><path d="m347.308594 418.132812h-142.507813v-8.53125c0-4.714843-3.820312-8.535156-8.535156-8.535156-4.710937 0-8.53125 3.820313-8.53125 8.535156v8.53125h-34.132813c-4.714843 0-8.535156 3.820313-8.535156 8.535157 0 4.710937 3.820313 8.53125 8.535156 8.53125h34.132813v8.535156c0 4.710937 3.820313 8.53125 8.53125 8.53125 4.714844 0 8.535156-3.820313 8.535156-8.53125v-8.535156h142.507813c4.710937 0 8.53125-3.820313 8.53125-8.53125 0-4.714844-3.820313-8.535157-8.53125-8.535157zm0 0"/><path d="m486.398438 0h-153.597657c-14.140625 0-25.601562 11.460938-25.601562 25.601562v25.597657h-238.933594c-37.683594.042969-68.2226562 30.582031-68.265625 68.265625v324.269531c.0429688 37.683594 30.582031 68.222656 68.265625 68.265625h358.402344c37.683593-.042969 68.222656-30.582031 68.265625-68.265625v-291.703125c10.191406-3.605469 17.023437-13.222656 17.066406-24.03125v-102.398438c0-14.140624-11.460938-25.601562-25.601562-25.601562zm-418.132813 68.265625h238.933594v59.734375c0 14.136719 11.460937 25.601562 25.601562 25.601562v51.199219c0 3.347657 1.960938 6.386719 5.007813 7.769531 3.050781 1.382813 6.628906.855469 9.148437-1.351562l65.851563-57.617188h65.058594v196.265626h-165.488282v-12.800782c-.03125-18.355468-10.046875-35.242187-26.144531-44.066406l-46.832031-25.976562c-1.726563-.9375-2.808594-2.742188-2.824219-4.707032v-11.753906c9.214844-10.773438 16.75-22.875 22.347656-35.898438l.742188-.726562c3.417969-3.339844 5.34375-7.921875 5.335937-12.703125v-20.257813c.007813-4.488281-1.683594-8.808593-4.738281-12.09375v-33.808593c.003906-.410157-.027344-.820313-.085937-1.230469-5.734376-39.535156-58.324219-39.976562-60.558594-39.976562-2.238282 0-54.828125.453124-60.585938 39.988281-.058594.40625-.089844.816406-.085937 1.226562v33.808594c-3.058594 3.285156-4.753907 7.605469-4.746094 12.09375v20.257813c-.003906 4.78125 1.917969 9.359374 5.332031 12.707031l.746094.722656c5.605469 13.023437 13.140625 25.125 22.355469 35.902344v11.742187c-.011719 1.976563-1.105469 3.785156-2.851563 4.71875l-46.796875 25.957032c-16.082031 8.839843-26.089843 25.722656-26.128906 44.074218v12.800782h-69.792969v-230.402344c.027344-28.261719 22.933594-51.171875 51.199219-51.199219zm99.789063 213.703125c7.175781-3.929688 11.648437-11.449219 11.675781-19.628906v-13.386719c0-3.371094-1.308594-6.609375-3.652344-9.03125-8.597656-9.964844-15.570313-21.222656-20.667969-33.355469-.441406-1.070312-1.089844-2.042968-1.914062-2.859375l-2.199219-2.472656.253906-20.8125 1.9375-1.921875c1.632813-1.601562 2.554688-3.789062 2.5625-6.074219v-36.695312c4.121094-24.378907 43.195313-24.804688 43.519531-24.804688.324219 0 39.472657.425781 43.59375 24.804688v36.695312c.007813 2.285157.929688 4.472657 2.5625 6.074219l2.191407 2.476562-.253907 20.8125-1.945312 1.917969c-.824219.820313-1.472656 1.792969-1.914062 2.867188-5.078126 12.128906-12.046876 23.375-20.640626 33.324219-2.355468 2.425781-3.667968 5.671874-3.667968 9.054687v13.351563c.019531 8.175781 4.480468 15.691406 11.644531 19.628906l46.824219 25.964844c10.667968 5.832031 17.316406 17.007812 17.347656 29.167968v12.800782h-191.386719v-12.800782c.042969-12.148437 6.691407-23.3125 17.351563-29.140625zm258.613281 212.964844h-358.402344c-28.265625-.027344-51.171875-22.933594-51.199219-51.199219v-76.800781h460.800782v76.800781c-.027344 28.265625-22.933594 51.171875-51.199219 51.199219zm68.265625-366.933594c0 4.710938-3.820313 8.535156-8.535156 8.535156h-76.796876c-2.070312 0-4.070312.75-5.625 2.113282l-54.109374 47.378906v-40.960938c0-4.710937-3.820313-8.53125-8.535157-8.53125h-8.53125c-4.714843 0-8.535156-3.824218-8.535156-8.535156v-102.398438c0-4.714843 3.820313-8.535156 8.535156-8.535156h153.597657c4.714843 0 8.535156 3.820313 8.535156 8.535156zm0 0"/><path d="m460.800781 34.132812h-102.402343c-4.710938 0-8.53125 3.820313-8.53125 8.535157 0 4.710937 3.820312 8.53125 8.53125 8.53125h102.402343c4.710938 0 8.53125-3.820313 8.53125-8.53125 0-4.714844-3.820312-8.535157-8.53125-8.535157zm0 0"/><path d="m460.800781 68.265625h-8.535156c-4.710937 0-8.53125 3.820313-8.53125 8.535156 0 4.710938 3.820313 8.53125 8.53125 8.53125h8.535156c4.710938 0 8.53125-3.820312 8.53125-8.53125 0-4.714843-3.820312-8.535156-8.53125-8.535156zm0 0"/><path d="m426.667969 76.800781c0-4.714843-3.820313-8.535156-8.535157-8.535156h-59.734374c-4.710938 0-8.53125 3.820313-8.53125 8.535156 0 4.710938 3.820312 8.53125 8.53125 8.53125h59.734374c4.714844 0 8.535157-3.820312 8.535157-8.53125zm0 0"/><path d="m392.535156 102.398438h-34.136718c-4.710938 0-8.53125 3.820312-8.53125 8.535156 0 4.710937 3.820312 8.53125 8.53125 8.53125h34.136718c4.710938 0 8.53125-3.820313 8.53125-8.53125 0-4.714844-3.820312-8.535156-8.53125-8.535156zm0 0"/><path d="m420.609375 104.875c-1.558594 1.636719-2.441406 3.800781-2.476563 6.058594.019532.570312.078126 1.140625.171876 1.707031.09375.535156.265624 1.050781.511718 1.535156.1875.542969.445313 1.0625.769532 1.535157l1.023437 1.28125c.828125.753906 1.78125 1.359374 2.816406 1.792968 1.023438.4375 2.125.667969 3.242188.679688 2.257812-.03125 4.421875-.914063 6.058593-2.472656l1.023438-1.28125c.324219-.472657.582031-.992188.765625-1.535157.25-.484375.421875-1 .515625-1.535156.09375-.566406.148438-1.136719.167969-1.707031.019531-3.46875-2.058594-6.601563-5.261719-7.929688-3.199219-1.332031-6.886719-.589844-9.328125 1.871094zm0 0"/></svg>
