<?xml version="1.0" encoding="utf-8"?>
<!-- Generator: Adobe Illustrator 22.1.0, SVG Export Plug-In . SVG Version: 6.00 Build 0)  -->
<svg version="1.1" id="Layer_1" xmlns="http://www.w3.org/2000/svg" xmlns:xlink="http://www.w3.org/1999/xlink" x="0px" y="0px"
	 viewBox="0 0 300 65" style="enable-background:new 0 0 300 65;" xml:space="preserve">
<style type="text/css">
	.st0{fill:none;}
	.st1{fill:#EB2227;}
	.st2{fill:#231F20;}
	.st3{fill:#3E3E3E;}
	.st4{clip-path:url(#SVGID_2_);}
	.st5{clip-path:url(#SVGID_4_);}
	.st6{clip-path:url(#SVGID_6_);}
	.st7{clip-path:url(#SVGID_8_);}
	.st8{fill:#989798;}
</style>
<rect class="st0" width="300" height="65"/>
<g>
	<g>
		<polygon class="st1" points="268.4,36.8 272.2,17.1 279.2,17.1 275.4,36.8 		"/>
		<path class="st1" d="M196.8,25.8c-0.1,0.5-0.2,1.1-0.4,1.6c-0.2,0.6-0.4,1.1-0.7,1.7h-11.3c-0.1,1,0.3,1.9,1.2,2.4
			c1.1,0.6,2.4,0.9,3.7,0.8c1.9,0,3.7-0.3,5.5-0.8l-0.9,4.7c-2.1,0.6-4.4,0.9-6.6,0.9c-1.5,0-2.9-0.1-4.3-0.5
			c-1.1-0.3-2.2-0.9-3.1-1.8c-1-1-1.8-2.2-2.2-3.6c-0.4-1.5-0.4-3.1-0.1-4.6c0.5-2.8,2-5.3,4.1-7.2c1-0.9,2.2-1.6,3.5-2.2
			c1.3-0.5,2.7-0.8,4-0.8c1.3,0,2.5,0.2,3.7,0.7c1,0.4,1.9,1,2.6,1.9c0.7,0.8,1.1,1.8,1.4,2.9C197.1,23.2,197.1,24.5,196.8,25.8
			 M190.6,25.7c0.2-1,0.2-2.1-0.1-3.1c-0.3-0.7-1-1-1.8-1c-1.9,0-3.1,1.4-3.7,4.1H190.6z M214.7,23.7c-0.8-0.5-1.7-0.7-2.7-0.7
			c-1.3,0-2.6,0.5-3.5,1.4c-1,1.1-1.7,2.5-1.9,4.1l-1.6,8.3h-7l3.8-19.6h6.7l-0.9,4.5c1.1-2.9,3.9-4.8,6.9-4.8h0.7L216,17
			L214.7,23.7z M231.5,23.7c-0.8-0.5-1.7-0.7-2.7-0.7c-1.3,0-2.6,0.5-3.5,1.4c-1,1.1-1.7,2.5-1.9,4.1l-1.6,8.3h-7l3.8-19.6h6.8
			l-0.9,4.5c1.1-2.9,3.9-4.8,6.9-4.8h0.6l0.8,0.1L231.5,23.7z M251.5,25.8c-0.1,0.5-0.2,1.1-0.4,1.6c-0.2,0.6-0.4,1.1-0.7,1.7H239
			c-0.1,1,0.3,1.9,1.2,2.4c1.1,0.6,2.4,0.9,3.7,0.8c1.9,0,3.7-0.3,5.5-0.8l-0.9,4.7c-2.1,0.6-4.4,0.9-6.6,0.9
			c-1.5,0-2.9-0.1-4.3-0.5c-1.1-0.3-2.2-0.9-3.1-1.8c-1-1-1.8-2.2-2.2-3.6c-0.3-1.5-0.3-3.1,0-4.6c0.3-1.4,0.8-2.8,1.5-4
			c0.7-1.2,1.6-2.3,2.6-3.2c1-0.9,2.2-1.6,3.5-2.2c1.3-0.5,2.7-0.8,4-0.8c1.3,0,2.5,0.2,3.7,0.7c1,0.4,1.9,1,2.6,1.9
			c0.7,0.8,1.1,1.8,1.4,2.9C251.8,23.3,251.7,24.6,251.5,25.8L251.5,25.8z M245.3,25.8c0.2-1,0.2-2.1-0.1-3.1
			c-0.3-0.7-1.1-1.1-1.8-1c-1.9,0-3.1,1.4-3.7,4.1H245.3z M265.1,37c-0.7,0.1-1.4,0.2-2.2,0.2c-0.8,0-1.4,0-2.2,0
			c-2.1,0.2-4.3-0.4-5.9-1.8c-1.2-1.6-1.5-3.7-0.9-5.6l2.9-15.3l7.7-4l-1.3,6.6h5.3l-1,5.2h-5.3l-1.1,5.5c-0.3,1-0.3,2,0.2,3
			c0.4,0.6,1.2,0.8,2.6,0.8c0.7,0,1.3,0,2,0L265.1,37z"/>
		<path class="st1" d="M165.5,36.8l2.2-11c0.1-0.7,0.1-1.4,0-2c-0.2-0.6-0.7-0.9-1.5-0.9c-2.2,0-3.5,1.6-4.1,4.9l-1.7,9h-7l5.3-27.6
			h6.9l-2.2,11.7c0.7-1.3,1.8-2.3,3-3c1.2-0.7,2.5-1.1,3.9-1.1c1.1,0,2.3,0.3,3.2,0.9c0.8,0.6,1.4,1.5,1.6,2.5c0.1,0.7,0.1,1.4,0,2
			c-0.1,1.1-0.3,2.2-0.5,3.4l-2.2,11.3L165.5,36.8z"/>
		<path class="st1" d="M151,31.3c-0.3,1.8-1.3,3.3-2.8,4.3c-1.8,1.1-3.8,1.6-5.9,1.5c-0.6,0-1.1,0-1.7,0L139,37
			c-0.5,0-1.1-0.2-1.8-0.3c-0.6-0.2-1.4-0.3-2.2-0.5l1-5.1c0.4,0.2,0.8,0.3,1.2,0.4l1.4,0.3l1.4,0.3c0.5,0,0.9,0,1.3,0
			c1.3,0,2-0.5,2.2-1.5c0.1-0.2,0.1-0.5,0-0.7c-0.1-0.2-0.3-0.5-0.5-0.6c-0.3-0.3-0.7-0.5-1-0.7c-0.4-0.3-0.9-0.6-1.6-0.9
			c-2.1-0.9-3.2-3.1-2.6-5.3c0.3-1.7,1.3-3.2,2.7-4.2c1.6-1.1,3.5-1.6,5.4-1.5c1.1,0,2.3,0.1,3.4,0.3c1.3,0.2,2.5,0.4,3.7,0.8
			l-1,5.1c-1.1-0.3-2.1-0.5-3-0.7c-0.7-0.1-1.4-0.2-2.2-0.2c-0.6,0-1.2,0.1-1.7,0.4c-0.4,0.2-0.7,0.6-0.8,1c-0.1,0.2-0.1,0.4,0,0.6
			c0.1,0.2,0.2,0.4,0.3,0.5c0.2,0.2,0.5,0.4,0.8,0.5l1.3,0.7c0.7,0.3,1.5,0.7,2.2,1.2c0.5,0.3,0.9,0.7,1.3,1.2
			c0.3,0.4,0.5,0.9,0.5,1.4c0.1,0.6,0,1.2-0.1,1.8"/>
		<path class="st2" d="M95.2,27c-0.3,1.4-0.7,2.8-1.2,4.1c-0.4,1-1,1.9-1.7,2.7c-1,1.1-2.3,1.9-3.7,2.5c-1.5,0.6-3.2,0.9-4.8,0.9
			c-1.8,0.1-3.5-0.3-5.1-1.1c-1.2-0.6-2.2-1.7-2.7-3c-0.2-0.8-0.3-1.6-0.3-2.4c0.1-1.3,0.3-2.5,0.6-3.7l1.9-9.9h7l-1.9,10.3
			c-0.4,1-0.4,2.1,0,3.1c0.4,0.5,1,0.8,1.7,0.8c0.7,0,1.4-0.3,1.9-0.8c0.7-0.9,1.1-1.9,1.2-3l2-10.3h7L95.2,27z M110,36.9
			c-0.7,0.1-1.4,0.2-2,0.2c-0.7,0-1.4,0-2.2,0c-2.1,0.2-4.3-0.4-5.9-1.8c-1.2-1.6-1.5-3.7-0.9-5.6l2.9-15.3l7.7-4l-1.3,6.6h5.3
			l-1,5.2h-5.3l-1.1,5.5c-0.3,1-0.3,2.1,0.2,3c0.4,0.6,1.2,0.8,2.6,0.8c0.7,0,1.3,0,2,0L110,36.9z M134.6,27c-0.3,1.5-0.8,3-1.5,4.3
			c-0.7,1.2-1.6,2.3-2.7,3.3c-1.1,0.9-2.3,1.7-3.6,2.2c-1.4,0.5-2.8,0.8-4.3,0.8c-1.4,0-2.8-0.2-4.1-0.7c-1.1-0.5-2.1-1.2-2.8-2.2
			c-0.7-0.9-1.2-2.1-1.4-3.2c-0.3-1.4-0.3-2.9,0-4.3c0.3-1.5,0.8-3,1.5-4.3c0.7-1.2,1.6-2.3,2.7-3.3c1.1-0.9,2.3-1.7,3.7-2.2
			c1.4-0.5,2.8-0.7,4.3-0.7c1.4,0,2.9,0.3,4.2,0.8c1.1,0.4,2,1.1,2.8,2c0.7,1,1.2,2.1,1.4,3.3C134.9,24.1,134.9,25.6,134.6,27z
			 M127.7,26.9c0.3-1.1,0.2-2.2-0.2-3.3c-0.4-0.8-1.2-1.2-2-1.2c-1,0-1.9,0.5-2.6,1.2c-0.8,0.9-1.3,2-1.5,3.2
			c-0.3,1.1-0.2,2.4,0.2,3.5c0.4,0.8,1.2,1.3,2.2,1.2c1,0,2-0.5,2.6-1.3C127,29.2,127.5,28.1,127.7,26.9L127.7,26.9z"/>
		<path class="st2" d="M281.2,11.3c-0.1,1-0.7,2-1.4,2.7c-0.8,0.6-1.9,1-2.9,0.9c-0.9,0.1-1.8-0.2-2.5-0.9c-0.5-0.8-0.7-1.8-0.4-2.7
			c0.1-1,0.6-2,1.4-2.7c0.8-0.6,1.8-0.9,2.9-0.9c0.9-0.1,1.9,0.2,2.6,0.9c0.3,0.3,0.4,0.7,0.5,1.2C281.4,10.2,281.4,10.7,281.2,11.3
			"/>
		<polygon class="st1" points="32.3,36.8 48.7,9.3 58.5,9.4 42.2,36.9 		"/>
		<polygon class="st2" points="18.8,36.8 35.1,9.3 44.9,9.4 28.6,36.9 		"/>
		<path class="st2" d="M66.9,14.5L60.5,27h5.1L66.9,14.5z M64.6,36.6l0.5-4.8H58l-2.5,4.8h-7.5l8.7-15.1c0.4-0.6,0.9-1.4,1.5-2.5
			c0.6-1.1,1.2-2.2,2-3.2s1.4-2.3,2.2-3.4c0.8-1.1,1.3-2.2,1.8-2.9H73v4.9c0,0.7,0,1.4,0,2.2s0,2-0.1,3.5l-0.6,16.4L64.6,36.6z"/>
		<path class="st3" d="M191.6,49.1c-0.3,0-0.7,0.1-0.9,0.3c-0.3,0.3-0.6,0.7-0.7,1.2h2.6v-0.2c0-0.2,0-0.3,0-0.5
			c0-0.2-0.1-0.4-0.3-0.6C192.1,49.2,191.8,49.1,191.6,49.1 M191,55c-0.6,0-1.2-0.2-1.7-0.5c-0.5-0.3-0.9-0.7-1.1-1.2
			c-0.2-0.5-0.3-1.1-0.3-1.7v-0.3c0.1-0.7,0.3-1.3,0.7-1.9c0.3-0.6,0.8-1,1.3-1.3c0.5-0.3,1.1-0.5,1.8-0.5c0.8,0,1.6,0.3,2.2,1
			c0.5,0.7,0.7,1.6,0.5,2.5v0.8h-4.3c0,0.4,0.1,0.8,0.3,1.1c0.3,0.3,0.6,0.4,1,0.4c0.7,0,1.3-0.3,1.8-0.8l0.8,1.1
			c-0.3,0.4-0.7,0.7-1.1,0.9C192.4,54.9,191.7,55,191,55z M184,52.5l2-4.8h2l-3.5,7.3h-1.8l-1.2-7.1h1.9L184,52.5z M179.1,45.9
			c0-0.3,0.1-0.5,0.3-0.7c0.2-0.2,0.5-0.3,0.7-0.3c0.3,0,0.5,0.1,0.7,0.3c0.2,0.2,0.3,0.4,0.3,0.7c0,0.3-0.1,0.5-0.3,0.7
			c-0.2,0.2-0.5,0.3-0.8,0.3c-0.3,0-0.5-0.1-0.7-0.3C179.2,46.4,179.1,46.2,179.1,45.9L179.1,45.9z M179.5,54.8h-1.9l1.2-7.1h1.9
			L179.5,54.8z M177.6,49.5h-0.6c-0.6,0-1.2,0.2-1.6,0.8l-0.8,4.7h-1.9l1.2-7.1h1.7l-0.2,0.9c0.3-0.6,1-1,1.7-1c0.2,0,0.4,0,0.6,0.1
			L177.6,49.5z M167.5,46.8l-1.1,6.5h0.8c0.8,0,1.6-0.3,2.2-1c0.6-0.9,0.9-1.9,0.9-2.9v-0.2c0.1-0.6-0.1-1.2-0.4-1.7
			c-0.3-0.4-0.8-0.6-1.3-0.6L167.5,46.8z M164.2,55l1.7-9.6h2.8c0.6,0,1.2,0.1,1.7,0.4c0.5,0.3,0.9,0.7,1.2,1.2
			c0.3,0.5,0.5,1.1,0.6,1.8c0,0.4,0,0.8,0,1.2v0.3c-0.1,1.3-0.7,2.5-1.7,3.4c-0.9,0.9-2.1,1.3-3.4,1.3H164.2z"/>
		<path class="st3" d="M218,48.5c0.5-0.6,1.3-1,2.2-1c0.6,0,1.1,0.2,1.5,0.7c0.3,0.6,0.5,1.2,0.3,1.9l-0.8,4.9H220l0.8-4.7
			c0-0.2,0-0.4,0-0.6c0-0.5-0.5-1-1-0.9c0,0,0,0,0,0c-0.8,0-1.5,0.5-1.9,1.2L217,55h-1.2l1.8-10.1h1.3L218,48.5z M214.5,46l-0.3,1.7
			h1.3l-0.2,0.9h-1.3l-0.8,4.4v0.3c0,0.3,0.2,0.5,0.5,0.5c0,0,0.1,0,0.1,0h0.6l0.1,1c-0.3,0.1-0.6,0.1-0.9,0.1
			c-0.4,0-0.8-0.2-1.1-0.5c-0.3-0.4-0.4-0.9-0.3-1.4l0.7-4.4h-1.3l0.2-0.9h1.2l0.3-1.7L214.5,46z M210.4,45.1c0.2,0,0.4,0.1,0.5,0.2
			c0.1,0.1,0.2,0.3,0.2,0.5c0,0.2-0.1,0.4-0.2,0.5c-0.1,0.1-0.3,0.2-0.5,0.2c-0.2,0-0.4,0-0.5-0.2c-0.1-0.1-0.2-0.3-0.2-0.5
			c0-0.2,0.1-0.4,0.2-0.5C210.1,45.2,210.3,45.1,210.4,45.1L210.4,45.1z M209.5,55h-1.2l1.2-7.1h1.2L209.5,55z M204.7,53.3l2.3-5.4
			h1.2l-3.2,7.1h-1l-0.7-5.4l-2.6,5.4h-1l-0.8-7.1h1.1l0.4,5.3l2.5-5.3h1L204.7,53.3z"/>
		<path class="st3" d="M280.6,53.5c0.2,0,0.4,0,0.5,0.2c0.1,0.1,0.2,0.3,0.2,0.5c0,0.4-0.3,0.7-0.7,0.7c0,0,0,0,0,0
			c-0.2,0-0.4,0-0.5-0.2c-0.1-0.1-0.2-0.3-0.2-0.5c0-0.2,0.1-0.4,0.2-0.5C280.2,53.6,280.4,53.5,280.6,53.5 M277,53.5
			c0.2,0,0.4,0,0.5,0.2c0.1,0.1,0.2,0.3,0.2,0.5c0,0.2-0.1,0.4-0.2,0.5c-0.1,0.1-0.3,0.2-0.5,0.2c-0.2,0-0.4,0-0.5-0.2
			c-0.1-0.1-0.2-0.3-0.2-0.5c0-0.2,0.1-0.4,0.2-0.5C276.7,53.6,276.8,53.5,277,53.5z M273.5,53.5c0.4,0,0.7,0.2,0.7,0.6
			c0,0,0,0.1,0,0.1c0,0.2-0.1,0.4-0.2,0.5c-0.1,0.1-0.3,0.2-0.5,0.2c-0.2,0-0.4,0-0.5-0.2c-0.1-0.1-0.2-0.3-0.2-0.5
			c0-0.2,0.1-0.4,0.2-0.5C273.1,53.6,273.3,53.5,273.5,53.5z M267.7,47.7l-0.2,0.9c0.5-0.7,1.3-1,2.2-1c0.6,0,1.1,0.2,1.5,0.7
			c0.3,0.6,0.5,1.2,0.3,1.9l-0.8,4.8h-1.2l0.8-4.7c0-0.2,0-0.4,0-0.6c0-0.5-0.5-1-1-0.9c0,0,0,0,0,0c-0.8,0-1.5,0.5-1.9,1.2
			l-0.9,5.1h-1.2l1.2-7.1L267.7,47.7z M259.4,51.4c0,0.3,0,0.6,0,0.9c0,0.5,0.2,0.9,0.5,1.2c0.3,0.3,0.7,0.5,1.1,0.5
			c0.4,0,0.8-0.1,1.1-0.3c0.4-0.2,0.6-0.6,0.8-0.9c0.2-0.4,0.4-0.9,0.4-1.4c0-0.3,0-0.7,0-1c0-0.5-0.2-0.9-0.5-1.3
			c-0.2-0.3-0.6-0.5-0.9-0.6c-0.6,0-1.2,0.3-1.6,0.7c-0.5,0.6-0.7,1.2-0.8,2L259.4,51.4z M261.9,47.6c0.6,0,1.1,0.2,1.5,0.5
			c0.4,0.3,0.8,0.8,0.9,1.3c0.2,0.6,0.3,1.2,0.2,1.8v0.2c-0.1,0.7-0.3,1.3-0.6,1.9c-0.3,0.5-0.7,1-1.3,1.3c-0.5,0.3-1.1,0.5-1.7,0.5
			c-0.6,0-1.1-0.2-1.5-0.5c-0.4-0.3-0.7-0.8-0.9-1.3c-0.2-0.6-0.3-1.2-0.2-1.8c0-0.7,0.3-1.4,0.6-2c0.3-0.6,0.7-1,1.3-1.4
			C260.7,47.7,261.3,47.6,261.9,47.6z M256.9,45.1c0.4,0,0.7,0.3,0.7,0.6c0,0,0,0,0,0c0,0.2-0.1,0.4-0.2,0.5
			c-0.1,0.1-0.3,0.2-0.5,0.2c-0.2,0-0.4,0-0.5-0.2c-0.1-0.1-0.2-0.3-0.2-0.5c0-0.2,0.1-0.4,0.2-0.5
			C256.6,45.2,256.7,45.2,256.9,45.1L256.9,45.1z M255.9,55h-1.2l1.2-7.1h1.2L255.9,55z M252.2,53c0-0.5-0.2-0.8-0.8-1l-1.2-0.4
			c-1-0.4-1.5-1-1.5-1.8c0-0.6,0.3-1.2,0.9-1.5c0.6-0.4,1.2-0.6,1.9-0.6c0.6,0,1.3,0.2,1.7,0.6c0.5,0.4,0.7,1,0.6,1.6h-1.2
			c0-0.3-0.1-0.7-0.3-0.9c-0.3-0.2-0.6-0.3-0.9-0.3c-0.4,0-0.7,0.1-1.1,0.3c-0.3,0.2-0.4,0.5-0.5,0.8c0,0.4,0.2,0.7,0.8,0.9l0.5,0
			c0.6,0.1,1.2,0.4,1.7,0.8c0.3,0.3,0.5,0.8,0.5,1.3c0,0.4-0.2,0.8-0.4,1.2c-0.3,0.3-0.6,0.6-1.1,0.8c-0.4,0.2-0.9,0.2-1.4,0.2
			c-0.7,0-1.3-0.2-1.9-0.7c-0.5-0.4-0.8-1-0.7-1.7h1.2c0,0.4,0.1,0.7,0.4,0.9c0.3,0.3,0.7,0.4,1.1,0.4c0.4,0,0.8-0.1,1.1-0.3
			c0.3-0.1,0.5-0.4,0.6-0.7V53z M245.4,53c0-0.5-0.2-0.8-0.8-1l-1.2-0.4c-1-0.4-1.5-1-1.5-1.8c0-0.6,0.3-1.2,0.9-1.5
			c0.6-0.4,1.2-0.6,1.9-0.6c0.6,0,1.3,0.2,1.8,0.6c0.5,0.4,0.7,1,0.6,1.6h-1.2c0-0.3-0.1-0.7-0.3-0.9c-0.2-0.3-0.5-0.5-0.8-0.5
			c-0.4,0-0.8,0.1-1.1,0.3c-0.3,0.2-0.4,0.5-0.5,0.8c0,0.4,0.2,0.7,0.8,0.9l0.6,0.2c0.6,0.1,1.2,0.4,1.7,0.8
			c0.3,0.3,0.5,0.8,0.5,1.3c0,0.4-0.2,0.8-0.4,1.2c-0.3,0.3-0.6,0.6-1.1,0.8c-0.5,0.2-0.9,0.2-1.4,0.2c-0.7,0-1.3-0.2-1.9-0.7
			c-0.5-0.4-0.7-1-0.7-1.7h1.2c0,0.4,0.1,0.7,0.4,0.9c0.3,0.3,0.7,0.4,1.1,0.4c0.4,0,0.8-0.1,1.1-0.3c0.2-0.2,0.4-0.4,0.5-0.7V53z
			 M236.3,54.1c0.4,0,0.8-0.1,1.1-0.3c0.3-0.3,0.6-0.6,0.8-1l0.3-1.5h-0.9c-0.6,0-1.2,0.1-1.7,0.4c-0.4,0.2-0.6,0.6-0.7,1
			c-0.1,0.3,0,0.6,0.2,0.8c0.2,0.3,0.5,0.4,0.9,0.4V54.1z M238.2,55c0-0.1,0-0.3,0-0.4v-0.5c-0.6,0.6-1.3,0.9-2.2,0.9
			c-0.6,0-1.1-0.2-1.5-0.6c-0.4-0.4-0.6-0.9-0.5-1.5c0-0.7,0.4-1.4,1-1.8c0.7-0.5,1.6-0.7,2.4-0.6h1.2V50c0.1-0.4,0-0.7-0.3-1
			c-0.2-0.3-0.6-0.4-0.9-0.4c-0.4,0-0.8,0.1-1.1,0.3c-0.3,0.2-0.5,0.5-0.6,0.8h-1.2c0-0.4,0.2-0.8,0.5-1.1c0.3-0.3,0.7-0.6,1.1-0.8
			c0.4-0.2,0.9-0.3,1.4-0.3c0.7,0,1.3,0.2,1.7,0.7c0.4,0.5,0.6,1.1,0.5,1.7l-0.6,3.5V54c0,0.2,0,0.5,0,0.7V55H238.2z M231.7,51.3
			v-0.6c0-0.5-0.1-1-0.4-1.5c-0.2-0.3-0.6-0.5-1.1-0.5c-0.7,0-1.4,0.4-1.8,1l-0.6,3.4c0.2,0.6,0.8,1,1.4,1c0.6,0,1.1-0.2,1.5-0.7
			c0.5-0.6,0.8-1.4,0.9-2.2V51.3z M232.9,51.4c-0.1,0.7-0.3,1.4-0.6,2c-0.3,0.5-0.6,1-1.1,1.3c-0.5,0.3-1.1,0.4-1.6,0.3
			c-0.7,0-1.4-0.3-1.9-0.8l-0.6,3.4h-1.2l1.7-9.9h1.1l-0.1,0.8c0.5-0.6,1.3-1,2.2-0.9c0.6,0,1.2,0.3,1.6,0.8c0.4,0.6,0.6,1.3,0.6,2
			c0,0.3,0,0.6,0,0.8L232.9,51.4z"/>
		<g>
			<defs>
				<path id="SVGID_1_" d="M160.7,48.8h-141l-0.4,2.5h141L160.7,48.8z M161.3,45.3h-141l-0.4,2.5h141L161.3,45.3z M160.1,52.4h-141
					L18.7,55h141L160.1,52.4z"/>
			</defs>
			<clipPath id="SVGID_2_">
				<use xlink:href="#SVGID_1_"  style="overflow:visible;"/>
			</clipPath>
			<g class="st4">
				<g>
					<defs>
						<rect id="SVGID_3_" x="18.7" y="45.3" width="142.6" height="9.6"/>
					</defs>
					<clipPath id="SVGID_4_">
						<use xlink:href="#SVGID_3_"  style="overflow:visible;"/>
					</clipPath>
					<g class="st5">
						
							<image style="overflow:visible;enable-background:new    ;" width="529" height="37" xlink:href="703C65B4.png"  transform="matrix(0.2646 0 0 0.2646 22.5812 45.2513)">
						</image>
					</g>
				</g>
				<g id="Layer_2_1_">
					<defs>
						<path id="SVGID_5_" d="M188.3,50.1c0.1-0.3,0.2-0.5,0.4-0.7c0.3-0.6,0.8-1,1.3-1.3c0.5-0.3,1.1-0.5,1.8-0.5
							c0.8,0,1.6,0.3,2.2,1c0.4,0.6,0.6,1.3,0.6,2l-1.8-0.2c0-0.2,0-0.3,0-0.5c0-0.2-0.1-0.4-0.3-0.6c-0.2-0.2-0.4-0.2-0.7-0.2
							c-0.3,0-0.7,0.1-0.9,0.3c-0.2,0.2-0.4,0.5-0.5,0.8l-1.9-0.1 M182.1,50.1l-0.4-2.3h1.9l0.2,2.3L182.1,50.1z M185.2,50.1l1-2.3
							h2l-1.1,2.3L185.2,50.1z M179.2,46c0-0.3,0.1-0.5,0.3-0.7c0.2-0.2,0.4-0.3,0.6-0.4c0.3,0,0.5,0.1,0.7,0.3
							c0.2,0.2,0.3,0.4,0.3,0.7c0,0.3-0.1,0.5-0.3,0.7c-0.2,0.2-0.5,0.3-0.8,0.3c-0.3,0-0.5-0.1-0.7-0.3c-0.2-0.2-0.3-0.5-0.3-0.7
							L179.2,46z M178.5,50.3l0.4-2.5h1.9l-0.4,2.4c-0.8,0-1.4,0-2,0.1L178.5,50.3z M177.7,49.5H177c-0.6,0-1.2,0.2-1.6,0.8v0.4
							l-1.9,0.3l0.5-3.1h1.7l-0.2,0.9c0.3-0.6,1-1,1.7-1c0.2,0,0.4,0,0.6,0.1L177.7,49.5z M164.6,53.5l1.4-8.2h2.8
							c0.6,0,1.2,0.1,1.7,0.4c0.5,0.3,0.9,0.7,1.2,1.2c0.3,0.5,0.5,1.1,0.6,1.8c0,0.4,0,0.8,0,1.2v0.3c0,0.3,0,0.6-0.2,0.9
							c-0.8,0.2-1.5,0.3-2.2,0.5c0.3-0.7,0.5-1.4,0.5-2.2v-0.2c0.1-0.6-0.1-1.2-0.4-1.7c-0.3-0.4-0.8-0.6-1.3-0.6h-1.1l-1,5.7
							c-0.8,0.2-1.5,0.5-2.3,0.9L164.6,53.5z"/>
					</defs>
					<clipPath id="SVGID_6_">
						<use xlink:href="#SVGID_5_"  style="overflow:visible;"/>
					</clipPath>
					<g id="Layer_1-2" class="st6">
						<g>
							<defs>
								<rect id="SVGID_7_" x="164.4" y="44.9" width="29.9" height="8.6"/>
							</defs>
							<clipPath id="SVGID_8_">
								<use xlink:href="#SVGID_7_"  style="overflow:visible;"/>
							</clipPath>
							<g class="st7">
								
									<image style="overflow:visible;enable-background:new    ;" width="111" height="33" xlink:href="703C65B5.png"  transform="matrix(0.2712 0 0 0.2712 164.7788 44.864)">
								</image>
							</g>
						</g>
						<g>
							<path class="st8" d="M191.6,49.1c-0.3,0-0.7,0.1-0.9,0.3c-0.3,0.3-0.6,0.7-0.7,1.2h2.6v-0.2c0-0.2,0-0.3,0-0.5
								c0-0.2-0.1-0.4-0.3-0.6C192.1,49.2,191.8,49.1,191.6,49.1 M191,55c-0.6,0-1.2-0.2-1.7-0.5c-0.5-0.3-0.9-0.7-1.1-1.2
								c-0.2-0.5-0.3-1.1-0.3-1.7v-0.3c0.1-0.7,0.3-1.3,0.7-1.9c0.3-0.6,0.8-1,1.3-1.3c0.5-0.3,1.1-0.5,1.8-0.5c0.8,0,1.6,0.3,2.2,1
								c0.5,0.7,0.7,1.6,0.5,2.5v0.8h-4.3c0,0.4,0.1,0.8,0.3,1.1c0.3,0.3,0.6,0.4,1,0.4c0.7,0,1.3-0.3,1.8-0.8l0.8,1.1
								c-0.3,0.4-0.7,0.7-1.1,0.9C192.4,54.9,191.7,55,191,55z M184,52.5l2-4.8h2l-3.5,7.3h-1.8l-1.2-7.1h1.9L184,52.5z M179.1,45.9
								c0-0.3,0.1-0.5,0.3-0.7c0.2-0.2,0.5-0.3,0.7-0.3c0.3,0,0.5,0.1,0.7,0.3c0.2,0.2,0.3,0.4,0.3,0.7c0,0.3-0.1,0.5-0.3,0.7
								c-0.2,0.2-0.5,0.3-0.8,0.3c-0.3,0-0.5-0.1-0.7-0.3C179.2,46.4,179.1,46.2,179.1,45.9L179.1,45.9z M179.5,54.8h-1.9l1.2-7.1
								h1.9L179.5,54.8z M177.6,49.5h-0.6c-0.6,0-1.2,0.2-1.6,0.8l-0.8,4.7h-1.9l1.2-7.1h1.7l-0.2,0.9c0.3-0.6,1-1,1.7-1
								c0.2,0,0.4,0,0.6,0.1L177.6,49.5z M167.5,46.8l-1.1,6.5h0.8c0.8,0,1.6-0.3,2.2-1c0.6-0.9,0.9-1.9,0.9-2.9v-0.2
								c0.1-0.6-0.1-1.2-0.4-1.7c-0.3-0.4-0.8-0.6-1.3-0.6L167.5,46.8z M164.2,55l1.7-9.6h2.8c0.6,0,1.2,0.1,1.7,0.4
								c0.5,0.3,0.9,0.7,1.2,1.2c0.3,0.5,0.5,1.1,0.6,1.8c0,0.4,0,0.8,0,1.2v0.3c-0.1,1.3-0.7,2.5-1.7,3.4c-0.9,0.9-2.1,1.3-3.4,1.3
								H164.2z"/>
						</g>
					</g>
				</g>
			</g>
		</g>
	</g>
</g>
</svg>
