<?xml version="1.0" encoding="utf-8"?>
<!-- Generator: Adobe Illustrator 22.1.0, SVG Export Plug-In . SVG Version: 6.00 Build 0)  -->
<svg version="1.1" id="Layer_1" xmlns="http://www.w3.org/2000/svg" xmlns:xlink="http://www.w3.org/1999/xlink" x="0px" y="0px"
	 viewBox="0 0 300 65" style="enable-background:new 0 0 300 65;" xml:space="preserve">
<style type="text/css">
	.st0{fill:none;}
</style>
<rect class="st0" width="300" height="65"/>
<g id="Layer_2_1_">
	<g id="Layer_1-2">
		<path d="M139.2,53.6l2.3,0.3v0.2h-19.1c2.5,0,2.7-1.4,2.7-3.4c0-13,0-26.1,0-39.1c0-1.8-0.2-3.1-2.5-3.1h16.5v18.9
			c4-3.9,8.5-4.1,13-3.3c2.9,0.1,5.3,2.5,5.2,5.5c0,0.2,0,0.5-0.1,0.7c0,6.5,0,13,0,19.4c0.1,0.9,0.2,1.8,0.4,2.7l1,0.1l1.7-6.5
			c-0.2,1.7-0.2,3.2-0.4,4.5c-0.1,2.1-1.7,3.7-3.7,3.9c-2.8,0.3-5.6,0.4-8.4,0.2c-3.3-0.3-4.8-2.3-4.8-5.8c0-6,0-12,0-18.1
			c0-1.2-0.8-3.3-1.2-3.3c-2,0-2.5,1.8-2.5,3.4c-0.1,4.2,0,8.4,0,12.6L139.2,53.6z"/>
		<path d="M56.8,26.3c1.2-0.8,2.5-1.5,3.8-2c6.3-1.4,12.8-1.2,19,0.5c4.7,1.4,6,3.2,6,8.1c0,5.6,0,11.1,0,16.7
			c0.2,0.8,0.5,1.6,1,2.3c0.5-0.7,1-1.4,1.3-2.2c0.3-1.3,0.5-2.6,0.6-3.9c1,5.5-0.9,8.4-6.5,8.9c-4,0.4-8,0.2-10.7-3.6
			c-4.4,4.1-10.8,4.9-16,2.1c-2.3-1.6-3.4-4.5-2.9-7.2c-0.2-2.6,1.5-5,4-5.9c2.9-0.7,5.8-1.2,8.7-1.5c2.7,0,5.2-1.8,6.2-4.3
			c0.9-2.5,0.2-5.4-1.8-7.1c-1.8-1.8-4.3-2.7-6.9-2.4C60.5,25.1,58.6,25.6,56.8,26.3L56.8,26.3z M70.9,36.7l-1-0.3
			c-0.9,1.6-1.6,3.3-2.1,5c-0.3,2.7-0.3,5.4-0.1,8.2c0,0.8,0.9,1.5,1.4,2.3c0.6-0.8,1.7-1.5,1.7-2.2C71,45.4,70.9,41.1,70.9,36.7z"
			/>
		<path d="M166.1,26.3c1.5-0.9,3.1-1.6,4.8-2.2c5.7-1.1,11.6-1,17.2,0.4c1.5,0.4,3,1.1,4.3,1.9c1.7,1.1,2.7,3,2.5,5
			c0,5.9,0,11.7,0,17.6c-0.1,0.5-0.1,1,0,1.6c0.2,0.5,0.5,0.9,0.8,1.3c0.4-0.3,0.8-0.7,1.2-1.1c0.2-0.3,0.2-0.8,0.4-1.3
			c0.3,1.7-0.6,3.4-2.2,4.2c-4.9,2.4-10.8,1.4-14.7-2.4c-4,4.3-9,4.1-14,2.8c-3.1-0.7-5.2-3.6-5-6.7c0-4.1,1.4-6.7,4.8-7.6
			c2.7-0.6,5.4-1,8.1-1.2c2.9-0.2,5.4-2.2,6.2-5c0.5-2.8-0.6-5.6-2.8-7.2c-2.8-1.9-6.4-2.3-9.6-1l-2.2,0.8L166.1,26.3z M180.2,36.7
			l-1-0.3c-0.9,1.7-1.6,3.4-2.1,5.2c-0.3,2.6-0.3,5.3,0,7.9c0,0.8,0.9,1.5,1.4,2.3c0.6-0.8,1.7-1.5,1.7-2.3
			C180.4,45.4,180.2,41.1,180.2,36.7z"/>
		<path d="M282.3,54.1H263c1.1-0.4,2.2-0.5,2.5-1c0.4-0.5,0.2-1.6,0.2-2.5c0-13,0-26.1,0-39.1c0-1.7,0.3-3.5-2.4-3.2h16.6v2.8
			c0,13.2,0,26.5,0,39.8C279.9,52.7,279.9,54.2,282.3,54.1z"/>
		<path d="M198.7,24.2h16.5l0.4,2.6c2.2-2.4,5.5-3.5,8.7-3.2c3.7,0.2,6.6,3.4,6.5,7.1c0,0.3,0,0.5-0.1,0.8c-0.4,3.6-3.7,5.5-8.7,4.9
			c-2.9-0.2-5.1-2.7-4.9-5.6c0-0.2,0-0.5,0.1-0.7c0.2-2,1.6-3.6,3.5-4c2.6-1,5.6-0.5,7.7,1.4c0.4,0.5,0.8,0.9,1.4,1.2
			c-0.3-0.7-0.6-1.3-1-1.9c-2-2.3-5.2-3.2-8.1-2.2c-2.7,0.6-4.8,2.8-5.2,5.5c-0.2,7.8,0,15.6,0,23.6L218,54v0.2h-19.2V54l2.3-0.4
			c0-0.9,0-1.7,0-2.5c0-7.8,0-15.7,0-23.5C201.3,25.6,201,24.4,198.7,24.2z"/>
		<path d="M49.1,51.4c-2.1,1.2-4.3,2.1-6.5,2.8c-5.3,1.3-10.9,0.5-15.7-2.1c-5.9-3.3-8-8.7-7.5-15c0.2-5.8,4.1-10.8,9.6-12.4
			c5.4-1.9,11.2-2,16.6-0.3c1.7,0.5,3.3,1.5,4.5,2.8c2.2,2.1,2.2,5.6,0.1,7.8c-0.8,0.8-1.8,1.3-2.9,1.5c-1.8,0.4-3.6,0.5-5.4,0.3
			c-2.6-0.2-4.6-2.5-4.4-5.1c0,0,0,0,0-0.1c-0.1-2.6,1.8-4.9,4.3-5.3c3.5-1,7.2,0.5,9,3.7c-0.3-0.9-0.8-1.8-1.4-2.6
			c-2.2-2.5-5.7-3.6-8.9-2.7c-3.1,0.5-5.5,3.2-5.7,6.4c-0.5,5.2-0.6,10.5-0.1,15.7c0.9,7.5,6.7,9.5,12.8,4.7l1.2-0.9L49.1,51.4z"/>
		<path d="M244,38.9c0.2,3.2,0.6,6.4,1.1,9.6c1,4.3,3.8,5.7,8.1,4.8l2.2-0.5c-2.7,1.6-6,2.2-9.1,1.7c-6.1-0.5-11.6-2.2-14.7-8.1
			c-5.5-10.5,1.3-22,13.6-22.8c2.8-0.2,5.6,0.1,8.3,0.9c5.5,1.6,9.4,6.5,9.7,12.2c0.1,1.6-0.4,2-1.9,2c-4.9,0-9.7,0-14.6,0L244,38.9
			z M250.4,38c-0.3-4.2-0.6-8.2-1.1-12c0-0.7-1-1.4-1.8-1.7c-0.7-0.2-1.5,0.6-1.7,1.1c-1.2,4.1-1.7,8.3-1.4,12.6H250.4z"/>
		<path d="M121.5,45.1c0,2.4-1,4.6-2.7,6.2c-5.3,5.8-24.2,5-28.3-6.5c-3.7-10.6,2.4-20.1,14-21.1c3.4-0.2,6.9-0.2,10.3,0v0.8h-1.9
			c-3.6-0.2-6.8,2.3-7.5,5.8c-1.4,5.9-1.5,12-0.2,17.9c1.3,5.6,5.5,7.4,10.6,4.7C118.8,51.2,120.9,48.4,121.5,45.1z"/>
		<path d="M56.8,26.2l-2.7,4.2c1.3-1.4,2.9-2.6,4.6-3.5c1.9-0.5,3.9-0.5,5.8,0c2.3,0.6,3.9,2.8,3.7,5.2c0.1,2.4-1.5,4.5-3.8,5
			c-2.7,0.8-5.6,0.3-8-1.2c-2.6-1.8-3.2-5.3-1.4-7.9C55.4,27.3,56.1,26.7,56.8,26.2L56.8,26.2z"/>
		<path d="M166.1,26.3l-2.7,4.3l0.5,0.3c1.5-3.9,6-5.8,9.9-4.3c0.3,0.1,0.6,0.2,0.8,0.4c1.8,0.9,2.8,2.7,2.8,4.7
			c0.2,2.1-0.9,4-2.8,4.8c-3.1,1.5-6.8,1.1-9.5-1c-2.4-2-2.7-5.6-0.7-7.9C164.9,27,165.5,26.6,166.1,26.3L166.1,26.3z"/>
		<path d="M121.5,30.5l-2.5-4.2c1.8,0.8,3,2.7,2.8,4.8c0.3,2.3-1,4.5-3.3,5.2c-2,0.6-4.1,0.8-6.2,0.6c-2.6,0-4.6-2.1-4.6-4.7
			c0-0.2,0-0.3,0-0.5c-0.1-2.8,2.1-5.2,4.9-5.3c0,0,0,0,0.1,0C116.9,25.7,118.7,26.6,121.5,30.5z"/>
	</g>
</g>
</svg>
