<?xml version="1.0" encoding="utf-8"?>
<!-- Generator: Adobe Illustrator 22.1.0, SVG Export Plug-In . SVG Version: 6.00 Build 0)  -->
<svg version="1.1" id="Layer_1" xmlns="http://www.w3.org/2000/svg" xmlns:xlink="http://www.w3.org/1999/xlink" x="0px" y="0px"
	 viewBox="0 0 300 65" style="enable-background:new 0 0 300 65;" xml:space="preserve">
<style type="text/css">
	.st0{fill:none;}
</style>
<rect class="st0" width="300" height="65"/>
<g id="Layer_2_1_">
	<g id="Layer_1-2">
		<path d="M168.3,56.1c-0.8,0.6-1.7,0.9-2.7,0.9c-0.7,0-1.4-0.2-2-0.5c-0.4-0.2-0.8-0.5-1.1-0.8c-0.6-0.7-1-1.6-1-2.5
			c0-1.1,0.5-2.1,1.3-2.8c0.4-0.3,0.8-0.6,1.3-0.8c0.4-0.1,0.9-0.2,1.4-0.2c0.3,0,0.6,0,0.9,0.1c0.4,0.1,0.7,0.2,1,0.4
			c0.5,0.3,0.9,0.6,1.2,1c0.2,0.3,0.4,0.6,0.6,0.9c0,0.1,0,0.1,0.1,0.2c0,0.1,0,0.1,0.1,0.2c0.1,0.4,0.2,0.7,0.2,1.1v3.5h-0.9v-1.2
			C168.6,55.8,168.5,56,168.3,56.1z M178.2,54.9L178.2,54.9c0,0.2,0.1,0.5,0.3,0.7c0.5,0.4,1.1,0.6,1.7,0.5h0.3V57
			c-0.2,0-0.4,0.1-0.6,0.1c-0.4,0-0.7-0.1-1-0.2c-0.6-0.2-1.1-0.7-1.4-1.3c-0.1-0.3-0.2-0.6-0.2-0.8v-4.1h-0.9v-1h0.9v-4h1v4h2.2v1
			h-2.2V54.9L178.2,54.9z M151.9,57h-1v-5c0-0.4-0.2-0.7-0.5-1c0,0-0.1,0-0.1-0.1c-0.3-0.2-0.6-0.3-1-0.3c-0.3,0-0.6,0.1-0.9,0.3
			c-0.3,0.3-0.6,0.7-0.6,1.1v5h-1v-5c0-0.3,0-0.7,0.2-1c0.2-0.4,0.4-0.7,0.8-0.9c0.4-0.3,1-0.5,1.5-0.5c0.5,0,1,0.2,1.4,0.5
			c0.2,0.2,0.5,0.4,0.6,0.6c0.2-0.3,0.5-0.6,0.8-0.8c0.5-0.2,1-0.3,1.5-0.3c0.7,0,1.4,0.3,1.8,0.9c0.3,0.4,0.5,0.9,0.5,1.4v5H155v-5
			c0-0.2,0-0.5-0.1-0.7c-0.3-0.5-0.8-0.8-1.3-0.7c-0.5,0-1,0.2-1.3,0.6c-0.2,0.2-0.3,0.5-0.3,0.8V57L151.9,57z M139.1,52.2
			L139.1,52.2c0,0,0-0.1-0.1-0.1c-0.4-0.7-1-1.3-1.8-1.5c-0.3-0.1-0.7-0.1-1-0.1c-0.5,0-1,0.1-1.5,0.3c-1.2,0.5-1.9,1.8-1.5,3.1
			c0.1,0.5,0.4,1,0.8,1.4l0.1,0.1l0.1,0.1c0.5,0.4,1.2,0.7,1.8,0.6c0.5,0,1-0.1,1.5-0.3c0.4-0.2,0.7-0.4,1-0.7
			c0.5-0.5,0.7-1.1,0.7-1.8C139.3,53,139.2,52.6,139.1,52.2L139.1,52.2z M138.9,56.1L138.9,56.1c-0.8,0.6-1.7,0.9-2.7,0.9
			c-0.7,0-1.4-0.1-2-0.5c-0.4-0.2-0.8-0.5-1.1-0.8c-0.4-0.4-0.7-0.9-0.8-1.5c-0.1-0.3-0.2-0.7-0.2-1.1c0-0.6,0.1-1.1,0.4-1.6
			c0.2-0.4,0.5-0.8,0.9-1.1c0.4-0.3,0.8-0.6,1.3-0.8c0.4-0.1,0.9-0.2,1.4-0.2c0.3,0,0.6,0,0.9,0.1c0.4,0.1,0.7,0.2,1,0.4
			c0.5,0.3,0.9,0.6,1.2,1c0.2,0.3,0.4,0.6,0.6,0.9c0,0.1,0,0.1,0.1,0.2c0,0.1,0,0.1,0.1,0.2c0.1,0.4,0.2,0.7,0.2,1.1v3.5h-0.9v-1.2
			C139.2,55.8,139.1,56,138.9,56.1z M126.4,55.1L126.4,55.1c-0.5,0.8-1.2,1.4-2.1,1.7c-0.5,0.2-1.1,0.3-1.6,0.3
			c-1.1,0-2.1-0.4-2.9-1.1c-0.5-0.4-0.8-1-1-1.6c-0.1-0.3-0.2-0.7-0.2-1c0-0.2,0-0.5,0.1-0.7c0.1-0.4,0.2-0.7,0.4-1
			c0.2-0.4,0.5-0.7,0.9-1c0.3-0.3,0.7-0.5,1.2-0.7c0.5-0.2,1.1-0.3,1.6-0.3c0.5,0,1,0.1,1.4,0.2c0.3,0.1,0.6,0.3,0.9,0.5
			c0.3,0.2,0.5,0.4,0.8,0.6v-5h1v7.4C126.9,53.9,126.8,54.5,126.4,55.1L126.4,55.1z M120.9,55.5L120.9,55.5c0.2,0.2,0.5,0.3,0.7,0.4
			c0.4,0.1,0.8,0.2,1.2,0.2c0.4,0,0.8-0.1,1.2-0.2c0.9-0.3,1.5-0.9,1.8-1.8c0.1-0.2,0.1-0.5,0.1-0.8c0-0.4-0.1-0.9-0.3-1.3
			c-0.3-0.6-0.9-1.1-1.6-1.4c-0.6-0.2-1.3-0.3-1.9-0.1c-0.7,0.1-1.3,0.5-1.7,1c-0.3,0.3-0.4,0.6-0.6,0.9c-0.2,0.6-0.2,1.3,0.1,1.9
			c0.2,0.4,0.4,0.7,0.7,0.9l0,0C120.7,55.4,120.8,55.5,120.9,55.5L120.9,55.5z M168.5,52.2L168.5,52.2c0,0,0-0.1-0.1-0.1
			c-0.4-0.7-1-1.3-1.8-1.5c-0.3-0.1-0.7-0.1-1-0.1c-0.5,0-1,0.1-1.5,0.3c-1.2,0.5-1.9,1.8-1.5,3.1c0.1,0.5,0.4,1,0.8,1.4l0.1,0.1
			l0.1,0.1c0.5,0.4,1.2,0.7,1.9,0.6c0.5,0,1-0.1,1.5-0.3c0.4-0.2,0.7-0.4,1-0.7c0.4-0.5,0.7-1.1,0.7-1.8
			C168.7,53,168.6,52.6,168.5,52.2L168.5,52.2z M122.9,27L122.9,27c0,3.6,0,6.6-0.2,8.1c-0.2,1.1-0.4,1.9-1.2,2.1
			c-0.4,0.1-0.8,0.1-1.2,0.2c-0.2,0-0.3,0.1-0.3,0.2s0.2,0.3,0.7,0.3c1.2,0,3.8-0.1,4-0.1c0.4,0,5.6,0.4,9.1,0.4
			c7,0,10.7-2.6,12.5-4.3c2.9-2.8,4.5-6.6,4.4-10.6c0.1-3.6-1.4-7.1-4-9.5c-4.9-4.6-12.4-4.3-16.5-4.3c-2.5,0-5.1,0.1-5.5,0.1
			c-0.2,0-2.8-0.1-4.6-0.1c-0.5,0-0.7,0.1-0.7,0.3c0,0.2,0.2,0.2,0.3,0.2c0.5,0,0.9,0,1.4,0.1c1.4,0.3,1.7,0.9,1.8,2.1
			s0.1,2.3,0.1,8.1C122.9,20.4,122.9,27,122.9,27z M126.3,19.8L126.3,19.8c0-2.9,0-6.7,0-8c-0.1-0.3,0.2-0.7,0.5-0.8
			c0.9-0.2,1.8-0.3,2.7-0.2c4.9,0,9.6,0.5,13.4,4.2c2.6,2.5,4,5.9,3.9,9.5c0,3.5-1.2,7.1-3.3,9c-2.7,2.3-6.2,3.6-9.8,3.5
			c-4.8,0-6.5-0.8-7-1.5c-0.3-0.4-0.4-1.9-0.4-2.9c0-0.7-0.1-4.2-0.1-8.1C126.3,24.5,126.3,19.8,126.3,19.8z M156.7,10.3L156.7,10.3
			c0,1.9-0.5,3.7-1.3,5.3c-0.1,0.1-0.1,0.3-0.2,0.5c0,0.1,0.1,0.2,0.2,0.2c0.2,0,0.4-0.1,0.5-0.3c1.4-1.6,3.5-4.7,3.5-7.4
			c0-0.6-0.2-0.8-0.7-1c-0.9-0.3-1.9-0.5-2.9-0.6c-0.2,0-0.4,0.1-0.4,0.2c0,0.1,0,0.3,0.4,0.6C156.5,8.6,156.7,9.4,156.7,10.3z
			 M171.7,38.4L171.7,38.4c2.2,0.1,4.3-0.5,6.2-1.6c2.1-1.4,3.4-3.7,3.5-6.2c0-3-1.2-5.3-6-8.8l-1.2-0.8c-3.9-2.9-5-4.2-5-6.3
			c0-2.7,2.2-4.4,5.1-4.4c3.8,0,4.9,1.6,5.1,2c0.3,0.6,0.5,1.2,0.6,1.9c0,0.3,0.1,0.5,0.3,0.5s0.3-0.3,0.3-0.9c0-2.6,0.2-3.8,0.2-4
			s-0.1-0.3-0.4-0.3c-0.5,0-1-0.1-1.4-0.2c-1.3-0.3-2.5-0.4-3.8-0.4c-5.2,0-8.5,2.7-8.5,6.8c0,2.6,1,4.9,5.3,8.2l1.8,1.4
			c3.5,2.7,4.7,4.2,4.7,6.8c0,2.4-1.9,5-5.9,5c-2.8,0-5.5-1.1-6.1-3.8c-0.1-0.5-0.1-0.9-0.1-1.4c0-0.3,0-0.4-0.3-0.4
			c-0.2,0-0.3,0.2-0.3,0.6c0,0.6-0.2,2.1-0.2,4c0,1,0,1.2,0.6,1.4C167.9,38.2,169.8,38.5,171.7,38.4L171.7,38.4z M116.7,41.7H184
			v0.6h-67.3V41.7z"/>
	</g>
</g>
</svg>
