<?xml version="1.0" encoding="utf-8"?>
<!-- Generator: Adobe Illustrator 22.1.0, SVG Export Plug-In . SVG Version: 6.00 Build 0)  -->
<svg version="1.1" id="Layer_1" xmlns="http://www.w3.org/2000/svg" xmlns:xlink="http://www.w3.org/1999/xlink" x="0px" y="0px"
	 viewBox="0 0 300 65" style="enable-background:new 0 0 300 65;" xml:space="preserve">
<style type="text/css">
	.st0{fill:none;}
	.st1{fill:#FFFFFF;}
	.st2{fill:#231F20;}
	.st3{fill:#00A564;}
</style>
<rect class="st0" width="300" height="65"/>
<g id="Layer_2_1_">
	<g id="Layer_1-2">
		<rect x="29" y="8.2" class="st1" width="243" height="48.6"/>
		<rect x="27.3" y="6.5" class="st1" width="246.4" height="52"/>
		<rect x="77.6" y="8.2" class="st2" width="194.4" height="48.6"/>
		<path class="st1" d="M177.3,42.3c-2.6,0-5-0.9-7-2.5v9.9h-5.5V24.7h5.5v1.9c2-1.5,4.5-2.3,7-2.3c3.4-0.2,6.8,0.9,9.4,3.1
			c1.8,1.5,2.9,3.7,2.8,6C189.6,38.6,184.7,42.3,177.3,42.3 M182.2,29.5c-1.4-1.2-3.3-1.9-5.1-1.8c-4.1,0-6.7,2.2-6.7,5.4
			c0,1.4,0.6,2.7,1.6,3.6c1.4,1.2,3.2,1.9,5.1,1.8c1.9,0.1,3.7-0.5,5.1-1.8c2-1.9,2.1-5.1,0.1-7.1C182.3,29.6,182.2,29.6,182.2,29.5
			z"/>
		<path class="st1" d="M213.2,22c-1.1,0-2.1-0.3-3-0.9c-0.5-0.3-0.9-0.9-0.9-1.6c0-0.6,0.4-1.2,0.9-1.6c0.8-0.6,1.9-1,2.9-0.9
			c1.1,0,2.1,0.3,3,0.9c0.5,0.4,0.9,0.9,0.9,1.6C217,20.9,215.3,22,213.2,22 M216.2,42h-6V24.7h6V42z"/>
		<path class="st1" d="M229.1,42.5c-4.7,0-7.5-0.9-10-3.1l-0.3-0.3l0.4-0.2l3.7-2l0.2-0.1l0.2,0.2c1.6,1.2,3.6,1.9,5.6,1.9
			c1.4,0.1,2.8-0.3,4-1c0.3-0.2,0.4-0.5,0.4-0.8c0-1.4-2.8-1.8-4.8-2.1H228c-4.2-0.6-8.5-1.6-8.5-5.1c0-1.3,0.6-2.6,1.7-3.3
			c2.7-1.6,5.8-2.4,8.9-2.3c3.2-0.2,6.4,0.8,8.8,2.9l0.3,0.3l-4.2,2l-0.3,0.2l-0.2-0.2c-1.3-1.1-3-1.6-4.7-1.6c-2,0-3.6,0.5-3.6,1.5
			c0,1.5,2.9,1.9,5,2.1c0.3,0,0.7,0,0.9,0.2c4,0.6,8.2,1.7,8.2,5.2C240.2,41,234.1,42.5,229.1,42.5"/>
		<path class="st1" d="M93.9,41.8v-10c0.1-1.1-0.4-2.1-1.2-2.8c-1.2-0.8-2.6-1.2-4-1.1c-4,0-5.1,1.9-5.1,5.1v8.8h-6V24.7h6v2
			c2-1.7,4.5-2.5,7.1-2.4c2.6-0.1,5.1,0.6,7.2,2.1c1.3,1.1,2.1,2.8,2,4.5v10.9L93.9,41.8z"/>
		<path class="st1" d="M101.4,28.2v-3.6h4V20h6v4.6h6.3v3.6h-6.3V36c0,1.7,0.7,2.7,3.4,2.7c1,0,2-0.1,2.9-0.5v3.5
			c-1.4,0.4-2.9,0.6-4.4,0.6c-6.4,0-8-2-8-6v-8.1H101.4z"/>
		<path class="st1" d="M138.1,36.9c-3.9,2.3-8.8,2.1-12.5-0.5c-0.5-0.5-0.8-1.1-1-1.7h18.7c1,0,1.5-0.4,1.5-1.6
			c-0.1-2.2-1-4.2-2.6-5.8c-2.9-2.4-6.6-3.6-10.3-3.4c-3.9-0.1-7.7,1.2-10.7,3.8c-1.5,1.4-2.4,3.3-2.4,5.4c0,2.1,0.9,4.1,2.4,5.5
			c3,2.5,6.9,3.8,10.8,3.6c2.1,0,4.3-0.3,6.3-0.9c0.8-0.3,1.7-0.7,2.4-1.1c0.8-0.5,1.5-1,2.1-1.7c0.4-0.4,0.7-0.9,1-1.4
			c0.2-0.4-0.5-0.3-1-0.3L138.1,36.9L138.1,36.9z M138.2,31.3h-14c1.6-2.5,4.5-4,7.5-3.8c2.8-0.3,5.6,0.8,7.3,3
			C139.4,31.2,138.8,31.3,138.2,31.3z"/>
		<path class="st1" d="M162.4,24.6c-0.7-0.1-1.5-0.2-2.3-0.2c-2.6,0.2-5.1,1.3-7,3.1v-2.7h-6v17.1h6v-8.5c0-3.3,2.2-4.9,6.6-4.9
			c0.7,0,1.5,0.1,2.2,0.2l0.5,0.1V24.6z"/>
		<path class="st1" d="M207.5,24.6c-0.7-0.1-1.5-0.2-2.3-0.2c-2.6,0.2-5.1,1.3-7,3.1v-2.7h-6v17.1h6v-8.5c0-3.3,2.2-4.9,6.6-4.9
			c0.7,0,1.5,0.1,2.2,0.2l0.5,0.1V24.6z"/>
		<path class="st1" d="M261,36.9c-3.9,2.3-8.8,2.2-12.4-0.5c-0.5-0.5-0.8-1.1-1-1.7h18.7c1,0,1.5-0.4,1.5-1.6
			c-0.1-2.2-1-4.2-2.6-5.8c-2.9-2.4-6.6-3.6-10.3-3.4c-3.9-0.1-7.7,1.2-10.7,3.8c-1.5,1.4-2.4,3.3-2.4,5.4c0,2.1,0.9,4.1,2.4,5.5
			c3,2.5,6.9,3.8,10.8,3.6c2.1,0,4.3-0.3,6.3-0.9c0.8-0.3,1.7-0.7,2.4-1.1c0.8-0.5,1.5-1,2.1-1.7c0.4-0.4,0.7-0.9,1-1.4
			c0.2-0.4-0.5-0.3-1-0.3L261,36.9L261,36.9z M261.1,31.3h-14c1.7-2.6,4.6-4,7.6-3.8c2.8-0.3,5.5,0.8,7.2,3
			C262.3,31.2,261.6,31.3,261.1,31.3z"/>
		<path class="st1" d="M74.3,30.9c-1-4.7-6.5-9.6-15.3-9.6l0,0c-7.7,0-13.4,4.1-15.2,8.3c0,0.1-0.2,0.5-0.2,0.6H29v4.3h41
			c2,0,3.5,0,4.1-0.8C74.6,32.9,74.7,31.8,74.3,30.9 M67.8,29.9c-0.1,0.3-0.6,0.3-1.1,0.3H49.9c0.1-0.2,0.2-0.4,0.3-0.6
			c2.2-2.6,5.5-4.1,9-4c3.2-0.3,6.4,1,8.5,3.5C67.9,29.5,67.9,29.8,67.8,29.9z"/>
		<path class="st1" d="M59,39c-3.2,0.1-6.2-1.2-8.4-3.5H44c1.7,4.1,6.9,8.1,15.1,8.1s11.7-2.9,14-5.8l0.2-0.4h-7.7
			C63.5,38.7,61.3,39.2,59,39"/>
		<path class="st3" d="M29,8.2v22.1h14.7c0-0.2,0.2-0.5,0.2-0.6c1.8-4.2,7.4-8.3,15.2-8.3l0,0c8.8,0,14.3,4.8,15.3,9.6
			c0.3,0.9,0.3,2-0.2,2.9c-0.6,0.8-2,0.8-4.1,0.8H29v22.2h48.6V8.2H29z M72.9,37.9c-2.2,2.9-5.6,5.8-14,5.8c-8.4,0-13.3-4-15.1-8.1
			h6.5c2.2,2.3,5.3,3.6,8.4,3.5c2.3,0.2,4.6-0.4,6.6-1.5h7.8L72.9,37.9z"/>
		<path class="st3" d="M67.8,29.9c0.1-0.2,0-0.4-0.1-0.8c-2.1-2.5-5.2-3.8-8.5-3.5c-3.4-0.1-6.7,1.4-8.9,4c-0.1,0.2-0.3,0.4-0.3,0.6
			h16.9C67.3,30.3,67.8,30.3,67.8,29.9"/>
		<path class="st3" d="M71.6,32.4c0.3-0.3,0.5-0.7,0.4-1.1C72,29.1,68,23,59,23c-8.6,0-11.7,5-12.5,6.5c-0.1,0.2-0.2,0.5-0.3,0.7h1
			c0.1-0.2,0.2-0.4,0.3-0.6c0.7-1.3,4-5.7,11.5-5.7c8.9,0,12,6,12,7.3c0,0.1,0,0.3-0.1,0.4c-0.3,0.2-0.6,0.3-2.8,0.3H29v0.9h39.1
			C71,32.8,71.3,32.6,71.6,32.4"/>
		<path class="st3" d="M70.2,37.5l-0.1,0.1c-3.5,4.3-10.7,4.2-11.5,4.2c-6.2-0.1-10.4-3.3-12-6.3h1c1.4,2.5,5,5.2,10.9,5.4
			c0.3,0,6.8,0.3,10.4-3.4H70.2z"/>
		<path class="st1" d="M33.9,51.9c0.4,0.3,0.5,0.8,0.5,1.3c0,0.5-0.2,1-0.5,1.3c-0.3,0.4-0.8,0.5-1.3,0.5c-0.5,0-1-0.2-1.3-0.5
			c-0.3-0.3-0.5-0.8-0.5-1.3c0-1,0.8-1.8,1.8-1.9c0,0,0,0,0,0C33.1,51.4,33.6,51.5,33.9,51.9 M34.1,51.7c-0.4-0.4-0.9-0.6-1.5-0.6
			c-1.2,0.1-2.1,1.2-1.9,2.4c0.1,1,0.9,1.8,1.9,1.9c1.2,0,2.1-1,2.1-2.2C34.8,52.6,34.5,52.1,34.1,51.7z M32.9,53.1h-0.4h-0.4v-0.7
			h0.4c0.2,0,0.3,0,0.5,0c0.2,0.1,0.3,0.4,0.1,0.6C33.1,53,33.1,53.1,32.9,53.1L32.9,53.1z M31.7,54.4h0.4v-0.9h0.3
			c0.2,0,0.3,0,0.5,0c0.2,0.1,0.2,0.3,0.2,0.5v0.4h0.4c0,0,0-0.1,0-0.1v-0.4c0-0.1,0-0.3-0.1-0.4c-0.1-0.1-0.3-0.2-0.4-0.2l0.3-0.1
			c0.2-0.1,0.2-0.3,0.2-0.5c0-0.3-0.1-0.5-0.4-0.6c-0.2,0-0.4,0-0.6,0h-0.8V54.4z"/>
		<rect x="220.3" y="49.3" class="st1" width="4.9" height="1.4"/>
		<path class="st1" d="M232.4,52.5L232.4,52.5c-0.7,0.8-1.8,1.1-2.8,1.1c-1.8,0-3.5-0.7-3.5-2c0-2.1,3.4-2.3,5.8-2.3h0.6v-0.2
			c0-0.8-0.9-1.2-2.2-1.2c-0.8,0-1.6,0.2-2.3,0.7l-1.3-0.9c1.1-0.8,2.5-1.1,3.9-1.1c4.1,0,4.1,2,4.1,3v3.8h-2.2L232.4,52.5z
			 M232.3,50.5h-0.5c-1.3,0-3.4,0-3.4,1c0,0.6,0.9,0.9,1.7,0.9c1.6,0,2.2-0.6,2.2-1.5L232.3,50.5z"/>
		<path class="st1" d="M257.3,52.5L257.3,52.5c-0.7,0.8-1.8,1.1-2.8,1.1c-1.8,0-3.5-0.7-3.5-2c0-2.1,3.4-2.3,5.8-2.3h0.6v-0.2
			c0-0.8-0.9-1.2-2.2-1.2c-0.8,0-1.7,0.2-2.4,0.7l-1.3-0.9c1.1-0.8,2.5-1.1,3.9-1.1c4.1,0,4.1,2,4.1,3v3.8h-2.2L257.3,52.5z
			 M257.2,50.5h-0.4c-1.3,0-3.4,0-3.4,1c0,0.6,0.9,0.9,1.7,0.9c1.6,0,2.2-0.6,2.2-1.5L257.2,50.5z"/>
		<rect x="235.7" y="49.3" class="st1" width="4.9" height="1.4"/>
		<path class="st1" d="M248.8,48.8c-0.5-0.4-1.2-0.6-1.8-0.7c-1.8,0-2.8,0.9-2.8,2c0,1.1,1.1,2,2.8,2c0.7,0,1.3-0.2,1.9-0.6l1.6,1.2
			c-1.1,0.6-2.3,0.9-3.5,0.9c-2.9,0-5.2-1.4-5.2-3.5s2.3-3.5,5.2-3.5c1.2,0,2.5,0.3,3.5,1L248.8,48.8z"/>
		<path class="st1" d="M210.2,53.4v-4c0-0.4-0.2-0.8-0.5-1.1c-0.5-0.3-1-0.5-1.5-0.4c-1.6,0-2,0.7-2,2v3.4h-2.3v-6.5h2.3v0.7
			c0.7-0.6,1.7-1,2.7-0.9c1-0.1,2,0.2,2.8,0.8c0.5,0.4,0.8,1.1,0.8,1.8v4.2L210.2,53.4z"/>
		<path class="st1" d="M213.1,48.1v-1.4h2v-1.8h2.3v1.8h2.4v1.4h-2.5v3c0,0.7,0.3,1.1,1.3,1.1c0.4,0,0.8,0,1.1-0.2v1.4
			c-0.6,0.1-1.1,0.2-1.7,0.2c-2.5,0-3.1-0.8-3.1-2.3v-3.2H213.1z"/>
		<path class="st1" d="M192.3,46.7c-0.3,0-0.6,0-0.9,0c-1,0.1-2,0.5-2.7,1.2v-1.1h-2.3v6.6h2.3v-3.4c0-1.3,0.9-2,2.6-2
			c0.3,0,0.6,0,0.9,0.1h0.2V46.7z"/>
		<path class="st1" d="M267,46.7c-0.3,0-0.6,0-0.9,0c-1,0.1-2,0.5-2.7,1.2v-1.1h-2.3v6.6h2.3v-3.4c0-1.3,0.8-2,2.6-2
			c0.3,0,0.6,0,0.8,0.1h0.2L267,46.7z"/>
		<path class="st1" d="M200.2,51.5c-0.6,0.4-1.4,0.6-2.1,0.6c-0.9,0.1-1.9-0.2-2.6-0.8c-0.2-0.2-0.3-0.4-0.4-0.7h7.1
			c0.4,0,0.6-0.2,0.6-0.6c0-0.8-0.4-1.6-1-2.2c-2.4-1.8-5.7-1.7-8,0.2c-0.6,0.5-0.9,1.2-0.9,2c0,0.8,0.4,1.5,0.9,2
			c1.2,1,2.6,1.5,4.1,1.4c0.8,0,1.6-0.1,2.4-0.4c0.3-0.1,0.6-0.3,0.9-0.4c0.3-0.2,0.6-0.4,0.8-0.6c0.2-0.2,0.3-0.3,0.4-0.5
			c0-0.2-0.2-0.1-0.4-0.1h-1.9L200.2,51.5z M200.2,49.4h-5.3c0.6-1,1.7-1.5,2.9-1.5c1.1-0.1,2.1,0.3,2.8,1.1
			C200.7,49.4,200.4,49.4,200.2,49.4L200.2,49.4z"/>
	</g>
</g>
</svg>
