<?xml version="1.0" encoding="utf-8"?>
<!-- Generator: Adobe Illustrator 22.1.0, SVG Export Plug-In . SVG Version: 6.00 Build 0)  -->
<svg version="1.1" id="Layer_1" xmlns="http://www.w3.org/2000/svg" xmlns:xlink="http://www.w3.org/1999/xlink" x="0px" y="0px"
	 viewBox="0 0 300 65" style="enable-background:new 0 0 300 65;" xml:space="preserve">
<style type="text/css">
	.st0{fill:none;}
</style>
<rect class="st0" width="300" height="65"/>
<g id="Layer_2_1_">
	<g id="Layer_1-2">
		<path d="M103,44.2c1.3,1,3,1.6,4.7,1.5c1.8,0,3.5-0.8,4.7-2.1c2.9,3.5,4.5,3.8,8.8,2.2c0.4-0.1,0.7,0,1,0.2c3.4,2,7.6-0.1,9.2-2.7
			c0.5-0.6,0.4-1.5-0.2-1.9c-0.1-0.1-0.2-0.1-0.3-0.2c-0.7-0.5-1.8-0.5-2.4,0.2c-0.6,0.5-1.2,1.2-1.8,1.7c-0.6,0.8-1.7,0.9-2.5,0.3
			c0,0-0.1,0-0.1-0.1c1.3-1.8,1.8-4.1,1.4-6.3c0-1.4-1.2-2.6-2.7-2.5c-0.7,0-1.3,0.3-1.8,0.7c-1.1,0.8-1.8,2.1-1.9,3.5
			c-0.1,1.4,0,2.9,0,4.3c-2.1,1.2-3.9-0.2-3.6-2.5c0.1-0.7,0-1.5,0-2.2c0-2.3-0.7-3-3-2.9c-0.8,0-1.6,0.6-1.7,1.4
			c-0.3,1.5-0.8,2.9-1.4,4.3c-0.4,1-1.5,1.5-2.5,1.3c-1.1-0.2-1.2-1.2-1.4-2c-0.1-1.2-0.2-2.4-0.2-3.6c-0.1-1.2-0.5-1.9-1.4-2
			c-1.1-0.2-2.2,0.5-2.4,1.6c0,0,0,0,0,0c-0.1,0.5-0.2,1-0.2,1.6c-0.1,2.3-1.5,4.4-3.5,5.6c-0.6,0.4-1.4,0.4-1.8-0.2
			c0,0-0.1-0.1-0.1-0.1c1-1.5,1.5-3.3,1.4-5.2c0-1.3-0.9-2.5-2.1-2.9c-1.3-0.2-2.6,0.6-3.2,1.8c-0.2,0.4-0.4,0.9-0.5,1.4
			c-0.1,1-0.2,2-0.3,2.9c0,2.1-0.3,2.3-2.4,2.1c-0.5,0-1-0.1-1.5-0.3c-1.3-0.3-2.1-1.6-1.9-2.9c0.1-0.9,0.3-1.8,0.7-2.6
			c0.4-1.2,0.3-1.9-0.5-2.3c-0.9-0.5-2.1-0.2-2.6,0.7c-1.7,2.6-1.5,6,0.5,8.4c2.3,2.5,5.3,3,8.7,1.5c0.5-0.3,1.1-0.3,1.6,0
			c1.3,0.8,2.9,1,4.3,0.5C99.8,45.7,101.3,44.9,103,44.2z"/>
		<path d="M140.5,28c0.1,3.7,0.9,7.4,2.6,10.8c1.6,3,3.8,5.4,7.3,6.1c2.1,0.4,4.3,0.1,6.3-0.8c0.8-0.3,1.3-1.1,1-2c0,0,0,0,0,0
			c-0.4-0.8-1.3-1.1-2.2-0.8l-0.5,0.2c-3.3,1.4-7.1,0.1-8.9-3.1c-2.2-3.8-2.9-8.2-2-12.5c0.6-4.1,3-7.7,6.6-9.9
			c0.8-0.5,1.7-0.8,2.6-1c1.2-0.2,1.8,0.3,1.8,1.5c0.1,1.2,0,2.4-0.2,3.6c-0.5,1.8-1.3,3.4-2.5,4.8c-0.4,0.5-0.5,1.1-0.4,1.7
			c0.3,0.8,1.2,1.3,2,1.2c1-0.1,1.9-0.7,2.4-1.5c1.8-2.5,2.7-5.5,2.7-8.6c0.2-2.7-1.9-5.1-4.6-5.3c-2.2-0.3-4.5,0.2-6.3,1.5
			C143.4,16.9,140.4,22.2,140.5,28z"/>
		<path d="M210.4,16.8c-0.2,0-0.4,0-0.6,0c-1.1,0.2-1.9,1.2-1.8,2.4c0.1,1,1.1,1.8,2.1,1.6c0,0,0.1,0,0.1,0c0.6,0,1.3-0.2,1.8-0.4
			c0.9-0.3,1.3-1.3,1-2.2c0-0.1-0.1-0.1-0.1-0.2C212.4,17,211.6,16.8,210.4,16.8z"/>
		<path d="M96.2,16.7c1.3,0.2,2.4-0.7,2.6-2c0,0,0,0,0,0c0-1.2-0.7-1.7-2.2-1.7c-1.2-0.1-2.2,0.7-2.3,1.9c0,0,0,0,0,0
			c0,1,0.7,1.8,1.7,1.8C96.1,16.7,96.1,16.7,96.2,16.7z"/>
		<path d="M67.5,20.4c0.3-1.4,0.5-2.7,0.9-4.1c0.8-3.4,3.1-6.4,6.2-7.9c2.4-1.3,5.3-1.3,7.7,0c3.5,1.7,5.8,5.2,6,9.1
			c0.5,4.4-2.7,8.3-7.1,8.8c-0.8,0.1-1.6,0-2.4-0.1c-0.2,0-0.5-0.1-0.7-0.2c-0.8-0.4-1.6-0.9-1.4-2c0.2-0.9,1.1-1.6,2-1.6
			c0.8,0.1,1.7,0,2.5-0.1c2.1-0.4,3.5-2.4,3.1-4.5c0-0.2-0.1-0.4-0.1-0.5c-0.3-1.3-0.8-2.6-1.5-3.7c-2.6-4.3-6.9-3.1-9-0.5
			c-2,2.3-2.4,5.1-2.6,8c-0.3,6.9,1,13.7,3.8,20.1c0.4,1,0.8,2.1,1,3.2c0.2,0.8,0.2,1.7-0.8,2.1s-1.5-0.3-2-1.2
			c-3.1-5.6-4.9-11.9-5.5-18.3c0-0.2-0.1-0.5-0.2-0.7V20.4z"/>
		<path d="M103,44.2c-1.8,0.8-3.2,1.5-4.8,2c-1.5,0.4-3,0.2-4.3-0.5c-0.5-0.3-1.1-0.3-1.6,0c-3.4,1.6-6.4,1-8.7-1.5
			c-2.1-2.3-2.3-5.8-0.5-8.4c0.5-0.9,1.7-1.2,2.6-0.7c0.8,0.4,0.9,1.1,0.5,2.3c-0.3,0.9-0.5,1.7-0.7,2.6c-0.2,1.3,0.7,2.5,1.9,2.9
			c0.5,0.2,1,0.3,1.5,0.3c2.1,0.2,2.3,0,2.4-2.1c0-1,0.1-2,0.3-2.9c0.1-0.5,0.2-0.9,0.5-1.4c0.5-1.3,1.8-2,3.2-1.8
			c1.2,0.4,2.1,1.6,2.1,2.9c0.2,1.8-0.3,3.7-1.4,5.2c0.4,0.6,1.2,0.8,1.8,0.4c0,0,0.1-0.1,0.1-0.1c2.1-1.1,3.4-3.2,3.5-5.6
			c0.1-0.5,0.1-1.1,0.2-1.6c0.2-1.1,1.3-1.8,2.4-1.6c0,0,0,0,0,0c1,0.1,1.4,0.7,1.4,2c0.1,1.3,0.1,2.4,0.2,3.6
			c0.1,0.9,0.2,1.8,1.4,2c1.1,0.2,2.1-0.3,2.5-1.3c0.6-1.4,1-2.9,1.4-4.3c0.1-0.8,0.8-1.4,1.7-1.4c2.3-0.1,3.1,0.6,3,2.9
			c0,0.7,0,1.5,0,2.2c-0.3,2.4,1.5,3.7,3.6,2.5c0-1.4-0.1-2.9,0-4.3c0.1-1.4,0.8-2.7,1.9-3.5c1-1,2.7-1,3.7,0.1
			c0.5,0.5,0.7,1.1,0.7,1.8c0.4,2.2-0.1,4.5-1.4,6.3c0.7,0.7,1.8,0.6,2.5-0.1c0,0,0-0.1,0.1-0.1c0.6-0.5,1.2-1.1,1.8-1.7
			c0.7-0.7,1.7-0.7,2.4-0.2c0.7,0.3,1,1.1,0.7,1.8c0,0.1-0.1,0.2-0.2,0.3c-1.6,2.6-5.9,4.7-9.2,2.7c-0.3-0.2-0.7-0.2-1-0.2
			c-4.3,1.6-5.9,1.2-8.8-2.2c-1.2,1.3-2.9,2.1-4.7,2.1C106.1,45.8,104.4,45.2,103,44.2z"/>
		<path d="M140.5,28c-0.1-5.7,2.9-11.1,7.7-14.1c1.8-1.3,4.1-1.9,6.3-1.5c2.7,0.2,4.8,2.5,4.6,5.3c0,3.1-1,6.1-2.7,8.6
			c-0.5,0.9-1.4,1.4-2.4,1.5c-0.9,0.1-1.7-0.4-2-1.2c-0.1-0.6,0.1-1.2,0.5-1.7c1.2-1.4,2.1-3,2.6-4.8c0.2-1.2,0.2-2.4,0.2-3.6
			c0-1.2-0.6-1.7-1.8-1.5c-0.9,0.2-1.8,0.5-2.6,1c-3.5,2.2-5.9,5.8-6.6,9.9c-0.9,4.3-0.2,8.7,2,12.5c1.7,3.1,5.6,4.5,8.9,3.1
			l0.5-0.2c0.8-0.3,1.8,0.1,2.2,0.8c0.3,0.8-0.2,1.7-1,2c0,0,0,0,0,0c-2,0.9-4.2,1.2-6.3,0.8c-3.6-0.7-5.7-3.1-7.3-6.1
			C141.4,35.4,140.5,31.7,140.5,28z"/>
		<path d="M210.4,16.8c1.2,0,2.1,0.2,2.5,1.2c0.4,0.8,0.1,1.9-0.7,2.3c-0.1,0-0.1,0.1-0.2,0.1c-0.6,0.3-1.2,0.4-1.8,0.4
			c-1,0.2-2-0.5-2.2-1.5c0,0,0-0.1,0-0.1c-0.1-1.1,0.7-2.1,1.8-2.4C210,16.8,210.2,16.8,210.4,16.8z"/>
		<path d="M96.2,16.7c-1,0.1-1.8-0.7-1.9-1.7c0-0.1,0-0.1,0-0.2c0.1-1.2,1.1-2,2.3-1.9c0,0,0,0,0,0c1.5,0,2.2,0.6,2.2,1.7
			C98.6,15.9,97.5,16.8,96.2,16.7C96.2,16.7,96.2,16.7,96.2,16.7z"/>
		<path d="M222,44.5c-3.6,2.4-6.3,1.4-8.5-1.9c-1.4,1.5-3.4,2.4-5.5,2.6c-1.9,0.3-3.9-0.2-5.5-1.4c-0.3-0.3-0.8-0.3-1.2-0.2
			c-2.2,1-4.7,1-6.9,0c-0.3-0.1-0.7-0.1-1,0c-3.4,2.2-5.3,2.2-8.6-0.1c-2.7,1.8-5.5,3.2-8.6,0.6c-0.9,0.5-1.9,1-2.9,1.4
			c-1.5,0.7-3.4,0.5-4.7-0.6c-0.4-0.4-1.1-0.4-1.6,0c-1.3,1-2.9,1.4-4.5,1.2c-1.4-0.2-2.6-1.2-3.2-2.5c-1-2.8,0-5.9,2.4-7.6
			c0.7-0.6,1.8-0.5,2.4,0.2c0,0,0,0,0,0c0.6,0.8,0.5,1.9-0.3,2.4c0,0-0.1,0-0.1,0.1c-1,0.7-1.7,1.9-1.7,3.2c0,1.3,0.8,1.7,1.9,1.1
			c0.8-0.4,1.4-1.2,1.5-2.2c0-0.7,0.2-1.5,0.2-2.2c0-1.1,0.9-1.9,1.9-1.9c0,0,0,0,0,0c1.3-0.1,1.8,0.3,2,1.7c0,0.7,0,1.4,0,2.1
			c0,1.4,0.7,2.3,1.7,2.3c1.2,0.1,2.3-0.8,2.5-2c0.1-1.2,0.1-2.4,0.1-3.6c0-1.5,0.7-2.2,2-2.2c1.6,0,2.5,0.6,2.7,2.1
			c0.1,1.1,0,2.1,0.1,3.2c0.1,0.6,0.4,1.6,0.8,1.8c0.7,0.2,1.5,0.1,2.2-0.3c0.9-0.4,1.5-1.2,1.7-2.2c0.3-1.1,0.7-2.1,1.2-3
			c0.9-1.4,2.4-2.3,4.1-2.2c0.8,0,1.1-0.4,1.2-1.2c0.5-4.7,1.7-9.3,3.5-13.6c0.4-0.8,0.9-1.5,1.6-2.1c0.4-0.6,1.3-0.8,1.9-0.4
			c0.4,0.3,0.6,0.7,0.6,1.2c0.1,0.9,0,1.9-0.3,2.7c-1.2,3.8-2.5,7.6-3.5,11.4c-0.4,1.6-0.4,3.3-0.1,4.9c0.2,1.1,0.8,2.2,1.6,3
			c1,1.3,2.8,1.5,4.1,0.6c0.4-0.3,0.8-0.8,1-1.3c0.5-1,0.8-2.2,1.4-3.2c0.4-0.9,1.4-1.4,2.3-1.1c0,0,0.1,0,0.1,0.1
			c1.4,0.4,1.7,1.4,1.2,2.9c-0.3,0.7-0.6,1.4-1,2.1c-0.3,0.8-0.1,1.4,0.8,1.6c1.4,0.3,2.9-0.1,3.9-1.1c0.9-0.8,1.6-1.6,2.5-2.5
			c0.9-0.9,2.4-1.1,3.5-0.5c0.4,0.3,0.8,0.8,1,1.3c0.5,0.9,0.8,1.9,1.2,2.8c0.1,0.5,0.7,0.8,1.1,0.6c0.2-0.1,0.3-0.1,0.4-0.3
			c0.9-0.9,1.7-1.9,2.5-2.9c0.4-0.5,0.8-1,1.4-1.4c0.8-0.6,1.9-0.4,2.5,0.4c0.3,0.4,0.4,0.8,0.3,1.3c-0.1,3.5-0.2,6.9-0.3,10.4
			c-0.2,2.3,1.2,4.5,3.4,5.3c1.3,0.5,2.6,0.8,3.9,1.1c1.3,0.4,2,1.2,1.6,2.6c-0.2,0.5-0.6,0.9-1.2,1c-4.1,0.2-7.6-0.9-10.2-4.3
			c-1.1-1.3-1.6-3.1-1.4-4.8C221.6,48.7,221.8,46.8,222,44.5z M189.5,42.1c1.5,0,2.2-0.9,1.7-2.3c-0.2-0.6-0.5-1.2-0.9-1.8
			c-0.3-0.4-0.6-0.6-1.1-0.7c-1.1,0.1-1.9,1-2,2.1C187.3,40.7,188.2,41.8,189.5,42.1z"/>
	</g>
</g>
</svg>
