<?xml version="1.0" encoding="utf-8"?>
<!-- Generator: Adobe Illustrator 22.1.0, SVG Export Plug-In . SVG Version: 6.00 Build 0)  -->
<svg version="1.1" id="Layer_1" xmlns="http://www.w3.org/2000/svg" xmlns:xlink="http://www.w3.org/1999/xlink" x="0px" y="0px"
	 viewBox="0 0 300 65" style="enable-background:new 0 0 300 65;" xml:space="preserve">
<style type="text/css">
	.st0{fill:none;}
	.st1{fill:#010101;}
	.st2{fill:#EB2227;}
</style>
<rect class="st0" width="300" height="65"/>
<g id="Layer_2_1_">
	<g id="Layer_1-2">
		<polygon class="st1" points="234.5,39.1 238.5,18 246,18 242,39.1 		"/>
		<path class="st1" d="M157.4,27.3c-0.1,0.7-0.3,1.3-0.4,1.7c-0.2,0.6-0.5,1.2-0.8,1.8h-12.2c-0.1,1,0.4,2,1.2,2.6
			c1.2,0.7,2.6,1,4,0.9c2,0,4-0.3,5.9-0.9l-1,5.1c-2.3,0.7-4.7,1-7.1,1c-1.6,0-3.2-0.2-4.7-0.6c-1.2-0.4-2.3-1-3.3-1.9
			c-1.1-1-1.8-2.3-2.2-3.8c-0.4-1.6-0.4-3.3-0.1-5c0.5-3,2.1-5.7,4.4-7.7c2.2-2,5.1-3,8.1-3c1.3,0,2.7,0.2,3.9,0.7
			c1,0.4,2,1.1,2.7,1.9c0.7,0.9,1.2,2,1.4,3.1C157.7,24.7,157.7,26,157.4,27.3 M150.7,27.2c0.3-1.1,0.2-2.3-0.1-3.4
			c-0.4-0.7-1.1-1.1-1.9-1c-2,0-3.3,1.5-3.9,4.4H150.7z M176.7,25.1c-0.9-0.5-1.9-0.7-2.9-0.7c-1.4,0-2.8,0.5-3.8,1.5
			c-1.1,1.2-1.8,2.7-2.1,4.4l-1.7,8.9h-7.6l4-21.1h7.2l-0.9,4.8c1.1-3.1,4.1-5.2,7.4-5.1h0.7l0.9,0.1L176.7,25.1z M194.7,25.1
			c-0.9-0.5-1.9-0.7-2.9-0.7c-1.4,0-2.8,0.5-3.8,1.5c-1.1,1.2-1.8,2.7-2.1,4.4l-1.7,8.9h-7.6l4-21.1h7.2l-0.9,4.8
			c1.1-3.2,4.2-5.2,7.6-5.1h0.7l0.9,0.1L194.7,25.1z M216.2,27.3c-0.1,0.6-0.2,1.2-0.4,1.7c-0.2,0.6-0.5,1.2-0.8,1.8h-12.2
			c-0.1,1,0.4,2,1.2,2.6c1.2,0.7,2.6,1,4,0.9c2,0,4-0.3,5.9-0.9l-1,5.1c-2.3,0.7-4.7,1-7.1,1c-1.6,0-3.1-0.2-4.7-0.6
			c-1.2-0.4-2.4-1-3.3-1.9c-1.1-1-1.8-2.3-2.2-3.8c-0.4-1.6-0.5-3.4-0.2-5c0.6-3,2.1-5.7,4.4-7.7c2.2-1.9,5.1-3,8.1-3
			c1.3,0,2.7,0.2,3.9,0.7c1.1,0.4,2,1.1,2.8,2c0.7,0.9,1.2,2,1.5,3.1C216.5,24.7,216.5,26,216.2,27.3z M209.5,27.2
			c0.3-1.1,0.2-2.3-0.1-3.4c-0.4-0.7-1.1-1.1-1.9-1c-2,0-3.3,1.5-3.9,4.4H209.5z M230.8,39.2c-0.7,0.1-1.5,0.2-2.2,0.3
			c-0.7,0.1-1.5,0-2.4,0c-2.3,0.3-4.6-0.4-6.3-1.9c-1.3-1.7-1.6-4-1-6l3.2-16.3l8.3-4.3l-1.4,7.1h5.7l-1.1,5.7h-5.7l-1.1,5.9
			c-0.3,1.1-0.3,2.2,0.2,3.2c0.4,0.6,1.3,0.9,2.8,0.9c0.7,0,1.4,0,2.1-0.1L230.8,39.2z"/>
		<path class="st1" d="M123.8,39.1l2.3-11.8c0.2-0.7,0.2-1.4,0-2.2c-0.2-0.7-0.7-1-1.6-1c-2.3,0-3.8,1.8-4.4,5.3l-1.9,9.7h-7.5
			l5.6-29.6h7.6l-2.4,12.6c0.8-1.3,1.9-2.5,3.3-3.3c1.3-0.8,2.7-1.2,4.2-1.2c1.2,0,2.4,0.3,3.5,0.9c0.9,0.6,1.5,1.6,1.7,2.7
			c0.1,0.7,0.1,1.5,0,2.2c-0.1,1.2-0.3,2.4-0.5,3.6l-2.2,12.1H123.8z"/>
		<path class="st1" d="M108.2,33.2c-0.3,1.9-1.4,3.6-3,4.7c-1.9,1.2-4.1,1.8-6.3,1.7c-0.6,0-1.2,0-1.8,0c-0.6,0-1.1-0.1-1.7-0.2
			s-1.2-0.2-1.9-0.4s-1.5-0.3-2.3-0.6l1.1-5.5c0.4,0.2,0.9,0.3,1.3,0.5l1.5,0.4c0.5,0.1,1,0.2,1.5,0.3c0.5,0.1,0.9,0.1,1.4,0.1
			c1.4,0,2.1-0.5,2.3-1.6c0.1-0.2,0.1-0.5,0-0.7c-0.1-0.3-0.3-0.5-0.5-0.7c-0.3-0.3-0.7-0.5-1.1-0.8c-0.5-0.3-1-0.6-1.8-1
			c-2.2-0.9-3.4-3.3-2.9-5.7c0.3-1.9,1.3-3.5,2.9-4.6c1.8-1.1,3.8-1.7,5.9-1.6c1.2,0,2.5,0.1,3.7,0.3c1.3,0.2,2.6,0.5,3.9,0.8
			l-1.1,5.5c-1.2-0.3-2.3-0.6-3.2-0.8c-0.8-0.1-1.5-0.2-2.3-0.2c-0.6,0-1.2,0.1-1.8,0.4c-0.4,0.2-0.7,0.6-0.8,1.1
			c-0.1,0.2-0.1,0.4,0,0.6c0.1,0.2,0.2,0.4,0.4,0.5c0.3,0.2,0.5,0.4,0.9,0.6c0.4,0.2,0.9,0.5,1.5,0.7c0.8,0.4,1.5,0.8,2.3,1.3
			c0.5,0.3,1,0.8,1.4,1.3c0.3,0.5,0.5,1,0.6,1.5C108.4,31.9,108.4,32.5,108.2,33.2"/>
		<path class="st2" d="M248.2,11.7c-0.1,1.1-0.7,2.2-1.5,2.9c-0.9,0.7-2,1-3.1,1c-1,0.1-2-0.3-2.7-1c-0.6-0.9-0.7-1.9-0.4-2.9
			c0.1-1.1,0.7-2.1,1.5-2.9c0.9-0.7,2-1,3.1-1c1-0.1,2,0.2,2.7,0.9c0.3,0.4,0.4,0.8,0.5,1.3C248.4,10.6,248.4,11.1,248.2,11.7"/>
		<polygon class="st2" points="66.6,39.1 84.2,9.6 94.8,9.7 77.3,39.3 		"/>
		<polygon class="st1" points="52,39.1 69.6,9.6 80.2,9.7 62.7,39.3 		"/>
		<path class="st1" d="M198.9,50.5h1.6c0.4,0,0.8-0.1,1.1-0.3c0.3-0.2,0.6-0.5,0.7-0.9c0.1-0.3,0.2-0.7,0.1-1.1
			c-0.1-0.6-0.6-1-1.1-0.9h-1.8L198.9,50.5z M200,52.6h-1.5l-0.7,4h-2.7l1.9-11.3h4c1.1-0.1,2.1,0.2,3,0.9c0.7,0.6,1.1,1.5,1.1,2.4
			c0,0.7-0.3,1.4-0.7,2c-0.5,0.6-1.1,1-1.8,1.3l1.5,4.6v0.2h-2.9L200,52.6z M185.5,52.4h2.4l-0.5-3.9L185.5,52.4z M188.1,54.5h-3.6
			l-1,2.1h-2.9l6-11.3h2.5l2.1,11.3h-2.8L188.1,54.5z M177.6,52.8c0,0.8-0.3,1.5-0.8,2.1c-0.5,0.6-1.1,1.1-1.9,1.4
			c-0.8,0.3-1.6,0.5-2.4,0.5c-1.1,0-2.1-0.4-2.8-1.2c-0.7-0.8-1.1-1.9-1.1-3c0-0.9,0.1-1.9,0.3-2.8c0.2-0.9,0.6-1.8,1.1-2.6
			c0.5-0.7,1.1-1.3,1.9-1.7c0.7-0.4,1.5-0.5,2.3-0.5c1.1,0,2.2,0.4,2.9,1.1c0.8,0.8,1.2,1.9,1.2,3h-2.6c0.1-0.5-0.1-1.1-0.4-1.5
			c-0.3-0.3-0.8-0.5-1.2-0.5c-1.4,0-2.3,1.1-2.6,3.3c-0.1,0.7-0.2,1.4-0.2,2.2c0,1.3,0.5,1.9,1.4,2c0.5,0,1.1-0.1,1.5-0.5
			c0.4-0.4,0.7-0.9,0.7-1.4L177.6,52.8z M154.5,52.4h2.4l-0.5-3.9L154.5,52.4z M157.2,54.5h-3.6l-1,2.1h-3l6-11.3h2.5l2.1,11.3h-2.8
			L157.2,54.5z M144.4,47.4h-3.3l-1.6,9.3h-2.7l1.6-9.3h-3.2l0.4-2.1h9.3L144.4,47.4z M129.5,56.7h-2.6l-2.7-7.3l-1.2,7.2h-2.7
			l1.9-11.3h2.6l2.8,7.2l1.2-7.2h2.7L129.5,56.7z M116.3,51.8H112l-0.5,2.7h5l-0.4,2.1h-7.6l1.9-11.3h7.7l-0.4,2.1h-5l-0.4,2.4h4.2
			L116.3,51.8z M99.1,50.5h1.6c0.4,0,0.8-0.1,1.1-0.3c0.3-0.2,0.6-0.5,0.7-0.9c0.1-0.3,0.2-0.7,0.1-1.1c-0.1-0.6-0.6-1-1.1-0.9h-1.9
			L99.1,50.5z M100.2,52.6h-1.5l-0.7,4h-2.8l1.9-11.3h4c1.1-0.1,2.1,0.3,3,0.9c0.7,0.6,1.1,1.5,0.9,2.5c0,0.7-0.3,1.4-0.7,2
			c-0.5,0.6-1.1,1-1.8,1.3l1.5,4.6v0.2h-2.8L100.2,52.6z"/>
	</g>
</g>
</svg>
